<?xml version="1.0" encoding="utf-8"?>
<!-- Generator: Adobe Illustrator 16.0.0, SVG Export Plug-In . SVG Version: 6.00 Build 0)  -->
<!DOCTYPE svg PUBLIC "-//W3C//DTD SVG 1.1//EN" "http://www.w3.org/Graphics/SVG/1.1/DTD/svg11.dtd">
<svg version="1.1" xmlns="http://www.w3.org/2000/svg" xmlns:xlink="http://www.w3.org/1999/xlink" x="0px" y="0px" width="1200px"
	 height="800px" viewBox="0 0 1200 800" enable-background="new 0 0 1200 800" xml:space="preserve">
<g id="Background">
	<rect fill="#9AC3E8" width="1200" height="800"/>
	<g>
		<path fill="#FFFFFF" d="M905.135,117.223c-0.411,0.122-0.82,0.247-1.229,0.372c9.786-8.687,13.225-23.799,8.159-35.865
			c-5.064-12.066-18.259-20.196-31.313-19.296c-6.795,0.469-13.364,3.175-18.751,7.342c-3.943,3.051-7.336,6.966-9.108,11.627
			c-1.772,4.66-1.779,10.112,0.627,14.479c-3.753-3.177-7.507-6.354-11.26-9.53c-3.369-2.851-7.129-5.854-11.541-5.889
			c-6.197-0.048-11.032,6.181-11.493,12.36s2.341,12.117,5.506,17.444c-4.113-0.812-8.392-0.774-12.489,0.109
			c-1.162,0.25-2.377,0.608-3.174,1.49c-1.298,1.434-0.983,3.799,0.177,5.347s2.949,2.471,4.675,3.343
			c-5.146-0.237-10.356,1.172-14.682,3.97c-1.333,0.862-2.693,2.047-2.802,3.631c-0.163,2.394,2.492,3.903,4.779,4.629
			c14.583,4.63,30.067,2.261,44.96,0.861c14.949-1.405,29.979-0.803,44.444,3.573c9.734,2.945,21.06,4.085,31.265,2.941
			c4.333-0.486,9.521-2.511,9.892-6.855c0.265-3.103-2.348-5.864-5.304-6.845s-6.169-0.603-9.259-0.215
			c2.182-1.397,2.48-4.747,1.033-6.896s-4.155-3.168-6.745-3.225C909.339,116.08,907.219,116.606,905.135,117.223z"/>
		<path fill="#FFFFFF" d="M434.354,90.692c-0.332,0.037-0.663,0.077-0.993,0.122c-7.118,0.954-14.512,3.9-18.263,10.024
			c2.593-4.327,1.41-10.762-2.98-13.246c-4.391-2.483-11.053,0.563-11.39,5.596c-0.712-13.085-1.304-26.233-13.85-34.052
			c-11.897-7.415-29.271-2.418-36.614,9.524c-7.344,11.942-4.721,28.618,4.9,38.815c-4.744-1.411-9.578-3.936-14.527-4.368
			c-3.949-0.345-8.256,0.829-10.699,3.951c-5.859,7.488,1.646,16.375,6.575,21.813c-9.107-0.497-18.271,0.033-27.259,1.579
			c-1.916,0.33-4.049,0.855-5.048,2.521c-0.841,1.402-0.577,3.272,0.317,4.64c0.896,1.368,2.319,2.304,3.795,3.008
			c3.813,1.82,8.105,2.313,12.311,2.728c9.419,0.931,20.06,0.194,29.155,2.654c9.334,2.526,19.075,0.828,28.613-0.313
			c21.333-2.552,42.792-4.043,64.272-4.469c7.7,0,15.138-0.385,22.704-1.724c1.601-0.283,3.475-0.786,4.021-2.317
			c0.447-1.253-0.288-2.684-1.376-3.452c-1.087-0.768-2.444-1.021-3.757-1.239c-4.258-0.706-8.546-1.228-12.849-1.565
			c2.451-0.771,4.941-1.606,6.985-3.163c2.045-1.557,3.599-3.984,3.453-6.55c-0.051-0.893-0.321-1.802-0.922-2.464
			c-1.143-1.258-3.073-1.294-4.771-1.239c-3.017,0.1-6.032,0.199-9.049,0.298c4.197-3.849,8.615-8.482,8.555-14.177
			c-0.052-4.861-3.607-9.207-8.006-11.276C443.562,90.427,438.871,90.192,434.354,90.692z"/>
		<path fill="#FFFFFF" d="M1200,199.875v334.005c-21.3,13.381-46.74,22.314-72.48,26.945c-45.194,8.155-91.92,4.856-137.925,1.716
			c-209.114-14.238-418.62-24.161-628.26-29.756C240.39,529.553,118.62,527.692,0,506.989V238.341
			c22.995,7.006,40.845,28.449,34.305,49.061c27.495-0.224,50.386,27.025,42.061,50.078c11.805-9.593,32.97-7.931,42.63,3.378
			c-4.665-10.016-0.495-22.63,9.54-28.885c10.035-6.268,24.945-5.542,34.14,1.649c-4.755-24.768-5.97-50.763,3.3-74.528
			c6.902-17.694,23.134-41.049,44.884-45.809c25.884-5.665,54.994-1.415,77.782,10.577c27.152,14.288,46.189,39.923,50.155,67.537
			c0.544-10.832,11.378-20.908,23.701-20.706c12.323,0.202,23.011,12.025,19.203,22.336c5.588-15.133,37.235,19.5,39.102,24.758
			c3.804-9.522,14.459-15.988,25.647-18.223c11.188-2.235,22.893-0.852,34.107,1.274c-4.016-0.761-2.66-27.885-2.066-31.154
			c1.572-8.659,5.946-15.346,12.717-22.015c13.713-13.505,34.058-21.991,54.754-21.727c29.12,0.372,56.947,18.045,66.514,42.242
			c6.459,16.336,5.012,34.195,2.733,51.375c0.547-6.735,9.009-12.037,16.423-10.292c9.75,2.296,9.089,13.681,8.92,21.767
			c0.254-5.529,5.953-9.803,11.483-9.591c5.531,0.211,10.452,4.066,13.185,8.88c2.731,4.813,3.583,10.465,3.84,15.995
			c0.788-6.954,8.212-12.073,15.165-11.277c8.429,0.965,15.804,9.335,19.142,16.576c-2.853-8.61,3.824-18.358,12.53-20.905
			c14.872-4.35,21.247,8.109,33.801,11.123c-5.16-6.945-4.979-19.434-1.681-27.285c1.87-4.453,5.346-8.003,8.744-11.438
			c8.697-8.791,16.606-9.181,28.369-6.439c5.839,1.361,21.148,5.385,21.38,13.246c-0.478-16.24,14.21-30.325,31.095-36.904
			c21.75-8.475,47.748-7.105,69.043,2.223c16.213,7.104,29.666,18.563,39.182,32.052c7.995,11.334,22.866,23.888,26.231,37.137
			c-2.055-8.089,6.511-16.072,15.855-17.167c9.345-1.109,18.555,2.956,25.875,8.194c-1.545-6.097,2.28-12.905,8.715-15.544
			s14.82-0.832,19.141,4.13c-0.735-29.717,3.689-60.436,20.699-86.114c17.025-25.666,48.63-45.287,82.38-44.1
			c19.62,0.686,38.791,8.458,52.125,21.139C1196.85,195.957,1198.215,197.804,1200,199.875z"/>
	</g>
</g>
<g id="Objects">
	<g>
		<path fill="#34783B" d="M1199.43,421.46c-2.715,0.21-6.149,1.11-4.47,2.96c-2.25-2.47-4.725-5.49-9.36-6.14
			c-3.569-0.49-7.439,1.92-7.185,3.97c-2.865-3.6-9.42-10.67-14.025-9.8c-3.21,0.609-3.18,6.01-1.935,7.569
			c-2.64-3.289-5.985-6.329-9.9-9.01c-0.975-0.66-2.039-1.33-3.404-1.529c-2.551-0.391-5.056,1.09-5.761,2.77
			c-0.72,1.67-0.12,3.46,0.495,5.16c-1.455-1.93-2.97-3.91-5.475-5.271c-2.505-1.35-6.3-1.899-8.971-0.699
			c-0.06,2.06-0.135,4.109-0.194,6.17c-2.85-2.92-7.455-5.511-12.675-5.32c-4.305,0.16-8.131,3.1-7.65,5.72
			c-1.83-1.89-5.805-2.899-8.955-1.95c-3.945,1.19-5.279,5.091-2.49,7.301c-3.06-2.44-17.744-8.181-16.079-1.11
			c-1.051-3.1-3.75-5.93-7.53-7.86c-2.94,0.91-4.575,3.33-3.811,5.41c-0.915-1.819-2.01-3.649-4.109-4.93
			c-2.34-1.44-6.391-1.87-8.61-0.351c0.271,1.83,0.54,3.66,0.825,5.49c-1.005-2.87-4.305-6.439-8.76-7.05
			c-2.221-0.3-12.255,1.91-10.545,4.38c-3.42-4.939-15.855-5.26-19.846-0.51c0.96-2.34-0.824-5.05-4.05-6.16
			c-2.94-1.01-6.81-0.6-9.21,0.89c2.82-2.17,3.78-5.369,2.31-8.069c-2.52,0-5.055,0-7.574,0.01c1.425-2.24,2.595-4.92,0.72-7
			c-1.425-1.57-5.25-1.85-7.095-0.85c1.56-2.34,2.205-4.95,1.8-7.49c-5.07-1.16-11.101-0.1-14.67,2.57
			c1.155-2.14,0.75-4.63-1.035-6.56c-3.795-1.22-8.415,0.23-10.08,2.68c-0.375-1.88-0.765-4.72-4.035-5.38
			c-2.28-0.46-6.15,0.73-4.14,2.48c-2.146-1.85-10.695-6.46-9.45-0.65c-0.615-2.88-4.575-6.31-8.445-3.13
			c-2.354,1.95-0.72,4.49-0.854,6.59c0-2.71-4.785-5.05-8.715-4.08c-3.436,0.86-4.891,3.75-3.69,5.96
			c-1.68-1.55-4.229-2.79-7.185-1.91c-4.095,1.21-3.045,4.93-2.58,7.27c-0.765-1.64-3.646-5.07-6.931-4.22
			c-0.21,0.05-0.404,0.11-0.614,0.2c-1.605,0.68-1.32,2-1.261,3.13c-0.479-2.15-4.965-3.82-8.085-2.66
			c-1.17,0.44-2.01,1.11-2.52,1.91c-1.155,1.7-0.811,3.95,0.96,5.47c-2.641-1.86-5.641-3.83-9.465-4.05
			c-3.811-0.22-7.936,2.53-6.061,4.76c-2.415-1.97-5.024-4.03-8.654-4.85c-3.615-0.82-8.461,0.23-9.301,2.71
			c0.945-2.49-1.545-5.33-5.25-6.01c-3.524-0.64-7.56,0.75-8.925,2.99c0.945-2.29-1.68-5.01-5.265-5.26
			c-3.045-0.22-5.971,1.4-6.66,3.34c-0.18-2.1-1.59-4.17-4.35-5.11c-2.971-1-7.261,0.15-8.101,2.14c0.165-2.05-0.734-4.21-3.24-5.33
			c-2.895-1.3-7.904-0.01-7.665,2.31c-0.51-2.85,0.045-5.79-5.129-6.46c-3.226-0.42-6.421,0.66-6.841,2.97
			c0.36-1.96,0.48-4.96-3.21-5.42c-2.475-0.31-4.29,1.73-6.39,1.84c-2.146,0.1-2.31-0.76-4.065-1.22
			c-2.024-0.53-2.16-1.08-4.244-0.04c-0.676,0.34-1.261,0.97-1.561,1.65c-0.061-0.06-0.105-0.12-0.18-0.19
			c-2.04-2.06-7.5-6.52-11.955-4.57c-3.78,1.64-1.23,4.78-0.87,7.19c-3-3.03-8.521-5.2-13.83-4.42c-4.38,0.65-7.681,3.84-7.035,6.64
			c-1.68-1.53-5.22-2.24-7.8-1.28c-3.42,1.26-4.2,4.72-1.771,6.77c-2.43-1.99-5.145-4.1-8.909-4.63
			c-3.766-0.54-8.416,1.6-7.426,4.08c-4.484-1.35-9.555-1.82-14.43-1.35c-0.015,1.34-0.03,2.69-0.045,4.03
			c-2.55-0.84-11.985-1.94-13.516,0.71c0.945-1.64-0.404-3.71-2.85-4.38c-2.445-0.66-5.58,0.2-6.615,1.82
			c0.12-2.66,1.096-4.31-2.25-6.24c-2.595-1.5-6.345-2.24-9.675-1.47c0.42-1.91-1.68-3.91-4.5-4.31
			c-3.72-0.52-6.614,1.89-8.114,3.87c1.274-1.68,1.619-3.68,0.944-5.51c-0.149-0.43-0.375-0.86-0.75-1.23
			c-1.155-1.14-3.645-1.43-5.52-0.86s-3.136,1.82-3.69,3.14c-1.17-3.06-2.01-7.85-8.28-7.86c-4.545-0.02-6.54,3.87-4.68,6.22
			c-1.095-0.8-2.34-1.66-3.975-1.79c-1.92-0.15-3.735,0.84-4.516,2.03c-0.78,1.18-0.765,2.53-0.734,3.82
			c-1.125-1.19-3.36-1.75-5.46-1.71c-1.125,0.03-2.311,0.23-3.105,0.75c-1.455,0.94-1.785,3.24-1.77,4.55
			c-1.86-2.62-7.5-2.88-10.726-1.27c-3.359,1.68-4.635,4.65-4.739,7.44c0-0.62-2.056-1.79-2.7-2.17
			c-1.065-0.63-2.266-1.16-3.556-1.56c-2.774-0.88-5.085-1.38-7.845-0.09c-1.545,0.71-2.7,1.96-2.354,3.24
			c-0.69-1.18-0.66-2.51-1.545-3.61c-0.87-1.1-2.28-2.04-4.006-2.51c-3.015-0.81-7.08,0.51-7.59,2.5
			c-0.104-1.43-0.765-2.87-2.01-3.96c-0.72-0.63-1.635-1.14-2.76-1.46c-2.565-0.73-5.91,0.26-7.021,1.8
			c-0.18-2.71-2.774-5.4-6.765-5.78c-4.38-0.42-8.34,3.24-6.51,5.63c-4.065-3.66-10.096-7.38-16.216-5.68
			c-1.38,2.21-1.17,4.83,0.54,6.92c-1.994-2.42-7.904-4.67-11.835-2.86c-1.26,0.57-1.005,1.09-0.87,1.89
			c0.165,0.97,0.091,1.96,0.091,2.93c-2.101-1.46-5.79-4.36-9.195-3.46c-0.72,0.19-1.425,0.45-1.92,0.84
			c-1.185,0.92-0.3,2.53-0.135,3.62c-1.636-0.93-3.57-1.64-5.625-2.08c-1.62-0.34-4.471-0.95-6.03-0.33
			c-0.555,0.22-1.11,0.47-1.485,0.83c-0.84,0.82-0.18,2.89,0.075,4.08v0.01c0.03,0.15,0.061,0.28,0.075,0.4
			c-0.09-0.14-0.18-0.27-0.285-0.4v-0.01c-0.54-0.72-1.26-1.37-2.19-1.87c-1.109-0.59-2.55-0.94-3.96-0.84
			c-2.385,0.16-4.154,1.47-5.624,2.74c-0.091,0.07-0.166,0.13-0.24,0.2c-0.51,0.44-1.021,0.87-1.516,1.31
			c-0.27-0.47-0.18-1-0.045-1.51c0.016-0.1,0.045-0.21,0.061-0.31c0.314-1.32,0.6-3.32-0.24-4.59c-1.545-2.31-9.39-2.25-9.48,0.89
			c0-1.61-0.93-3.21-2.564-4.4c-2.505-0.77-5.835,0.12-6.855,1.82c0.885-1.49,1.065-4.55-1.125-5.59
			c-2.955-1.41-5.04,0.77-5.415,2.6c-0.029-2.2-2.159-4.58-5.595-5c-2.984-0.38-6.255,1.32-6.345,3.26
			c-0.766-2.93-5.79-5.18-10.05-4.2c-5.115,1.18-5.596,5.58-3.931,8.41c-0.944-0.78-1.935-1.59-3.255-2.08
			c-1.335-0.49-3.09-0.59-4.305,0.01c-0.9,0.45-1.35,1.22-1.425,1.97c-0.091,0.75,0.149,1.5,0.39,2.24
			c-1.02-0.83-2.025-1.66-3.045-2.48c-0.93-0.75-2.295-1.58-3.63-1.19c-1.11,0.32-1.351,1.27-1.44,2.09c0-0.95-6.93-1.26-7.74-1.09
			c-2.805,0.57-4.064,2.9-3.72,4.67c-0.359-0.45-0.825-0.86-1.35-1.21c-0.675-0.45-1.516-0.82-2.46-0.86
			c-1.125-0.05-2.205,0.38-2.88,0.98c-0.3,0.26-0.54,0.57-0.495,0.89c0.029,0.22,0.18,0.43,0.345,0.62
			c0.3,0.39,0.615,0.79,0.915,1.18c0.135,0.17,0.255,0.33,0.39,0.5c-0.149-0.19-0.314-0.35-0.54-0.5
			c-0.899-0.68-2.31-1.05-3.494-1.45c-1.891-0.65-2.745-1.59-5.011-0.98c-0.465,0.12-0.96,0.28-1.2,0.58
			c-0.209,0.26-0.194,0.58-0.164,0.88c0.015,0.11,0,0.31-0.016,0.54c-0.029,0.64-0.075,1.56,0.21,1.82
			c-1.755-1.56-6.015-2.48-8.43-1.22c-1.186,0.62-1.2,1.36-1.245,2.27c-0.061,0.91-0.6,2.04-0.375,2.94
			c-0.795-2.42-4.41-4.29-8.115-4.19c-3.72,0.1-7.095,2.16-7.59,4.61c0.48-2.44-2.354-4.97-6.015-5.35
			c-3.72-0.4-7.32,1.41-8.205,3.79c-0.36-0.91,0.314-1.88-0.271-2.73c-0.569-0.86-1.935-1.32-3.27-1.39
			c-2.67-0.12-5.625,1.11-6.915,2.63c1.604-1.89,0.735-4.64-2.13-5.67c-2.221-0.8-5.295-0.18-6.676,1.16
			c0.346-1.94-2.01-4.12-5.055-4.1c-3.104,0.02-5.399,2.36-4.845,4.31c-0.57-0.91-1.125-1.82-1.635-2.75
			c-0.585-1.06-1.681-1.6-3.495-1.43c-2.505,0.23-3.465,0.84-4.26,2.39c-0.676,1.33-0.976,2.76-0.976,4.16
			c-0.015-1.68-1.109-4.68-3.45-5.6c-1.665-0.65-3,0.18-3.975,1.06c-0.811,0.73-1.395,1.54-1.71,2.43
			c-0.135,0.4-0.66,2.25-0.06,2.53c-1.545-0.73-3.091-1.47-4.65-2.21c-0.885-0.42-1.815-0.86-2.895-0.95
			c-1.035-0.09-2.115,0.15-2.851,0.65c-0.72,0.49-1.08,1.21-0.93,1.9c0.18,0.79,0.975,1.47,1.875,2c-1.5-0.18-3.045-0.33-4.53-0.58
			c-1.275-0.21-2.685-0.82-4.005-0.85c-2.745-0.04-2.355,3.55-1.425,4.65c-1.53-1.81-5.565-2.88-8.58-2.44
			c-1.801,0.27-1.98,1.02-1.801,2.13c0.075,0.47,0.195,1.99,0.646,2.32c-0.93-0.68-2.01-1.2-3.195-1.66
			c-0.81-0.31-2.01-1.08-2.97-1.06c-2.61,0.06-1.965,2.66-1.98,3.73c0-0.45-2.25-1.44-2.76-1.68c-1.02-0.49-2.13-0.89-3.285-1.2
			c-1.92-0.52-4.965-1.27-6.465,0.14c-0.21,0.2-1.095,1.54-0.975,1.69c-2.16-2.36-5.94-4.91-9.811-3.91
			c-0.345,0.85-0.689,1.7-1.034,2.55c-2.655-2.48-9.585-1.72-10.921,1.2c-0.194-0.16-0.374-0.32-0.584-0.48
			c-1.711-1.42-3.615-2.81-6.195-3.36c-2.67-0.56-6.18,0.3-6.855,2.04c0.255-1.77-3.39-3.21-6-2.47c-2.805,0.8-4.095,3-4.319,5.03
			c-1.53-1.56-4.035-3.15-6.75-3.75c-1.155-0.26-2.07-0.16-2.445,0.71c-0.104,0.23-0.09,1.84,0.195,1.97
			c-2.535-1.13-6.525-2.33-9.676-2.01c-1.845,0.18-4.154,2.27-3.239,3.54c-1.125-1.57-4.29-3.97-7.215-3.83
			c-2.625,0.12-2.896,2.45-2.985,3.77c0.24-3.11-5.97-5.47-9.87-3.75c-1.245-1.33-5.415-3.36-6.48-0.86
			c-0.164,0.4-0.704,2.1-0.51,2.57c-1.17-1.31-4.59-3.17-6.899-2.2c-1.275,0.54-1.936,2.91-1.17,3.77
			c-1.261-1.43-4.846-3.47-7.426-2.35c-1.109,0.47-0.84,1.15-0.779,1.88c0.045,0.5-0.466,2.09-0.03,2.47
			c-1.95-1.81-8.61-2.7-7.605,0.63c0.466,1.54,0.15,3.29,0.136,4.86c-1.32-0.649-3.78-1.67-5.535-1.48
			c-0.765,0.09-1.245,0.34-1.605,0.8c-0.149,0.2-0.645,1.89-0.314,1.95c-1.005-0.181-1.936-0.61-3-0.771
			c-1.261-0.18-2.715-0.06-3.78,0.471c-0.855,0.439-0.99,1.46-1.32,2.119c-0.54-1.449-3.165-2.39-5.279-1.869
			c-2.115,0.51-3.226,2.359-2.235,3.699c-0.9-1.319-3.435-2.02-5.475-1.5c-1.771,0.45-2.91,1.771-2.745,3.011
			c0.015,0.079,0.045,0.159,0.06,0.239c0.03,0.101,0.061,0.2,0.105,0.29c-0.105-0.09-0.226-0.189-0.33-0.29
			c-0.09-0.08-0.195-0.16-0.3-0.25c-1.365-1.14-3.195-2.47-5.445-2.04c-1.62,0.32-1.815,1.08-1.68,1.931
			c0.015,0.149,0.045,0.31,0.09,0.47c0.029,0.17,0.074,0.33,0.104,0.49c-0.075-0.17-0.165-0.34-0.27-0.49
			c-0.12-0.17-0.271-0.33-0.45-0.48c-1.021-0.939-2.895-1.489-4.62-1.239c-1.125,0.17-2.07,0.649-2.685,1.29
			c-0.165,0.159-0.301,0.33-0.42,0.51c-0.405,0.62-0.511,1.33-0.226,1.979c-1.62-0.729-5.475-1.71-6.99-0.34
			C80.4,410.73,79.95,413,80.25,413c-1.77,0-3.195-0.43-4.155,0.85c-0.375,0.53-1.035,2.21-0.645,2.75
			c-1.815-2.439-7.905-2.649-10.095-0.34c1.02-1.27-0.136-3.08-2.221-3.46c-1.89-0.35-4.035,0.57-4.47,1.83v0.01
			c-0.06,0.11-0.075,0.23-0.09,0.351c0-0.07-0.03-0.17-0.061-0.29c-0.27-0.67-1.185-1.9-1.574-2.23c-0.69-0.569-1.83-0.76-3-0.64
			c-2.625,0.28-2.46,2.91-2.28,4.22c-1.86-2.2-5.445-4.58-8.865-3.479c-0.045,0.989-0.075,1.97-0.12,2.96
			c0-0.681-3.09-1.92-3.825-2.25c-1.215-0.55-2.354-1.271-3.779-0.61c-2.221,1.021-1.365,3.37-1.396,4.87
			c-1.725-1.14-6.795-4.94-8.729-1.771c-0.69,1.12-0.811,2.78,0.63,3.7c-0.465-0.3-0.945-0.6-1.425-0.88
			c-1.426-0.83-4.605-0.45-5.58,0.65c-1.516,1.689,0.09,3.99,2.564,5.06c-2.145-0.08-6.104-0.77-8.055,0.07
			c-1.725,0.75,0.03,3.17,0.375,4.14c-1.41-0.52-4.35-1-5.745-0.16c-0.435,0.271-0.63,0.69-0.479,1.07
			c0.375,1.01,1.739,2.18,2.444,3.12c-0.27-0.35-2.715-0.67-3.3-0.78c-1.215-0.24-2.445-0.399-3.705-0.55
			c-1.005-0.12-2.01-0.35-2.67-0.25v95.38c8.265,2.11,17.16,2.74,26.205,2.79h0.015c3.931,0.03,7.875-0.06,11.82-0.18
			c2.325-0.061,4.65-0.141,6.96-0.22c36.345-1.2,72.66-0.811,108.945,0.6c0,0,0,0,0.015,0c14.385,0.55,28.755,1.27,43.125,2.1
			c15.465,0.891,30.93,1.931,46.38,3.061h0.016c17.13,1.25,34.229,2.609,51.345,4.029c0.015,0,0.015,0,0.015,0
			c4.995,0.41,9.976,0.83,14.97,1.25c11.28,0.95,22.546,1.91,33.841,2.881c0.015,0,0.015,0,0.015,0
			c0.675,0.06,1.35,0.119,2.024,0.17c24.705,2.109,49.396,4.189,74.101,6.06c7.335,0.561,14.685,1.101,22.02,1.61
			c70.126,4.93,140.25,7.72,210.48,4.06c15.885-0.83,31.68-1.99,47.49-3.33h0.075c8.31-0.7,16.604-1.45,24.885-2.229
			c6.795-0.641,13.56-1.3,20.34-1.971h0.015c24.675-2.42,49.351-4.93,74.101-6.97h0.015c8.835-0.729,17.655-1.39,26.505-1.97
			c5.175-0.34,10.365-0.65,15.54-0.93c6.345-0.351,12.69-0.66,19.05-0.94h0.016c13.319-0.6,26.625-1.05,39.975-1.46
			c0.015,0.01,0.015,0,0.015,0c5.415-0.17,10.83-0.33,16.245-0.47c0,0,0,0,0.016,0c2.325-0.07,4.635-0.141,6.96-0.2
			c4.439-0.13,8.88-0.25,13.319-0.38c0.016,0.01,0.016,0,0.016,0c14.189-0.391,28.35-0.811,42.524-1.34
			c1.11-0.04,2.221-0.08,3.33-0.13c9.42-0.36,18.84-0.771,28.261-1.24c0.27-0.01,0.539-0.021,0.824-0.03
			c0.391-0.02,0.78-0.04,1.17-0.06c0.016,0,0.016,0,0.016,0c29.79-1.49,59.52-3.471,89.16-5.931c17.13-1.43,34.245-3.02,51.314-4.77
			c8.835-0.91,17.82-1.9,26.535-3.351v-95.43C1199.82,421.43,1199.625,421.44,1199.43,421.46z M788.49,380.96
			c-0.375-0.32-0.48-0.56-0.465-0.75C788.1,380.49,788.25,380.75,788.49,380.96z"/>
		<path fill="#70A83B" d="M1200,446.93V800H0V434.64c1.2-0.21,2.415-0.409,3.615-0.609c10.095-1.71,20.325-3.38,30.675-5
			C188.4,404.94,371.13,391,567.06,391c131.07,0,256.23,6.24,370.876,17.59C1033.5,418.04,1121.745,431.05,1200,446.93z"/>
		<path fill="#699E38" d="M1200,596.389V800H0V469.809c90.525-15.359,194.115-24.794,305.7-27.11
			c4.785-0.101,9.569-0.19,14.385-0.261l1.98-0.03h0.015c28.26-0.411,57.03-0.36,86.189,0.161c8.221,0.14,16.471,0.33,24.75,0.551
			c16.365,0.441,32.865,1.022,49.471,1.765c13.455,0.592,27,1.294,40.59,2.096c71.265,4.201,140.1,10.948,205.545,19.872
			c19.695,2.687,39.075,5.564,58.125,8.632c16.815,2.707,33.36,5.564,49.62,8.563c16.815,3.088,33.33,6.327,49.53,9.716
			c20.505,4.271,40.5,8.772,59.925,13.495c28.86,6.988,56.49,14.447,82.755,22.308c0.81,0.241,1.605,0.481,2.4,0.723
			c18.93,5.704,37.154,11.62,54.614,17.726c0,0.01,0,0.01,0.016,0.01c16.109,5.625,31.56,11.42,46.319,17.376
			C1156.605,575.334,1179.36,585.681,1200,596.389z"/>
		<path fill="#80D2ED" d="M1200,544.84V800H0V517.02c16.275-4.42,33.24-8.6,50.835-12.56c0.465-0.11,0.945-0.21,1.41-0.31
			c0.015-0.011,0.045-0.021,0.06-0.021c0.061-0.01,0.12-0.03,0.181-0.04c0.165-0.04,0.345-0.08,0.51-0.109h0.015
			c0,0,0.016,0,0.016-0.011c0.045-0.01,0.074-0.02,0.119-0.02c0.075-0.021,0.15-0.04,0.226-0.05c1.395-0.32,2.79-0.631,4.2-0.931
			c19.14-4.2,39.045-8.109,59.609-11.739c5.085-0.9,10.2-1.78,15.375-2.631c0.03-0.01,0.061-0.02,0.105-0.02
			c1.74-0.29,3.479-0.58,5.234-0.86c0.421-0.08,0.855-0.149,1.291-0.21c2.699-0.45,5.43-0.88,8.159-1.31
			c0.181-0.03,0.346-0.061,0.525-0.08c4.68-0.74,9.36-1.46,14.1-2.16h0.016c49.515-7.39,102.45-13.18,158.069-17.229
			c50.955-3.711,104.19-5.95,159.165-6.61c7.38-0.09,14.806-0.15,22.261-0.17c20.564-0.09,41.369,0.05,62.369,0.41
			c25.695,0.439,51.721,1.229,77.971,2.37c14.16,0.609,28.38,1.319,42.66,2.14c14.819,0.85,29.534,1.8,44.145,2.85
			c4.455,0.32,8.91,0.65,13.35,0.99c17.745,1.35,35.341,2.86,52.756,4.5c3.135,0.3,6.27,0.6,9.39,0.91c0.03,0,0.06,0,0.09,0.01
			c8.476,0.82,16.89,1.68,25.275,2.58c105.854,11.28,204.555,27.79,292.665,48.26C1149.12,531.23,1175.115,537.87,1200,544.84z"/>
		<path fill="#5AA6AD" d="M1200,574.45V800H0V517.76c40.635-9.63,85.14-17.85,132.855-24.529c0.33-0.051,0.659-0.101,0.989-0.141
			c1.53-0.22,3.061-0.43,4.605-0.63c0.225-0.04,0.435-0.07,0.66-0.09c1.439-0.21,2.895-0.4,4.35-0.59
			c0.885-0.13,1.771-0.24,2.655-0.36c1.635-0.22,3.27-0.43,4.92-0.65c5.805-0.75,11.67-1.479,17.564-2.189
			c73.995-8.9,154.905-14.26,240.525-15.61c0.015-0.01,0.03-0.01,0.045,0c0.03-0.01,0.061-0.01,0.09,0c0.016-0.01,0.03,0,0.03,0
			c0.03-0.01,0.06-0.01,0.075,0h0.045c16.965-0.27,34.14-0.39,51.45-0.33c0,0,0,0,0.015,0c29.13,0.08,58.74,0.62,88.74,1.63
			c20.324,0.671,40.83,1.58,61.5,2.711h0.015c0.96,0.05,1.905,0.1,2.865,0.159c0.015,0,0.015,0,0.015,0
			c1.426,0.07,2.835,0.15,4.26,0.23c3.075,0.18,6.15,0.36,9.226,0.54c3.6,0.21,7.215,0.43,10.83,0.649c0,0,0,0.011,0.015,0.011
			c2.07,0.13,4.155,0.26,6.226,0.399c0.63,0.04,1.274,0.08,1.904,0.12h0.016c0.765,0.05,1.515,0.101,2.265,0.15
			c1.245,0.09,2.49,0.17,3.735,0.26c5.85,0.39,11.7,0.81,17.564,1.24c16.275,1.2,32.415,2.52,48.436,3.97
			c78,7.01,152.79,16.82,223.14,28.94c0.24,0.04,0.48,0.08,0.72,0.13c3.96,0.68,7.891,1.37,11.806,2.069
			c25.425,4.5,50.25,9.32,74.43,14.42c1.08,0.23,2.145,0.461,3.225,0.69c46.665,9.91,90.855,20.86,132.135,32.7
			C1176.225,567.18,1188.255,570.78,1200,574.45z"/>
		<path fill="#408B3C" d="M479.758,462.159c-0.402,4.908-7.438,6.044-12.615,8.09c-6.043,2.389-11.045,4.511-18.384,4.654
			c-4.106,0.08-8.184-0.399-12.255-0.765c-19.926-1.784-40.174-0.828-60.221-1.843c-17.212-0.87-34.141-3.191-51.14-5.08
			c-7.94-0.882-15.695-1.154-23.468-1.463c-4.663-0.185-10.563-2.576-7.257-6.5c1.784-2.118,6.903-2.619,9.232-0.75
			c-4.73-2.33-7.396-6.398-6.746-10.295c4.333-1.168,9.591-0.644,13.222,1.32c-2.096-1.799-4.283-3.755-4.445-6.03
			c-0.163-2.274,2.785-4.764,6.12-4.269c1.326,0.197,2.417,0.806,3.45,1.395c3.02,1.719,6.039,3.438,9.059,5.157
			c-2.579-2.669-5.26-5.585-4.946-8.753c0.314-3.168,5.255-6.254,9.623-4.988c1.617,0.469,2.802,1.41,3.885,2.338
			c2.956,2.53,5.636,5.205,8.012,7.994c-0.104-2.287-0.206-4.573-0.31-6.86c-0.099-2.2,1.09-5.252,4.367-4.985
			c1.836,0.149,2.971,1.372,3.832,2.464c1.827,2.316,3.654,4.632,5.48,6.946c-1.342-2.343-3.604-7.308,1.691-8.114
			c4.204-0.64,8.381,3.21,9.485,5.381c-1.774-3.487,0.214-6.835,5.9-7.523c7.987-0.968,9.64,3.277,10.077,7.607
			c-0.776-7.688,17.597-8.298,17.098,0.724c2.396-2.703,6.464-4.725,11.035-5.483c1.879-0.312,4.192-0.322,5.384,0.695
			c0.921,0.786,0.814,1.89,0.663,2.882c-0.282,1.854-0.564,3.706-0.847,5.56c3.33-1.858,7.697-2.872,12.039-2.794
			c1.318,0.024,2.679,0.155,3.798,0.62c2.604,1.08,3.003,3.563,2.128,5.522c-0.874,1.96-2.689,3.686-3.588,5.641
			c5.018-1.818,10.283-3.331,15.712-4.513c1.659-0.361,3.452-0.692,5.123-0.356c2.584,0.521,3.954,2.526,3.763,4.321
			c-0.19,1.795-1.565,3.425-2.907,4.986c3.351-1.771,7.063-3.631,11.339-3.618s8.601,3.032,6.706,5.589
			C473.472,455.104,480.058,458.516,479.758,462.159z"/>
		<path fill="#7BB540" d="M1200,655.26V800H0V473.94c89.22-13.011,190.035-20.32,297.765-20.841h0.016
			c19.395-0.109,39.015,0.021,58.845,0.37c23.52,0.41,47.325,1.15,71.355,2.221c12.944,0.569,25.965,1.239,39.029,2.01
			c3.51,0.21,7.021,0.42,10.516,0.64h0.015c8.025,0.5,15.99,1.04,23.94,1.61c54.585,3.899,107.564,9.35,158.43,16.17
			c19.859,2.66,39.39,5.52,58.575,8.59c22.38,3.57,44.265,7.42,65.625,11.51c27.42,5.24,53.97,10.9,79.56,16.931
			c27.811,6.55,54.465,13.54,79.86,20.93c1.859,0.54,3.705,1.08,5.535,1.63c26.34,7.771,51.284,15.97,74.685,24.54
			c4.95,1.8,9.825,3.63,14.625,5.48c31.695,12.149,60.36,25.01,85.561,38.409C1154.64,620.46,1180.23,637.59,1200,655.26z"/>
		<path opacity="0.28" fill="#7BB540" d="M1200,655.26V790H0V568.41c28.47-9.25,59.295-17.851,92.16-25.69
			c6.314-1.51,12.705-2.989,19.185-4.45c27.315-6.13,55.936-11.76,85.74-16.84c10.065-1.72,20.265-3.37,30.585-4.96
			c33.78-5.2,68.925-9.71,105.225-13.46c6.375-0.67,12.78-1.3,19.23-1.91c28.2-2.689,57.061-4.92,86.49-6.67
			c3.495-0.22,6.99-0.42,10.5-0.609c48.135-2.67,97.755-4.07,148.455-4.07c64.185,0,126.63,2.23,186.54,6.47
			c27.42,5.24,53.97,10.9,79.56,16.931c27.811,6.55,54.465,13.54,79.86,20.93c1.859,0.54,3.705,1.08,5.535,1.63
			c26.34,7.771,51.284,15.97,74.685,24.54c4.95,1.8,9.825,3.63,14.625,5.48c31.695,12.149,60.36,25.01,85.561,38.409
			C1154.64,620.46,1180.23,637.59,1200,655.26z"/>
		<path fill="#408B3C" d="M118.755,570.88c-2.069,3.32-5.685,6.22-10.41,7.95c5.341,1.189,6.21,6.62,2.311,9.32
			c-3.915,2.699-10.516,2.899-15.795,1.59c-0.12,3.399-1.545,6.569-3.87,9.51c-0.061,0.07-0.105,0.15-0.181,0.22
			c-0.225,0.29-0.465,0.58-0.734,0.86v0.01c-5.085,5.8-13.605,10.641-22.155,14.47c-13.064,5.851-27.734,10.73-43.455,11.36
			c-0.45,0.021-0.899,0.03-1.35,0.05c-1.5,0.021-3.03,0.011-4.545-0.05c-5.431-0.21-10.86-1.01-15.87-2.38
			c-0.915-0.25-1.815-0.521-2.7-0.81v-78.5c1.2,0.72,2.31,1.52,3.285,2.38C1.845,545,0.735,543.02,0,540.99v-11.46
			c5.91,2.89,10.02,7.37,11.19,12.189c-0.271-2.6-0.271-5.2-0.016-7.8c0.57-5.53,12.96-5.51,13.186,0.03
			c0,0.05,0.015,0.09,0.015,0.14c0.24-1.64,0.765-3.49,1.83-4.96h0.015c1.096-1.5,2.79-2.61,5.37-2.76
			c2.521-0.15,4.891,0.81,6.18,2.25c0.105,0.11,0.195,0.22,0.271,0.33c1.396,1.75,1.5,3.63,1.17,5.51
			c2.655-2.96,11.055-2.229,11.25,2.1c0.06,1.32-0.075,2.65-0.435,3.96c2.114-1.899,0.51-5.069,3.645-6.479
			c2.146-0.95,4.995-0.38,6.465,1.03c2.16,2.069,1.516,4.479,0.525,6.739c0.435-0.8,1.064-1.55,1.859-2.22
			c3.705-3.16,11.551-1.13,11.04,2.86v0.069c1.08-3.609,8.835-3.6,10.141-0.06c0.27,0.75,0.479,1.51,0.63,2.271
			c0.93-2.19,4.53-4.03,8.04-3.551c4.845,0.681,7.439,4.91,5.22,7.87c2.505-3.16,9.915-3.24,13.755-0.78
			c0.271,0.181,0.525,0.37,0.766,0.57c1.47,1.271,2.175,2.79,2.265,4.37c0.075,1.23-0.225,2.5-0.855,3.69
			c0.646-0.16,1.365-0.21,2.04-0.08c2.4,0.47,3.705,2.18,4.365,3.79C121.305,564,120.765,567.65,118.755,570.88z"/>
		<path fill="#408B3C" d="M427.625,523.399c-15.279,5.929-32.838,8.769-49.572,12.407c-21.713,4.721-43.768,9.483-66.588,10.086
			c-27.839,0.736-55.969-4.996-78.434-15.981c-3.123-1.526-6.377-3.425-6.807-5.99c-0.77-4.599,8.019-5.105,12.625-4.161
			c-1.506-0.309-2.785-2.418-3.657-3.174c-1.873-1.625-2.832-3.139,0.153-4.524c2.712-1.259,4.822-0.496,7.281,0.668
			c-1.488-2.197-3.295-4.334-3.195-6.829c0.097-2.436,2.681-5.014,6.332-5.128c5.443-0.169,7.88,4.457,12.168,6.698
			c-1.729-3.594-2.106-7.473-1.091-11.185c0.401-1.465,1.443-3.173,3.653-3.383c2.016-0.192,3.676,0.998,4.861,2.103
			c2.821,2.628,5.255,5.441,7.255,8.386c-0.447-2.896-0.852-5.968,1.067-8.582s7.095-4.388,10.799-2.848
			c4.146,1.724,3.663,5.986,6.874,8.44c-2.27-3.401,0.22-10.426,7.552-8.811c5.198,1.146,7.246,6.291,8.509,9.457
			c-0.127-0.319,0.541-3.022,0.841-3.448c1.795-2.545,7.174-0.745,9.465,0.176c3.507,1.41,4.85,3.68,4.395,6.349
			c0.391-1.094,2.39-1.709,4.009-1.396s2.759,1.357,3.079,2.461c0.321,1.104-0.062,2.25-0.689,3.294
			c1.153-0.364,2.504,0.231,3.209,0.94c1.421,1.431,1.218,3.035,1.122,4.659c-0.089,1.498,0.269,2.867,0.044,4.4
			c0.287-1.964,3.697-3.262,6.597-2.866c2.9,0.395,5.106,2.069,6.153,3.914c-1.064-2.098-1.547-4.326-1.415-6.539
			c3.449-0.921,7.612-0.525,10.539,1c-2.718-2.35-4.409-5.221-4.817-8.176c-0.193-1.404,0.344-3.212,2.414-3.501
			c1.143-0.16,2.275,0.243,3.287,0.632c2.209,0.849,4.418,1.697,6.628,2.546c-2.818-1.973-4.539-4.627-4.763-7.347
			c-0.069-0.836,0.013-1.713,0.637-2.439c1.353-1.579,4.819-1.825,7.258-1.011c2.075,0.693,3.942,2.125,5.287,3.302
			c-9.238-8.083,5.802-14.092,12.446-1.984c-0.004-2.026,0.203-4.128,1.633-5.916s4.385-3.177,7.388-2.864
			c2.874,0.3,5.008,2.063,5.76,3.937s0.398,3.856,0.04,5.781c1.239-3.351,3.654-6.505,6.996-9.14c1.211-0.955,2.61-1.871,4.387-2.27
			c4.29-0.96,8.872,1.651,9.875,4.593s-0.497,5.978-1.979,8.827c0.345-1.734,2.875-4.139,5.751-4.302
			c6.107-0.347,7.268,5.491,7.092,8.277c-0.492-1.848,3.615-3.021,5.946-1.969c2.331,1.054,2.871,3.213,2.527,5.075
			c-0.562,3.041-3.182,6.036-7.377,7.286c3.555-0.014,5.489,3.148,4.143,5.341C433.971,520.865,430.697,522.207,427.625,523.399z"/>
		<path fill="#408B3C" d="M708.484,551.557c-17.065-0.624-34.215-1.598-51.169-1.179c-16.756,0.415-33.268-2.718-49.682-4.2
			c-9.516-0.859-19.138-1.244-28.684-1.982c-34.554-2.673-67.514-9.919-100.107-17.11c-7.696-1.697-13.913-3.934-20.105-7.414
			c-5.653-3.179-8.369-9.046-9.525-13.749c-0.235-0.956-0.387-1.988,0.28-2.85c0.666-0.861,2.464-1.393,3.633-0.816
			c-1.028-0.509-2.324-0.701-3.48-1.068c-1.155-0.368-2.273-1.04-2.272-1.895c0.001-0.936,1.412-1.651,2.81-1.745
			c1.396-0.094,2.762,0.269,4.061,0.624c-1.666-0.678-3.302-1.387-4.905-2.128c-0.587-0.271-1.196-0.567-1.489-1.002
			c-0.677-1.002,0.804-2.173,2.433-2.342c1.629-0.168,3.228,0.333,4.705,0.82c-2.238-0.738-4.541-3.411-5.286-4.906
			c-0.139-0.28-0.272-0.577-0.18-0.866c0.558-1.731,7.219,0.115,8.535,0.785c-1.162-0.592-1.752-2.099-2.184-2.957
			c-0.156-0.31-0.313-0.645-0.164-0.956c1.239-2.599,7.065,0.968,8.26,1.912c0.335-1.344-1.333-3.167,1.188-3.969
			c2.707-0.861,5.721,2.053,7.259,3.097c-0.924-1.173-0.563-2.746,0.884-3.654s3.87-1.043,5.491-0.276
			c1.621,0.768,2.221,2.369,1.281,3.537c0.978-1.084,2.297-2.303,4.194-2.294c1.522,0.008,2.791,0.877,3.264,1.842
			c0.474,0.965,0.326,2.01,0.174,3.02c1.547-2.062,6.189-2.7,8.833-1.214c2.254,1.269,1.633,2.502,2.396,4.041
			c0.771,1.555,3.099,1.456,2.837-0.55c-0.108-0.829,0.022-1.781,0.998-2.302c1.272-0.681,3.181-0.232,4.511,0.398
			c1.581,0.751,2.918,1.731,3.89,2.852c-0.634-0.974,0.448-2.151,1.923-2.552c3.726-1.011,6.267,1.005,9.267,1.923
			c3.333,1.021,1.079-0.688,1.913-1.648c1.548-1.78,5.659,0.419,6.797,1.393c-0.937-0.802-2.782-2.692-1.283-3.67
			c2.229-1.452,6.32,1.229,7.501,2.228c-1.114-0.922-3.442-3.143-1.781-4.221c1.938-1.259,5.53,0.45,7,1.22
			c0.188-1.192,0.267-2.402,0.34-3.601c0.085-1.414-1.073-2.743,1.446-3.318c2.33-0.532,4.996,1.568,5.373,3.108
			c-0.332-1.357-0.645-2.804,0.354-4.044c0.674-0.838,2.694-1.838,4.291-1.592c2.509,0.386,2.734,2.892,3.248,4.228
			c0.796-1.759,0.304-3.467,3.853-3.552c3.614-0.086,4.242,2.458,5.769,4.093c-1.013-1.295,0.357-2.611,2.41-2.206
			c3.284,0.647,2.403,3.839,2.387,5.481c0.315-1.027,1.07-2.028,2.335-2.651s3.082-0.795,4.434-0.259
			c1.116,0.443,1.766,1.289,1.985,2.143s0.067,1.729-0.086,2.589c0.419-0.951,0.923-1.977,2.152-2.534
			c4.204-1.904,5.636,2.697,6.578,4.349c-0.884-1.549,3.709-2.682,5.147-2.814c3.854-0.354,4.979,0.656,6.115,2.829
			c-0.428-1.733-1.284-3.235,1.674-3.953c0.821-0.199,3.685,0.215,4.142-0.331c0.307-0.365-1.338-2.43-1.165-3.21
			c0.306-1.378,1.756-2.577,3.654-3.133c3.518-1.028,8.414,0.063,9.834,2.191c0-1.661-2.071-4.623,0.525-5.868
			c2.969-1.424,7.231,1.496,7.792,3.311c-0.188-1.454-1.55-3.227,1.319-3.814c2.593-0.531,4.592,1.268,4.122,2.856
			c0.372-1.258,2.807-1.274,4.144-0.664c1.53,0.698,1.789,2.117,1.65,3.255c0.18-1.468,2.369-1.835,4.071-1.304
			c2.152,0.671,2.661,2.497,2.996,3.902c-0.525-0.648-0.403-1.557,0.614-1.97c3.493-1.415,5.999,2.839,6.514,4.416
			c-0.014-1.835-0.027-3.67-0.041-5.505c-0.003-0.419,0.041-0.904,0.55-1.15c0.263-0.127,0.601-0.16,0.924-0.182
			c2.388-0.156,5.13,0.292,6.312,1.684c-0.938-1.104,0.148-5.129,0.189-6.473c2.843-0.35,5.543,0.892,6.844,2.506
			c-1.23-1.526-0.251-4.453,3.002-4.171c2.912,0.253,6.64,3.897,7.938,5.491c-0.083-0.711-0.166-1.423-0.249-2.135
			c-0.048-0.413-0.09-0.851,0.187-1.222c2.562-3.445,8.261,1.404,8.174,3.392c0.073-1.667,0.146-3.335,0.22-5.002
			c2.315-1.049,6.011-0.183,7.509,1.289c1.499,1.471,1.429,3.276,1.314,4.975c0.135-2.007,4.093-3.318,6.703-3.46
			c4.487-0.245,6.153,2.39,5.957,5.031c0.114-1.54,4.993-2.16,6.667-1.807c2.374,0.501,3.322,4.019,1.843,5.402
			c3.241-3.031,7.817-0.975,8.292,1.998c-0.158-1.049-0.315-2.097-0.474-3.146c-0.032-0.212-0.063-0.428,0.002-0.636
			c0.26-0.824,1.954-1.116,3.09-0.746c1.135,0.369,1.817,1.147,2.434,1.883c-0.521-1.252-0.899-2.567-0.567-3.847
			c0.333-1.28,1.5-2.528,3.313-3.005c1.59-0.418,3.433-0.188,4.941,0.349c1.509,0.535,2.75,1.346,3.969,2.146
			c-1.269-1.499,0.688-3.576,3.245-3.814c0.46-0.043,0.94-0.039,1.374,0.072c1.327,0.34,1.667,1.464,1.811,2.407
			c-0.418-1.156,1.387-2.262,3.171-2.273c3.281-0.021,6.175,1.649,7.345,3.604c-0.099-0.913,0.225-2.246,1.954-2.354
			c1.202-0.075,2.266,0.536,2.923,1.211c1.129,1.159,1.514,2.628,1.041,3.973c0.061-0.858,1.627-1.42,2.861-1.169
			c3.157,0.641,1.395,3.906,1.107,5.383c0.084-1.457,1.486-2.846,3.48-3.447c6.739-2.031,7.186,2.895,9.573,5.319
			c0.3-1.298-0.842-2.418-1.169-3.67c-0.343-1.319,0.365-2.74,1.825-3.659c1.617-1.019,4.657-1.637,6.083-0.043
			c-0.963-1.077-2.433-3.509-0.887-4.668c2.698-2.024,7.152,0.896,8.762,2.217c-2.823-1.321-1.798-4.407,1.667-5.016
			c3.464-0.608,7.362,1.612,6.337,3.61c0.279-1.862-0.729-7.417,4.813-6.997c1.885,0.144,2.577,0.849,2.778,1.831
			c0.275,1.347,0.58,2.459,1.326,3.766c-2.497-2.555,4.767-5.684,8.41-3.668c0.909,1.932,1.15,3.964,0.706,5.943
			c0.379-1.688,3.011-1.964,4.979-1.294c3.726,1.27,3.159,5.78,1.629,7.872c0.657-0.644,1.344-1.289,2.262-1.77
			c0.918-0.481,2.113-0.781,3.26-0.633c2.027,0.263,3.15,1.849,2.895,3.215s-1.503,2.546-2.711,3.663
			c0.175-0.551,1.129-0.872,1.965-0.796c3.519,0.322,6.668,3.782,4.766,5.887c-0.693,0.766,0.179,0.233-0.428,1.024
			c1.67-1.645,5.15-2.781,8.355-2.27s5.166,3.021,3.106,4.511c0.197-1.501,2.896-2.721,5.483-2.478
			c2.588,0.242,4.504,1.895,3.893,3.357c-0.132-1.892,3.013-3.623,6.295-3.466c3.281,0.158,5.924,2.168,5.289,4.022
			c-0.285-1.609,1.953-3.22,4.742-3.411s5.654,1.069,6.07,2.669c1.286-2.479,8.616-2.678,10.357-0.28
			c0.494-0.657,0.988-1.314,1.482-1.971c2.813-0.417,6,0.966,6.081,2.638c0.823-1.592,4.191-2.563,6.918-1.994
			c2.726,0.569,4.252,2.562,3.135,4.093c-1.007-1.71,2.98-3.319,5.889-2.639c2.909,0.681,4.214,2.721,3.968,4.516
			c0.753-1.657,3.897-2.819,6.841-2.527c2.943,0.291,5.262,1.994,5.043,3.704c-1.158-2.292,5.243-3.732,8.5-2.247
			c3.831,1.747,4.758,6.236,3.58,8.995c-0.895,2.095-2.71,3.952-4.501,5.773c2.495-0.621,5.113-1.252,7.755-1.027
			s5.266,1.611,5.241,3.387c-0.031,2.346-4.105,3.577-6.225,5.451c1.596,0.285,3.314-0.092,4.934,0.125
			c2.007,0.268,3.607,1.537,3.659,2.901s-1.449,2.686-3.433,3.021c2.025,0.484,4.278,1.112,5.049,2.452
			c0.636,1.105-0.012,2.406-1.235,3.265c-1.223,0.858-2.926,1.342-4.636,1.662c-5.729,1.073-12.106,0.507-17.214-1.528
			c-1.312-0.523-2.59-1.15-4.093-1.333c-1.736-0.211-2.193,0.437-3.471,0.868c-1.516,0.514-3.216,0.805-4.979,1.095
			c-4.104,0.677-8.229,1.296-12.354,1.911c-16.293,2.427-32.622,4.776-48.951,7.125c-25.748,3.703-51.628,7.42-78.098,8.728
			C758.369,553.376,733.371,552.467,708.484,551.557z"/>
		<path fill="#92C743" d="M1200,580v220H0V578.41c28.47-9.25,59.295-17.851,92.16-25.69c6.314-1.51,12.705-2.989,19.185-4.45
			c27.315-6.13,55.936-11.76,85.74-16.84c10.065-1.72,20.265-3.37,30.585-4.96c33.78-5.2,68.925-9.71,105.225-13.46
			c6.375-0.67,12.78-1.3,19.23-1.91c28.2-2.689,57.061-4.92,86.49-6.67c3.495-0.22,6.99-0.42,10.5-0.609
			c48.135-2.67,97.755-4.07,148.455-4.07c93.18,0,182.699,4.71,266.1,13.4c31.92,3.33,62.955,7.229,92.94,11.68
			c15.659,2.32,31.035,4.79,46.109,7.4c28.771,4.979,56.445,10.479,82.875,16.439c0,0.01,0,0.01,0.016,0.01
			c22.425,5.061,43.965,10.471,64.529,16.2C1167.48,569.7,1184.115,574.75,1200,580z"/>
		<path fill="#9D6712" d="M1200,601.25v22c-23.745-7.85-49.155-15.24-76.064-22.11c-76.98-19.659-166.2-35.09-263.73-45.09
			c-25.845-2.66-52.29-4.93-79.23-6.8c-0.015,0-0.015,0-0.029,0c-18.495-1.28-37.245-2.38-56.205-3.26
			c-38.835-1.851-78.57-2.86-119.01-2.971h-0.045c-2.7-0.02-5.4-0.02-8.115-0.02c-53.266,0-105.346,1.54-155.761,4.49
			c-31.994,1.87-63.329,4.3-93.87,7.26c-94.305,9.14-181.109,23.32-256.949,41.5c-0.075,0.01-0.15,0.03-0.21,0.05
			c-0.24,0.05-0.465,0.101-0.69,0.17c-25.245,6.061-49.26,12.561-71.925,19.471c-0.81,0.25-1.605,0.489-2.4,0.739
			c-4.409,1.351-8.76,2.721-13.064,4.11c-0.9,0.29-1.8,0.58-2.7,0.88v-22.01c36.03-11.71,75.81-22.36,118.755-31.78
			c26.205-5.75,53.58-11.04,82.005-15.83c24.87-4.189,50.55-7.99,76.95-11.39h0.015c10.575-1.37,21.271-2.67,32.085-3.891
			c29.16-3.329,59.085-6.159,89.73-8.46h0.015c25.381-1.92,51.226-3.47,77.49-4.64c39.33-1.76,79.575-2.67,120.525-2.67
			c92.279,0,180.975,4.62,263.685,13.15c8.34,0.859,16.605,1.76,24.811,2.699c48.255,5.511,94.305,12.36,137.685,20.4
			c10.53,1.95,20.91,3.97,31.11,6.06C1108.08,574.21,1156.8,586.96,1200,601.25z"/>
		<path fill="#F69552" d="M1200,604.25v22c-23.745-7.85-49.155-15.24-76.064-22.11c-76.98-19.659-166.2-35.09-263.73-45.09
			c-25.845-2.66-52.29-4.93-79.23-6.8c-0.015,0-0.015,0-0.029,0c-18.495-1.28-37.245-2.38-56.205-3.26
			c-38.835-1.851-78.57-2.86-119.01-2.971h-0.045c-2.7-0.02-5.4-0.02-8.115-0.02c-53.266,0-105.346,1.54-155.761,4.49
			c-31.994,1.87-63.329,4.3-93.87,7.26c-94.305,9.14-181.109,23.32-256.949,41.5c-0.075,0.01-0.15,0.03-0.21,0.05
			c-0.24,0.05-0.465,0.101-0.69,0.17c-25.245,6.061-49.26,12.561-71.925,19.471c-0.81,0.25-1.605,0.489-2.4,0.739
			c-4.409,1.351-8.76,2.721-13.064,4.11c-0.9,0.29-1.8,0.58-2.7,0.88v-22.01c36.03-11.71,75.81-22.36,118.755-31.78
			c26.205-5.75,53.58-11.04,82.005-15.83c24.87-4.189,50.55-7.99,76.95-11.39h0.015c10.575-1.37,21.271-2.67,32.085-3.891
			c29.16-3.329,59.085-6.159,89.73-8.46h0.015c25.381-1.92,51.226-3.47,77.49-4.64c39.33-1.76,79.575-2.67,120.525-2.67
			c92.279,0,180.975,4.62,263.685,13.15c8.34,0.859,16.605,1.76,24.811,2.699c48.255,5.511,94.305,12.36,137.685,20.4
			c10.53,1.95,20.91,3.97,31.11,6.06C1108.08,577.21,1156.8,589.96,1200,604.25z"/>
		<path fill="#D26832" d="M1054.86,566.31c-10.2-2.09-20.58-4.109-31.11-6.06c-43.38-8.04-89.43-14.89-137.685-20.4
			c-8.205-0.939-16.471-1.84-24.811-2.699C778.545,528.62,689.85,524,597.57,524c-40.95,0-81.195,0.91-120.525,2.67
			c-26.265,1.17-52.109,2.72-77.49,4.64h-0.015c-30.646,2.301-60.57,5.131-89.73,8.46c-10.814,1.221-21.51,2.521-32.085,3.891
			h-0.015c-26.4,3.399-52.08,7.2-76.95,11.39c-28.425,4.79-55.8,10.08-82.005,15.83C75.81,580.3,36.03,590.95,0,602.66v2.354v2.141
			v2.354c36.03-11.71,75.81-22.36,118.755-31.78c26.205-5.75,53.58-11.04,82.005-15.83c24.87-4.19,50.55-7.99,76.95-11.39h0.015
			c10.575-1.37,21.271-2.67,32.085-3.891c29.16-3.329,59.085-6.16,89.73-8.46h0.015c25.381-1.92,51.226-3.47,77.49-4.64
			c39.33-1.76,79.575-2.67,120.525-2.67c92.279,0,180.975,4.62,263.685,13.15c8.34,0.859,16.605,1.76,24.811,2.699
			c48.255,5.51,94.305,12.36,137.685,20.4c10.53,1.95,20.91,3.97,31.11,6.06c53.22,10.9,101.939,23.65,145.14,37.94v-2.354v-2.141
			v-2.354C1156.8,589.96,1108.08,577.21,1054.86,566.31z"/>
		<path fill="#8ABA3F" d="M663.795,800H0v-31.309c1.725,4.229,3.315,8.457,4.845,12.627C9.285,761.225,7.605,740.806,0,720.94
			v-18.083c24.9,23.968,38.67,50.76,39.63,77.692c6.285-36.588-0.93-73.715-21.06-109.06c-0.915-1.604-1.846-3.201-2.806-4.799
			c-1.859-3.053-3.795-6.084-5.835-9.107c2.806,2.839,5.565,5.692,8.235,8.561c1.68,1.789,3.33,3.586,4.95,5.382
			c32.745,36.3,55.245,74.839,66.63,114.161c0.12-44.432,0.225-88.854,0.33-133.293v-0.008c0-0.215,0-0.422,0.015-0.636v-2.802
			c0.226,0.895,0.45,1.781,0.69,2.676c0,0.045,0.015,0.081,0.029,0.126c9.931,38.798,23.341,77.381,40.186,115.603
			c-0.915-18.793,8.265-37.313,18.104-55.469c13.62-25.136,28.665-50.087,45.091-74.809c-16.08,44.845-22.365,90.54-18.735,136.043
			c5.715-42.96,60.465-80.005,113.115-114.367c-19.801,31.124-39.585,62.24-59.385,93.364
			c29.504-34.133,73.994-65.094,129.524-90.148c-35.385,33.187-71.415,67.364-79.845,104.624
			c37.92-21.307,75.84-42.62,113.774-63.927c-22.08,20.516-36.915,42.908-43.635,65.894c25.425-3.948,45.061-15.74,47.97-28.796
			c5.49,6.491,9.676,13.256,12.465,20.153c6.45-5.189,8.985-11.525,7.035-17.528c7.965,2.986,15.226,6.424,21.601,10.224
			c0.66,0.385,1.305,0.776,1.935,1.176c0.84,0.525,1.68,1.058,2.49,1.604c0.54,0.354,1.08,0.717,1.605,1.087
			c0.645,0.443,1.274,0.901,1.89,1.36c0.585,0.414,1.14,0.835,1.694,1.257c4.726,3.637,8.73,7.511,11.881,11.547
			c1.574-4.088,2.91-8.206,4.005-12.331c0.104-0.385,0.21-0.769,0.3-1.153c0-0.008,0-0.008,0-0.015
			c8.46-33.054,1.8-67.038-19.53-98.658c39.195,29.15,50.295,64.629,76.8,96.463c1.336,1.597,2.716,3.186,4.141,4.769
			c6.24,6.979,13.35,13.758,21.81,20.219c2.865-6.609-0.689-13.329-0.87-20.042c-0.015-0.562-0.015-1.131,0.03-1.692
			c0.21-2.973,0.465-5.952,0.72-8.924c0.721-7.977,1.516-15.954,1.711-23.953c0.539-21.927-1.08-43.869-4.83-65.729
			c22.409,28.573,39.689,58.123,51.614,88.182c0.09,0.215,0.181,0.429,0.255,0.636c0.061,0.141,0.12,0.281,0.165,0.414
			c0.466,1.198,0.931,2.389,1.365,3.586c0.03,0.066,0.045,0.141,0.075,0.207c0.51,1.316,1.005,2.632,1.47,3.947
			c0.075,0.207,0.15,0.414,0.226,0.621c0.42,1.153,0.824,2.314,1.215,3.475c2.939,8.51,5.43,17.049,7.5,25.617
			c5.399-10.779,9.524-21.721,12.345-32.736c0.104-0.398,0.21-0.806,0.3-1.205c6.69-26.902,5.686-54.256-3.09-81.004
			c16.68,26.156,22.365,53.547,29.565,80.797c0.12,0.443,0.239,0.888,0.359,1.331c0.181,0.644,0.346,1.286,0.525,1.93
			c0.09,0.362,0.194,0.725,0.285,1.087c0.194,0.709,0.39,1.427,0.585,2.144c0.12,0.421,0.24,0.843,0.359,1.271
			C652.74,773.386,657.18,786.812,663.795,800z"/>
		<path fill="#8ABA3F" d="M1200,748.627V800H665.295c5.88-14.172,13.26-28.196,22.095-41.991c0.195-0.296,0.375-0.584,0.57-0.873
			c0.705-1.116,1.44-2.232,2.19-3.341c0.33-0.525,0.689-1.058,1.05-1.582c0.225-0.333,0.45-0.673,0.675-1.006
			c0.39-0.584,0.795-1.168,1.2-1.752c14.114-20.516,31.455-40.498,51.84-59.697c-5.521,5.204-7.38,16.094-9.479,22.186
			c-3.525,10.239-2.28,21.565-2.176,31.923c0.03,3.297,0.465,6.935,4.021,9.581c0.72,0.547,1.575,1.042,2.595,1.486
			c0.12,0.059,0.24,0.11,0.36,0.162c2.085,0.865,4.47,1.346,6.96,1.508c1.29,0.082,2.595,0.089,3.899,0.016
			c0.585-0.037,1.17-0.082,1.74-0.141c1.365-0.141,2.715-0.362,4.021-0.651c1.755-0.369,3.435-0.864,4.994-1.456
			c1.141-0.429,2.205-0.909,3.195-1.434c2.01-1.087,3.615-2.352,4.561-3.719c4.05-5.789,0.21-12.125-3.631-17.95
			c14.101,8.612,23.28,19.17,26.176,30.148c11.13-7.023,14.01-17.004,7.335-25.291c9.06,4.502,17.114,9.499,23.97,14.859
			c3.015-5.175,6.03-10.357,9.045-15.532c6.495,6.239,10.995,12.989,13.275,19.916c7.784-11.451,25.979-21.084,48.614-25.727
			c-2.43,7.969-6.104,15.843-10.965,23.538c4.995-5.492,12.811-10.364,22.485-14.031c1.064,7.903,2.13,15.806,3.195,23.709
			c25.875-23.583,28.095-53.125,5.819-77.596c32.955,25.794,51.99,55.86,54.646,86.312c14.31-31.642,9.6-65.315-13.381-95.693
			c27.136,29.66,48.735,60.556,64.426,92.167c11.234-30.54,22.47-61.072,33.705-91.612c-1.41,28.285,2.654,56.622,12.09,84.53
			c16.455-29.513,43.59-57.568,79.74-82.445c-27.211,28.484-42.195,59.786-43.665,91.265c20.475-24.581,50.01-47.314,86.745-66.765
			c-18.436,23.184-28.23,48.023-28.74,72.923C1169.91,765.697,1183.439,756.375,1200,748.627z"/>
		<path fill="#6CAF41" d="M663.795,800H0v-42.35c1.725,5.72,3.315,11.439,4.845,17.08C9.285,747.55,7.605,719.93,0,693.06V668.6
			c24.9,32.42,38.67,68.66,39.63,105.091c6.285-49.49-0.93-99.71-21.06-147.521c-0.915-2.17-1.846-4.33-2.806-6.49
			c-1.859-4.13-3.795-8.229-5.835-12.319c2.806,3.84,5.565,7.699,8.235,11.58c1.68,2.42,3.33,4.85,4.95,7.279
			C55.86,675.32,78.36,727.45,89.745,780.64c0.12-60.1,0.225-120.189,0.33-180.3v-0.01c0-0.29,0-0.57,0.015-0.86v-3.79
			c0.226,1.21,0.45,2.41,0.69,3.62c0,0.061,0.015,0.11,0.029,0.17c9.931,52.48,23.341,104.67,40.186,156.37
			c-0.915-25.42,8.265-50.47,18.104-75.03c13.62-34,28.665-67.75,45.091-101.189c-16.08,60.66-22.365,122.47-18.735,184.02
			C181.17,705.53,235.92,655.42,288.57,608.94c-19.801,42.1-39.585,84.189-59.385,126.29
			c29.504-46.171,73.994-88.051,129.524-121.94c-35.385,44.89-71.415,91.12-79.845,141.52c37.92-28.819,75.84-57.649,113.774-86.47
			c-22.08,27.75-36.915,58.04-43.635,89.13c25.425-5.34,45.061-21.29,47.97-38.95c5.49,8.78,9.676,17.931,12.465,27.261
			c6.45-7.021,8.985-15.59,7.035-23.71c7.965,4.04,15.226,8.689,21.601,13.83c0.66,0.52,1.305,1.05,1.935,1.59
			c0.84,0.71,1.68,1.43,2.49,2.17c0.54,0.479,1.08,0.97,1.605,1.47c0.645,0.601,1.274,1.22,1.89,1.84
			c0.585,0.561,1.14,1.13,1.694,1.7c4.726,4.92,8.73,10.16,11.881,15.62c1.574-5.53,2.91-11.1,4.005-16.68
			c0.104-0.521,0.21-1.04,0.3-1.561c0-0.01,0-0.01,0-0.02c8.46-44.71,1.8-90.681-19.53-133.45
			c39.195,39.43,50.295,87.42,76.8,130.479c1.336,2.16,2.716,4.311,4.141,6.45c6.24,9.44,13.35,18.61,21.81,27.351
			c2.865-8.94-0.689-18.03-0.87-27.11c-0.015-0.76-0.015-1.53,0.03-2.29c0.21-4.02,0.465-8.05,0.72-12.07
			c0.721-10.79,1.516-21.58,1.711-32.399c0.539-29.66-1.08-59.34-4.83-88.91c22.409,38.65,39.689,78.62,51.614,119.28
			c0.09,0.29,0.181,0.58,0.255,0.859c0.061,0.19,0.12,0.38,0.165,0.561c0.466,1.62,0.931,3.229,1.365,4.85
			c0.03,0.09,0.045,0.19,0.075,0.28c0.51,1.78,1.005,3.56,1.47,5.34c0.075,0.28,0.15,0.56,0.226,0.84
			c0.42,1.561,0.824,3.13,1.215,4.7c2.939,11.51,5.43,23.06,7.5,34.65c5.399-14.58,9.524-29.381,12.345-44.28
			c0.104-0.54,0.21-1.09,0.3-1.63c6.69-36.391,5.686-73.391-3.09-109.57c16.68,35.38,22.365,72.43,29.565,109.29
			c0.12,0.6,0.239,1.2,0.359,1.8c0.181,0.87,0.346,1.74,0.525,2.61c0.09,0.49,0.194,0.979,0.285,1.47
			c0.194,0.96,0.39,1.93,0.585,2.9c0.12,0.569,0.24,1.14,0.359,1.72C652.74,764,657.18,782.16,663.795,800z"/>
		<path fill="#6CAF41" d="M1200,730.51V800H665.295c5.88-19.17,13.26-38.14,22.095-56.8c0.195-0.4,0.375-0.79,0.57-1.181
			c0.705-1.51,1.44-3.02,2.19-4.52c0.33-0.71,0.689-1.43,1.05-2.14c0.225-0.45,0.45-0.91,0.675-1.36c0.39-0.79,0.795-1.58,1.2-2.37
			c14.114-27.75,31.455-54.78,51.84-80.75c-5.521,7.04-7.38,21.771-9.479,30.01c-3.525,13.851-2.28,29.17-2.176,43.181
			c0.03,4.46,0.465,9.38,4.021,12.96c0.72,0.739,1.575,1.41,2.595,2.01c0.12,0.08,0.24,0.15,0.36,0.22
			c2.085,1.17,4.47,1.82,6.96,2.04c1.29,0.11,2.595,0.12,3.899,0.021c0.585-0.051,1.17-0.11,1.74-0.19
			c1.365-0.189,2.715-0.49,4.021-0.88c1.755-0.5,3.435-1.17,4.994-1.97c1.141-0.58,2.205-1.23,3.195-1.94
			c2.01-1.47,3.615-3.18,4.561-5.03c4.05-7.829,0.21-16.399-3.631-24.279c14.101,11.649,23.28,25.93,26.176,40.779
			c11.13-9.5,14.01-23,7.335-34.21c9.06,6.091,17.114,12.851,23.97,20.101c3.015-7,6.03-14.01,9.045-21.01
			c6.495,8.439,10.995,17.569,13.275,26.939c7.784-15.49,25.979-28.52,48.614-34.8c-2.43,10.78-6.104,21.43-10.965,31.84
			c4.995-7.43,12.811-14.02,22.485-18.979c1.064,10.689,2.13,21.38,3.195,32.069C934.98,717.86,937.2,677.9,914.925,644.8
			c32.955,34.891,51.99,75.561,54.646,116.75c14.31-42.8,9.6-88.35-13.381-129.439c27.136,40.12,48.735,81.909,64.426,124.67
			c11.234-41.311,22.47-82.61,33.705-123.92c-1.41,38.26,2.654,76.59,12.09,114.34c16.455-39.92,43.59-77.87,79.74-111.521
			c-27.211,38.53-42.195,80.87-43.665,123.45c20.475-33.25,50.01-64,86.745-90.31c-18.436,31.359-28.23,64.96-28.74,98.64
			C1169.91,753.6,1183.439,740.99,1200,730.51z"/>
		<path opacity="0.3" fill="#6CAF41" d="M579.915,785.522c1.11,4.845,2.415,9.665,3.915,14.478h-34.695
			c0.66-2.447,1.275-4.896,1.891-7.351c0.119-0.481,0.239-0.955,0.359-1.428c0.195-0.805,0.391-1.609,0.585-2.406
			c0.09-0.406,0.195-0.813,0.285-1.22c0.181-0.722,0.345-1.443,0.525-2.165c0.12-0.498,0.239-0.995,0.359-1.493
			c7.2-30.582,12.886-61.322,29.565-90.677c-8.775,30.019-9.78,60.717-3.09,90.909C579.705,784.617,579.81,785.074,579.915,785.522z
			"/>
		<path opacity="0.3" fill="#6CAF41" d="M656.145,680.086c-3.75,24.533-5.369,49.158-4.829,73.767
			c0.194,8.978,0.989,17.93,1.71,26.882c0.255,3.336,0.51,6.68,0.72,10.015c0.045,0.631,0.045,1.27,0.03,1.9
			c-0.061,2.447-0.48,4.903-0.9,7.351H597.84c0.615-2.166,1.26-4.331,1.92-6.488c0.391-1.303,0.795-2.605,1.215-3.899
			c0.075-0.232,0.15-0.465,0.226-0.697c0.465-1.477,0.96-2.953,1.47-4.431c0.03-0.074,0.045-0.157,0.075-0.231
			c0.435-1.345,0.899-2.681,1.365-4.024c0.045-0.149,0.104-0.307,0.165-0.465c0.074-0.232,0.164-0.473,0.255-0.713
			C616.455,745.315,633.735,712.153,656.145,680.086z"/>
		<path opacity="0.3" fill="#6CAF41" d="M736.425,790.873c0.72,3.045,1.545,6.09,2.476,9.127H668.34
			c2.235-2.489,4.35-5.012,6.375-7.55c1.425-1.776,2.805-3.56,4.141-5.352c26.505-35.727,37.604-75.543,76.8-108.258
			c-21.33,35.485-27.99,73.626-19.53,110.722c0,0.008,0,0.008,0,0.017C736.215,790.011,736.32,790.442,736.425,790.873z"/>
		<path opacity="0.3" fill="#6CAF41" d="M840.66,800h-96.585c2.415-2.846,5.175-5.601,8.234-8.247
			c0.556-0.473,1.11-0.946,1.695-1.41c0.615-0.515,1.245-1.029,1.89-1.527c0.525-0.414,1.065-0.821,1.605-1.22
			c0.81-0.613,1.65-1.211,2.49-1.8c0.63-0.448,1.274-0.888,1.935-1.319c6.375-4.265,13.635-8.122,21.601-11.475
			c-1.95,6.737,0.585,13.848,7.034,19.672c2.79-7.741,6.976-15.332,12.466-22.617C805.53,782.651,820.38,794.2,840.66,800z"/>
		<path opacity="0.3" fill="#6CAF41" d="M807.36,728.423c37.845,23.854,75.675,47.724,113.505,71.577H850.35
			C843.36,775.035,828.766,750.741,807.36,728.423z"/>
		<path opacity="0.3" fill="#6CAF41" d="M911.43,679.14c49.905,36.548,101.686,75.809,111.811,120.86H921.105
			c-8.49-41.75-44.476-80.057-79.815-117.251c55.53,28.118,100.02,62.865,129.525,101.172
			C951.016,748.991,931.23,714.069,911.43,679.14z"/>
		<path opacity="0.3" fill="#6CAF41" d="M1050.9,738.77c9.675,20.045,18.72,40.488,18.135,61.23h-44.04
			c2.535-48.586-3.885-97.322-19.186-145.187C1022.235,682.558,1037.28,710.56,1050.9,738.77z"/>
		<path opacity="0.3" fill="#6CAF41" d="M1109.925,672.004c0.091,42.671,0.181,85.334,0.285,127.996h-40.814
			c16.664-42.563,29.939-85.524,39.794-128.718c0.016-0.05,0.03-0.091,0.03-0.141c0.24-1.004,0.466-2,0.69-3.004v3.145
			c0.015,0.241,0.015,0.474,0.015,0.714V672.004z"/>
		<path opacity="0.3" fill="#6CAF41" d="M1158.63,800h-41.895c12.54-36.631,32.76-72.457,60.149-106.523
			c1.62-2.016,3.271-4.032,4.95-6.04c2.67-3.219,5.431-6.422,8.235-9.607c-2.04,3.394-3.976,6.795-5.835,10.222
			c-0.96,1.792-1.891,3.584-2.806,5.385C1163.88,728.017,1156.155,764.116,1158.63,800z"/>
		<path opacity="0.3" fill="#6CAF41" d="M1200,748.933c-5.73,16.81-8.1,33.976-7.005,51.067h-30.945
			c4.44-24.816,17.4-49.167,37.95-71.361V748.933z"/>
		<path opacity="0.3" fill="#6CAF41" d="M29.28,800H0v-19.995C11.28,785.929,21.15,792.666,29.28,800z"/>
		<path opacity="0.3" fill="#6CAF41" d="M10.77,728.821C45.84,749.654,74.34,773.849,94.65,800H38.865
			C36.36,775.648,26.865,751.529,10.77,728.821z"/>
		<path opacity="0.3" fill="#6CAF41" d="M145.68,698.985c11.04,33.678,22.08,67.338,33.12,101.015H97.305
			c-2.34-34.059-17.205-67.835-43.455-98.675c36.15,27.919,63.285,59.406,79.74,92.526
			C143.025,762.531,147.09,730.729,145.68,698.985z"/>
		<path opacity="0.3" fill="#6CAF41" d="M228.285,800h-48.09c15.614-34.847,36.944-68.914,63.614-101.637
			C222.075,730.622,216.675,766.182,228.285,800z"/>
		<path opacity="0.3" fill="#6CAF41" d="M517.815,800H231.045c4.23-32.191,22.92-63.786,54.03-91.107
			c-22.275,27.462-20.056,60.616,5.819,87.083c1.065-8.869,2.131-17.738,3.195-26.607c9.675,4.115,17.49,9.583,22.485,15.747
			c-4.86-8.637-8.535-17.473-10.965-26.417c22.635,5.21,40.829,16.021,48.614,28.873c2.28-7.774,6.78-15.35,13.275-22.352
			c3.015,5.808,6.03,11.624,9.045,17.432c6.855-6.016,14.91-11.624,23.97-16.677c-6.675,9.301-3.795,20.502,7.335,28.384
			c2.896-12.321,12.075-24.169,26.176-33.835c-3.84,6.538-7.681,13.648-3.631,20.145c0.945,1.535,2.551,2.954,4.561,4.174
			c0.99,0.589,2.055,1.128,3.195,1.609c1.56,0.664,3.239,1.22,4.994,1.635c1.306,0.323,2.655,0.572,4.021,0.729
			c0.57,0.066,1.155,0.116,1.74,0.158c1.305,0.083,2.609,0.074,3.899-0.017c2.49-0.183,4.875-0.722,6.96-1.692
			c0.12-0.059,0.24-0.116,0.36-0.183c1.02-0.498,1.875-1.054,2.595-1.668c3.556-2.971,3.99-7.053,4.021-10.753
			c0.104-11.624,1.35-24.335-2.175-35.825c-2.101-6.837-3.96-19.059-9.48-24.899c20.385,21.547,37.725,43.974,51.84,66.997
			c0.405,0.655,0.811,1.312,1.2,1.967c0.225,0.373,0.45,0.755,0.675,1.128c0.36,0.589,0.72,1.187,1.05,1.775
			c0.75,1.245,1.485,2.498,2.19,3.751c0.195,0.323,0.375,0.646,0.57,0.979C514.395,793.678,516.135,796.83,517.815,800z"/>
		<path fill="#579E3D" d="M579.915,782.55c1.11,5.84,2.415,11.65,3.915,17.45h-34.695c0.66-2.95,1.275-5.9,1.891-8.86
			c0.119-0.58,0.239-1.149,0.359-1.72c0.195-0.97,0.391-1.939,0.585-2.9c0.09-0.489,0.195-0.979,0.285-1.47
			c0.181-0.87,0.345-1.74,0.525-2.609c0.12-0.601,0.239-1.2,0.359-1.801c7.2-36.859,12.886-73.909,29.565-109.29
			c-8.775,36.181-9.78,73.181-3.09,109.57C579.705,781.46,579.81,782.01,579.915,782.55z"/>
		<path fill="#579E3D" d="M656.145,655.47c-3.75,29.57-5.369,59.25-4.829,88.91c0.194,10.82,0.989,21.61,1.71,32.4
			c0.255,4.02,0.51,8.05,0.72,12.069c0.045,0.761,0.045,1.53,0.03,2.29c-0.061,2.95-0.48,5.91-0.9,8.86H597.84
			c0.615-2.61,1.26-5.22,1.92-7.82c0.391-1.569,0.795-3.14,1.215-4.699c0.075-0.28,0.15-0.561,0.226-0.841
			c0.465-1.779,0.96-3.56,1.47-5.34c0.03-0.09,0.045-0.189,0.075-0.28c0.435-1.619,0.899-3.229,1.365-4.85
			c0.045-0.18,0.104-0.37,0.165-0.56c0.074-0.28,0.164-0.57,0.255-0.86C616.455,734.09,633.735,694.12,656.145,655.47z"/>
		<path fill="#579E3D" d="M736.425,789c0.72,3.67,1.545,7.34,2.476,11H668.34c2.235-3,4.35-6.04,6.375-9.1
			c1.425-2.141,2.805-4.29,4.141-6.45c26.505-43.061,37.604-91.05,76.8-130.48c-21.33,42.771-27.99,88.74-19.53,133.45
			c0,0.01,0,0.01,0,0.021C736.215,787.96,736.32,788.48,736.425,789z"/>
		<path fill="#579E3D" d="M840.66,800h-96.585c2.415-3.43,5.175-6.75,8.234-9.94c0.556-0.569,1.11-1.14,1.695-1.699
			c0.615-0.62,1.245-1.24,1.89-1.841c0.525-0.5,1.065-0.989,1.605-1.47c0.81-0.74,1.65-1.46,2.49-2.17
			c0.63-0.54,1.274-1.07,1.935-1.59c6.375-5.14,13.635-9.79,21.601-13.83c-1.95,8.12,0.585,16.69,7.034,23.71
			c2.79-9.33,6.976-18.479,12.466-27.26C805.53,779.09,820.38,793.01,840.66,800z"/>
		<path fill="#579E3D" d="M807.36,713.73c37.845,28.75,75.675,57.52,113.505,86.27H850.35
			C843.36,769.91,828.766,740.63,807.36,713.73z"/>
		<path fill="#579E3D" d="M911.43,654.33c49.905,44.05,101.686,91.37,111.811,145.67H921.105
			c-8.49-50.32-44.476-96.49-79.815-141.32c55.53,33.891,100.02,75.771,129.525,121.94C951.016,738.52,931.23,696.43,911.43,654.33z
			"/>
		<path fill="#579E3D" d="M1050.9,726.2c9.675,24.16,18.72,48.8,18.135,73.8h-44.04c2.535-58.56-3.885-117.3-19.186-174.99
			C1022.235,658.45,1037.28,692.2,1050.9,726.2z"/>
		<path fill="#579E3D" d="M1109.925,645.73c0.091,51.43,0.181,102.85,0.285,154.27h-40.814c16.664-51.3,29.939-103.08,39.794-155.14
			c0.016-0.061,0.03-0.11,0.03-0.17c0.24-1.21,0.466-2.41,0.69-3.62v3.79c0.015,0.29,0.015,0.569,0.015,0.859V645.73z"/>
		<path fill="#579E3D" d="M1158.63,800h-41.895c12.54-44.15,32.76-87.33,60.149-128.39c1.62-2.431,3.271-4.86,4.95-7.28
			c2.67-3.88,5.431-7.74,8.235-11.58c-2.04,4.09-3.976,8.19-5.835,12.32c-0.96,2.16-1.891,4.319-2.806,6.489
			C1163.88,713.24,1156.155,756.75,1158.63,800z"/>
		<path fill="#579E3D" d="M1200,738.45c-5.73,20.26-8.1,40.95-7.005,61.55h-30.945c4.44-29.91,17.4-59.26,37.95-86.01V738.45z"/>
		<path fill="#579E3D" d="M29.28,800H0v-24.1C11.28,783.04,21.15,791.16,29.28,800z"/>
		<path fill="#579E3D" d="M10.77,714.21C45.84,739.32,74.34,768.48,94.65,800H38.865C36.36,770.65,26.865,741.58,10.77,714.21z"/>
		<path fill="#579E3D" d="M145.68,678.25c11.04,40.59,22.08,81.16,33.12,121.75H97.305c-2.34-41.05-17.205-81.76-43.455-118.93
			c36.15,33.649,63.285,71.6,79.74,111.52C143.025,754.84,147.09,716.51,145.68,678.25z"/>
		<path fill="#579E3D" d="M228.285,800h-48.09c15.614-42,36.944-83.06,63.614-122.5C222.075,716.38,216.675,759.24,228.285,800z"/>
		<path fill="#579E3D" d="M517.815,800H231.045c4.23-38.8,22.92-76.88,54.03-109.81c-22.275,33.1-20.056,73.06,5.819,104.96
			c1.065-10.69,2.131-21.381,3.195-32.07c9.675,4.96,17.49,11.55,22.485,18.979c-4.86-10.409-8.535-21.06-10.965-31.84
			c22.635,6.28,40.829,19.311,48.614,34.8c2.28-9.369,6.78-18.5,13.275-26.939c3.015,7,6.03,14.01,9.045,21.01
			c6.855-7.25,14.91-14.01,23.97-20.1c-6.675,11.21-3.795,24.71,7.335,34.21c2.896-14.851,12.075-29.13,26.176-40.78
			c-3.84,7.88-7.681,16.45-3.631,24.28c0.945,1.85,2.551,3.56,4.561,5.03c0.99,0.71,2.055,1.359,3.195,1.939
			c1.56,0.8,3.239,1.47,4.994,1.97c1.306,0.391,2.655,0.69,4.021,0.88c0.57,0.08,1.155,0.141,1.74,0.19
			c1.305,0.1,2.609,0.09,3.899-0.02c2.49-0.221,4.875-0.87,6.96-2.04c0.12-0.07,0.24-0.141,0.36-0.221
			c1.02-0.6,1.875-1.27,2.595-2.01c3.556-3.58,3.99-8.5,4.021-12.96c0.104-14.01,1.35-29.33-2.175-43.18
			c-2.101-8.24-3.96-22.971-9.48-30.011c20.385,25.971,37.725,53,51.84,80.75c0.405,0.79,0.811,1.58,1.2,2.37
			c0.225,0.45,0.45,0.91,0.675,1.36c0.36,0.71,0.72,1.43,1.05,2.14c0.75,1.5,1.485,3.011,2.19,4.521
			c0.195,0.39,0.375,0.78,0.57,1.18C514.395,792.38,516.135,796.18,517.815,800z"/>
		<path fill="#7BB540" d="M758.036,591.472c-6.112,3.762-12.391,7.4-18.813,10.926c-1.965,1.077-4.875,3.405-7.573,3.642
			c-3.421,0.299-3.651-1.243-6.277-1.815c-0.799-0.175-1.658,0.039-2.437,0.25c-2.691,0.728-5.383,1.456-8.074,2.185
			c-0.384-3.014-0.535-6.039-0.455-9.063c-3.957,3.234-7.914,6.469-11.871,9.704c-1.003-2.646-2.005-5.293-3.007-7.939
			c-2.413,2.202-4.315,4.651-5.619,7.235c-2.403-1.564-5.304-2.788-8.454-3.564c0.286,1.704,0.139,3.441-0.436,5.114
			c-4.646-2.5-9.854-4.537-15.393-6.022c-0.043,1.292-0.085,2.585-0.127,3.877c-2.18,0-4.36-0.001-6.54-0.001
			c-0.079,1.072-1.027,2.099-2.428,2.629c-3.425-4.206-8.002-12.592-18.061-10.858c7.693-1.326,16.238-0.252,22.679,2.852
			c-6.829-5.895-15.267-10.958-24.773-14.868c16.718-0.251,33.4,5.241,43.265,14.243c-5.517-7.32-8.319-15.541-8.093-23.732
			c5.308,8.089,11.379,15.954,18.166,23.535c2.16-8.621,9.769-16.575,20.582-21.518c-2.15,6.104-4.3,12.209-6.45,18.313
			c8.057-8.505,23.203-12.525,37.351-16.022c-0.358,2.609-3.405,4.637-6.116,6.534c-5.919,4.144-11.058,8.782-15.256,13.772
			C733.482,595.565,745.568,592.242,758.036,591.472z"/>
		<path fill="#7BB540" d="M971.684,608.055c-3.595,2.213-7.286,4.353-11.063,6.425c-1.155,0.634-2.867,2.003-4.453,2.142
			c-2.012,0.176-2.147-0.73-3.691-1.067c-0.47-0.103-0.976,0.022-1.434,0.146c-1.582,0.429-3.165,0.856-4.747,1.285
			c-0.226-1.772-0.315-3.552-0.268-5.329c-2.327,1.902-4.654,3.804-6.981,5.706c-0.589-1.556-1.178-3.112-1.768-4.668
			c-1.419,1.294-2.538,2.734-3.304,4.255c-1.413-0.921-3.119-1.64-4.972-2.097c0.169,1.002,0.082,2.023-0.256,3.007
			c-2.732-1.47-5.794-2.667-9.052-3.541c-0.024,0.76-0.05,1.52-0.074,2.28c-1.282-0.001-2.563-0.001-3.846-0.001
			c-0.047,0.631-0.604,1.234-1.428,1.546c-2.014-2.473-4.705-7.404-10.62-6.385c4.523-0.78,9.549-0.148,13.336,1.677
			c-4.016-3.467-8.977-6.443-14.567-8.743c9.83-0.147,19.64,3.082,25.44,8.375c-3.243-4.305-4.892-9.139-4.758-13.955
			c3.12,4.757,6.69,9.382,10.682,13.839c1.27-5.068,5.744-9.746,12.103-12.652c-1.265,3.59-2.528,7.18-3.793,10.769
			c4.737-5.001,13.645-7.365,21.963-9.421c-0.211,1.534-2.002,2.727-3.597,3.842c-3.48,2.437-6.502,5.164-8.971,8.099
			C957.245,610.463,964.353,608.508,971.684,608.055z"/>
		<path fill="#7BB540" d="M441.999,647.263c-3.595,2.212-7.286,4.352-11.063,6.424c-1.155,0.634-2.867,2.003-4.453,2.142
			c-2.012,0.177-2.147-0.73-3.691-1.067c-0.47-0.103-0.976,0.023-1.434,0.147c-1.582,0.428-3.165,0.856-4.747,1.284
			c-0.226-1.771-0.315-3.551-0.268-5.329c-2.327,1.902-4.654,3.805-6.981,5.706c-0.589-1.556-1.178-3.111-1.768-4.668
			c-1.419,1.295-2.537,2.735-3.304,4.255c-1.413-0.92-3.119-1.64-4.972-2.097c0.169,1.003,0.082,2.024-0.256,3.008
			c-2.732-1.471-5.794-2.668-9.052-3.541c-0.024,0.76-0.049,1.52-0.074,2.279c-1.282,0-2.563-0.001-3.846-0.001
			c-0.047,0.631-0.604,1.234-1.428,1.546c-2.014-2.473-4.705-7.404-10.619-6.385c4.523-0.779,9.548-0.147,13.335,1.677
			c-4.016-3.466-8.977-6.443-14.567-8.743c9.83-0.147,19.641,3.082,25.44,8.376c-3.243-4.305-4.892-9.139-4.759-13.955
			c3.121,4.756,6.691,9.381,10.683,13.839c1.27-5.069,5.744-9.747,12.103-12.653c-1.265,3.59-2.528,7.18-3.793,10.77
			c4.737-5.002,13.645-7.365,21.963-9.422c-0.211,1.534-2.002,2.727-3.596,3.842c-3.481,2.437-6.503,5.164-8.972,8.099
			C427.561,649.67,434.668,647.716,441.999,647.263z"/>
		<path opacity="0.28" fill="#7BB540" d="M176.617,483.854c-3.595,2.212-7.287,4.352-11.063,6.425
			c-1.155,0.634-2.866,2.002-4.453,2.141c-2.011,0.177-2.146-0.73-3.691-1.067c-0.469-0.103-0.975,0.023-1.433,0.147
			c-1.582,0.428-3.165,0.856-4.747,1.284c-0.226-1.771-0.315-3.551-0.268-5.329c-2.327,1.902-4.654,3.805-6.981,5.707
			c-0.589-1.557-1.179-3.112-1.768-4.669c-1.419,1.295-2.538,2.735-3.305,4.255c-1.412-0.92-3.118-1.64-4.971-2.097
			c0.168,1.003,0.082,2.024-0.256,3.008c-2.732-1.47-5.794-2.668-9.052-3.541c-0.024,0.76-0.05,1.52-0.074,2.279
			c-1.282,0-2.564,0-3.846-0.001c-0.047,0.631-0.604,1.234-1.428,1.547c-2.014-2.474-4.705-7.405-10.62-6.386
			c4.523-0.779,9.549-0.147,13.336,1.677c-4.017-3.466-8.978-6.443-14.568-8.743c9.831-0.147,19.641,3.082,25.441,8.376
			c-3.244-4.305-4.892-9.139-4.759-13.955c3.121,4.756,6.691,9.381,10.683,13.839c1.27-5.069,5.743-9.747,12.103-12.652
			c-1.265,3.589-2.529,7.179-3.793,10.769c4.737-5.002,13.644-7.365,21.963-9.422c-0.211,1.534-2.003,2.727-3.597,3.843
			c-3.48,2.436-6.502,5.164-8.971,8.099C162.179,486.262,169.285,484.308,176.617,483.854z"/>
		<path fill="#659640" d="M650.736,416.23c-1.579,0.972-3.202,1.912-4.861,2.823c-0.508,0.278-1.261,0.88-1.958,0.941
			c-0.884,0.077-0.943-0.321-1.622-0.47c-0.206-0.045-0.429,0.011-0.63,0.064c-0.695,0.188-1.391,0.377-2.087,0.565
			c-0.099-0.779-0.138-1.562-0.117-2.343c-1.022,0.836-2.046,1.672-3.068,2.508c-0.259-0.684-0.518-1.367-0.777-2.052
			c-0.623,0.569-1.115,1.202-1.451,1.87c-0.621-0.404-1.371-0.721-2.186-0.921c0.074,0.44,0.036,0.89-0.112,1.321
			c-1.201-0.646-2.547-1.172-3.979-1.557c-0.011,0.334-0.021,0.668-0.032,1.002c-0.563,0-1.127,0-1.69,0
			c-0.021,0.277-0.266,0.543-0.628,0.68c-0.885-1.087-2.067-3.254-4.667-2.807c1.988-0.343,4.196-0.064,5.861,0.737
			c-1.766-1.523-3.946-2.832-6.403-3.843c4.321-0.064,8.633,1.354,11.182,3.682c-1.426-1.893-2.15-4.017-2.091-6.134
			c1.371,2.09,2.94,4.123,4.694,6.082c0.559-2.228,2.524-4.283,5.319-5.561c-0.556,1.577-1.111,3.155-1.667,4.732
			c2.082-2.197,5.997-3.236,9.653-4.141c-0.093,0.675-0.88,1.198-1.581,1.688c-1.529,1.071-2.857,2.27-3.942,3.56
			C644.391,417.288,647.515,416.429,650.736,416.23z"/>
		<path fill="#659640" d="M1051.362,493.691c-1.58,0.972-3.202,1.912-4.862,2.823c-0.508,0.278-1.26,0.88-1.957,0.941
			c-0.884,0.077-0.943-0.321-1.623-0.47c-0.206-0.045-0.429,0.011-0.629,0.065c-0.696,0.188-1.392,0.376-2.087,0.564
			c-0.1-0.779-0.139-1.562-0.118-2.343c-1.022,0.836-2.045,1.672-3.067,2.508c-0.26-0.684-0.519-1.367-0.777-2.051
			c-0.624,0.568-1.115,1.201-1.452,1.869c-0.621-0.404-1.371-0.721-2.185-0.921c0.073,0.44,0.035,0.89-0.113,1.321
			c-1.2-0.646-2.546-1.172-3.978-1.556c-0.012,0.334-0.022,0.668-0.033,1.002c-0.563-0.001-1.127-0.001-1.69-0.001
			c-0.021,0.277-0.265,0.543-0.627,0.68c-0.885-1.087-2.068-3.254-4.668-2.806c1.988-0.343,4.197-0.065,5.861,0.736
			c-1.765-1.523-3.945-2.832-6.402-3.843c4.32-0.064,8.632,1.354,11.182,3.682c-1.426-1.893-2.15-4.017-2.092-6.134
			c1.372,2.091,2.94,4.123,4.695,6.082c0.558-2.228,2.524-4.283,5.318-5.561c-0.556,1.577-1.11,3.155-1.667,4.732
			c2.082-2.197,5.997-3.236,9.653-4.141c-0.093,0.675-0.88,1.198-1.581,1.689c-1.529,1.07-2.857,2.27-3.942,3.559
			C1045.017,494.749,1048.14,493.89,1051.362,493.691z"/>
		<path fill="#659640" d="M869.776,440.084c-1.58,0.973-3.203,1.913-4.862,2.823c-0.508,0.279-1.261,0.881-1.958,0.941
			c-0.884,0.078-0.943-0.321-1.622-0.469c-0.206-0.045-0.429,0.01-0.63,0.064c-0.695,0.188-1.391,0.376-2.087,0.564
			c-0.099-0.778-0.139-1.561-0.117-2.342c-1.022,0.836-2.046,1.672-3.068,2.508c-0.259-0.684-0.518-1.368-0.777-2.052
			c-0.623,0.568-1.115,1.202-1.451,1.87c-0.622-0.404-1.371-0.721-2.186-0.922c0.074,0.44,0.036,0.89-0.112,1.322
			c-1.201-0.646-2.547-1.173-3.979-1.557c-0.011,0.334-0.021,0.668-0.032,1.002c-0.563,0-1.127,0-1.69,0
			c-0.021,0.276-0.266,0.542-0.628,0.68c-0.885-1.088-2.067-3.255-4.667-2.807c1.988-0.343,4.196-0.065,5.86,0.736
			c-1.765-1.522-3.945-2.831-6.402-3.842c4.321-0.065,8.633,1.354,11.182,3.681c-1.426-1.892-2.15-4.017-2.092-6.134
			c1.372,2.091,2.941,4.124,4.695,6.083c0.559-2.229,2.524-4.284,5.319-5.562c-0.556,1.578-1.111,3.155-1.667,4.733
			c2.082-2.198,5.996-3.237,9.652-4.141c-0.092,0.674-0.88,1.198-1.58,1.688c-1.529,1.07-2.857,2.27-3.943,3.56
			C863.43,441.143,866.554,440.283,869.776,440.084z"/>
		<path fill="#659640" d="M226.178,425.106c-1.58,0.972-3.203,1.912-4.862,2.823c-0.508,0.279-1.261,0.881-1.957,0.941
			c-0.884,0.077-0.944-0.321-1.623-0.469c-0.206-0.046-0.429,0.01-0.63,0.064c-0.695,0.188-1.391,0.376-2.086,0.564
			c-0.1-0.779-0.139-1.561-0.118-2.343c-1.022,0.837-2.045,1.673-3.068,2.509c-0.259-0.685-0.518-1.368-0.776-2.052
			c-0.624,0.568-1.115,1.202-1.452,1.87c-0.621-0.405-1.371-0.721-2.186-0.922c0.074,0.44,0.036,0.89-0.112,1.321
			c-1.201-0.646-2.547-1.172-3.979-1.556c-0.011,0.334-0.021,0.668-0.032,1.002c-0.563,0-1.127,0-1.69-0.001
			c-0.021,0.277-0.266,0.543-0.627,0.68c-0.886-1.087-2.068-3.254-4.668-2.806c1.988-0.343,4.196-0.065,5.861,0.736
			c-1.766-1.523-3.945-2.832-6.402-3.843c4.32-0.064,8.632,1.354,11.181,3.682c-1.425-1.893-2.149-4.017-2.091-6.134
			c1.371,2.091,2.94,4.123,4.695,6.083c0.558-2.229,2.523-4.284,5.318-5.562c-0.556,1.578-1.111,3.155-1.667,4.733
			c2.082-2.198,5.997-3.237,9.653-4.142c-0.093,0.675-0.88,1.199-1.581,1.689c-1.529,1.07-2.857,2.27-3.942,3.559
			C219.832,426.164,222.955,425.306,226.178,425.106z"/>
		<ellipse fill="#AFE0F1" cx="1098.7" cy="531.068" rx="18.036" ry="2.979"/>
		<ellipse fill="#AFE0F1" cx="1056.8" cy="524.283" rx="12.598" ry="2.081"/>
		<g>
			<path fill="#FFFFFF" d="M1011.756,471.984c-0.207,0.454-0.582,0.809-1.033,1.102c-0.405,0.264-0.811,0.526-1.216,0.789
				c-0.455,0.296-0.911,0.592-1.367,0.888c-0.233,0.152-0.577,0.291-0.757,0.077c-0.065-0.078-0.085-0.186-0.085-0.288
				c-0.001-0.382,0.228-0.748,0.17-1.126c-0.058-0.368-0.386-0.649-0.742-0.761c-0.356-0.11-0.739-0.084-1.111-0.051
				c-0.796,0.069-1.615,0.169-2.312,0.563c-0.434,0.244-0.805,0.599-1.069,1.02c-0.099,0.156-0.184,0.323-0.312,0.458
				c-0.127,0.134-0.309,0.232-0.491,0.204c0.03-0.638,0.341-1.007,0.665-1.502c0.221-0.336,0.352-1.34-0.249-1.313
				c-0.6,0.026-1.211,0.051-1.786-0.118c-0.576-0.169-1.118-0.566-1.3-1.139c-0.204-0.647-0.005-1.209,0.33-1.754
				c0.252-0.408,0.557-0.776,0.844-1.158c0.347-0.462,0.471-0.697,0.498-1.272c0.056-1.129,0.117-2.259,0.229-3.384
				c0.062-0.629,0.145-1.274,0.452-1.826c0.099-0.177,0.248-0.358,0.451-0.366c0.281-0.011,0.451,0.304,0.523,0.575
				c0.267,0.998,0.147,2.04-0.01,3.045c-0.08,0.514-0.156,1.028-0.239,1.541c-0.075,0.46-0.165,0.646,0.332,0.878
				c0.156,0.072,0.313,0.146,0.482,0.177c0.169,0.03,0.354,0.015,0.496-0.081c0.337-0.226,0.523-0.872,0.734-1.212
				c0.282-0.454,0.6-0.888,0.946-1.295c0.693-0.814,1.508-1.526,2.411-2.1c0.273-0.174,0.646-0.331,0.898-0.129
				c0.168,0.135,0.202,0.388,0.139,0.594c-0.064,0.206-0.207,0.378-0.346,0.543c-1.05,1.246-2.098,2.492-3.146,3.737
				c-0.263,0.312-0.535,0.644-0.607,1.044c-0.041,0.226-0.02,0.475-0.146,0.665c1.119-0.59,2.3-1.109,3.556-1.26
				c1.101-0.133,2.353,0.035,3.271,0.698c0.852,0.615,1.128,1.838,1.071,2.83C1011.914,471.537,1011.854,471.771,1011.756,471.984z"
				/>
			<path fill="#FFFFFF" d="M999.339,473.987c0.136,0.066,0.308,0.016,0.419-0.086c0.113-0.102,0.179-0.243,0.233-0.385
				c0.281-0.713,0.383-1.492,0.725-2.178c0.063-0.128,0.136-0.254,0.164-0.394c0.028-0.141,0.003-0.301-0.104-0.396
				c-0.076-0.068-0.181-0.093-0.281-0.114c-0.064-0.015-0.132-0.028-0.194-0.006c-0.094,0.033-0.141,0.137-0.178,0.23
				C999.703,471.728,999.304,472.84,999.339,473.987z"/>
			<path fill="#FFFFFF" d="M1011.079,469.292c-0.104-0.289-0.026-0.629,0.173-0.863c0.2-0.234,0.508-0.364,0.815-0.373
				c0.124-0.004,0.256,0.013,0.354,0.09c0.067,0.053,0.112,0.129,0.152,0.203c0.127,0.234,0.231,0.481,0.311,0.735
				c0.04,0.127,0.074,0.263,0.05,0.394c-0.044,0.231-0.256,0.391-0.466,0.497c-0.31,0.157-0.691,0.248-0.998,0.085
				c-0.167-0.089-0.29-0.242-0.407-0.392C1010.901,469.465,1011.166,469.536,1011.079,469.292z"/>
			
				<ellipse transform="matrix(0.9289 0.3703 -0.3703 0.9289 244.7362 -337.0668)" fill="#231F20" cx="1000.343" cy="468.943" rx="0.15" ry="0.491"/>
			
				<ellipse transform="matrix(0.9289 0.3703 -0.3703 0.9289 245.0005 -337.5236)" fill="#231F20" cx="1001.665" cy="469.403" rx="0.15" ry="0.491"/>
		</g>
		<g>
			<path fill="#FFFFFF" d="M30.459,482.492c0,0-1.165-2.586,0-2.586S30.459,482.492,30.459,482.492z"/>
			<path fill="#FFFFFF" d="M30.565,482.508c0,0,0.735-2.649,1.782-2.325C33.395,480.508,30.565,482.508,30.565,482.508z"/>
			<path fill="#FFFFFF" d="M30.65,482.551c0,0,2.485-2.176,3.203-1.592C34.57,481.543,30.65,482.551,30.65,482.551z"/>
			<path fill="#FFFFFF" d="M30.696,482.614c0,0,3.733-1.263,3.977-0.538C34.915,482.801,30.696,482.614,30.696,482.614z"/>
			<path fill="#FFFFFF" d="M30.694,482.684c0,0,4.227-0.095,3.944,0.625C34.357,484.027,30.694,482.684,30.694,482.684z"/>
			<path fill="#FFFFFF" d="M30.645,482.745c0,0,3.864,1.094,3.115,1.662C33.012,484.975,30.645,482.745,30.645,482.745z"/>
			<path fill="#FFFFFF" d="M30.558,482.787c0,0,2.719,2.061,1.655,2.361C31.148,485.45,30.558,482.787,30.558,482.787z"/>
			<path fill="#FFFFFF" d="M30.451,482.8c0,0,1.023,2.61-0.141,2.585S30.451,482.8,30.451,482.8z"/>
			<path fill="#FFFFFF" d="M30.346,482.782c0,0-0.878,2.632-1.907,2.284C27.41,484.719,30.346,482.782,30.346,482.782z"/>
			<path fill="#FFFFFF" d="M30.264,482.736c0,0-2.603,2.121-3.288,1.521S30.264,482.736,30.264,482.736z"/>
			<path fill="#FFFFFF" d="M30.221,482.673c0,0-3.801,1.181-4.004,0.45C26.015,482.394,30.221,482.673,30.221,482.673z"/>
			<path fill="#FFFFFF" d="M30.227,482.604c0,0-4.229,0.001-3.909-0.711C26.638,481.18,30.227,482.604,30.227,482.604z"/>
			<path fill="#FFFFFF" d="M30.279,482.543c0,0-3.803-1.178-3.023-1.729C28.034,480.263,30.279,482.543,30.279,482.543z"/>
			<path fill="#FFFFFF" d="M30.338,482.522c0,0-2.638-2.104-1.563-2.388C29.851,479.85,30.338,482.522,30.338,482.522z"/>
			<ellipse fill="#FBD00C" cx="30.459" cy="482.646" rx="0.357" ry="0.227"/>
		</g>
		<g>
			<path fill="#FFFFFF" d="M26.313,492.032c0,0-1.164-2.587,0-2.587C27.478,489.445,26.313,492.032,26.313,492.032z"/>
			<path fill="#FFFFFF" d="M26.419,492.048c0,0,0.735-2.649,1.782-2.325C29.248,490.048,26.419,492.048,26.419,492.048z"/>
			<path fill="#FFFFFF" d="M26.504,492.091c0,0,2.486-2.176,3.203-1.592C30.424,491.082,26.504,492.091,26.504,492.091z"/>
			<path fill="#FFFFFF" d="M26.55,492.153c0,0,3.734-1.263,3.977-0.538C30.769,492.341,26.55,492.153,26.55,492.153z"/>
			<path fill="#FFFFFF" d="M26.548,492.223c0,0,4.227-0.094,3.945,0.626C30.211,493.567,26.548,492.223,26.548,492.223z"/>
			<path fill="#FFFFFF" d="M26.498,492.285c0,0,3.864,1.094,3.115,1.661C28.865,494.515,26.498,492.285,26.498,492.285z"/>
			<path fill="#FFFFFF" d="M26.411,492.326c0,0,2.72,2.061,1.655,2.362C27.003,494.99,26.411,492.326,26.411,492.326z"/>
			<path fill="#FFFFFF" d="M26.305,492.34c0,0,1.023,2.61-0.141,2.585C25,494.898,26.305,492.34,26.305,492.34z"/>
			<path fill="#FFFFFF" d="M26.199,492.322c0,0-0.878,2.631-1.907,2.284C23.264,494.259,26.199,492.322,26.199,492.322z"/>
			<path fill="#FFFFFF" d="M26.117,492.276c0,0-2.603,2.121-3.288,1.521C22.145,493.198,26.117,492.276,26.117,492.276z"/>
			<path fill="#FFFFFF" d="M26.074,492.213c0,0-3.8,1.18-4.003,0.45S26.074,492.213,26.074,492.213z"/>
			<path fill="#FFFFFF" d="M26.08,492.144c0,0-4.229,0.001-3.909-0.711C22.491,490.72,26.08,492.144,26.08,492.144z"/>
			<path fill="#FFFFFF" d="M26.133,492.083c0,0-3.802-1.178-3.023-1.729C23.889,489.803,26.133,492.083,26.133,492.083z"/>
			<path fill="#FFFFFF" d="M26.191,492.062c0,0-2.638-2.103-1.563-2.387C25.705,489.39,26.191,492.062,26.191,492.062z"/>
			<ellipse fill="#FBD00C" cx="26.313" cy="492.186" rx="0.357" ry="0.228"/>
		</g>
		<g>
			<path fill="#FFFFFF" d="M34.695,496.625c0,0-1.165-2.586,0-2.586S34.695,496.625,34.695,496.625z"/>
			<path fill="#FFFFFF" d="M34.802,496.641c0,0,0.734-2.648,1.782-2.324C37.631,494.642,34.802,496.641,34.802,496.641z"/>
			<path fill="#FFFFFF" d="M34.886,496.685c0,0,2.486-2.177,3.204-1.593C38.807,495.676,34.886,496.685,34.886,496.685z"/>
			<path fill="#FFFFFF" d="M34.933,496.747c0,0,3.733-1.263,3.977-0.538C39.151,496.934,34.933,496.747,34.933,496.747z"/>
			<path fill="#FFFFFF" d="M34.931,496.816c0,0,4.227-0.094,3.944,0.625C38.594,498.16,34.931,496.816,34.931,496.816z"/>
			<path fill="#FFFFFF" d="M34.881,496.878c0,0,3.863,1.095,3.115,1.662S34.881,496.878,34.881,496.878z"/>
			<path fill="#FFFFFF" d="M34.794,496.92c0,0,2.719,2.061,1.655,2.362C35.385,499.584,34.794,496.92,34.794,496.92z"/>
			<path fill="#FFFFFF" d="M34.688,496.934c0,0,1.023,2.61-0.141,2.584C33.383,499.492,34.688,496.934,34.688,496.934z"/>
			<path fill="#FFFFFF" d="M34.582,496.915c0,0-0.879,2.632-1.907,2.284S34.582,496.915,34.582,496.915z"/>
			<path fill="#FFFFFF" d="M34.499,496.87c0,0-2.603,2.12-3.287,1.521C30.526,497.792,34.499,496.87,34.499,496.87z"/>
			<path fill="#FFFFFF" d="M34.457,496.807c0,0-3.801,1.18-4.004,0.45C30.251,496.527,34.457,496.807,34.457,496.807z"/>
			<path fill="#FFFFFF" d="M34.463,496.737c0,0-4.229,0.001-3.909-0.712C30.874,495.313,34.463,496.737,34.463,496.737z"/>
			<path fill="#FFFFFF" d="M34.516,496.677c0,0-3.803-1.179-3.023-1.729C32.271,494.396,34.516,496.677,34.516,496.677z"/>
			<path fill="#FFFFFF" d="M34.574,496.655c0,0-2.638-2.103-1.563-2.388C34.087,493.983,34.574,496.655,34.574,496.655z"/>
			<ellipse fill="#FBD00C" cx="34.695" cy="496.779" rx="0.357" ry="0.228"/>
		</g>
		<g>
			<path fill="#FFFFFF" d="M20.568,484.394c0,0-1.165-2.586,0-2.586S20.568,484.394,20.568,484.394z"/>
			<path fill="#FFFFFF" d="M20.675,484.409c0,0,0.734-2.649,1.781-2.325C23.503,482.409,20.675,484.409,20.675,484.409z"/>
			<path fill="#FFFFFF" d="M20.759,484.452c0,0,2.486-2.176,3.204-1.592C24.68,483.444,20.759,484.452,20.759,484.452z"/>
			<path fill="#FFFFFF" d="M20.805,484.516c0,0,3.734-1.264,3.977-0.538C25.024,484.702,20.805,484.516,20.805,484.516z"/>
			<path fill="#FFFFFF" d="M20.804,484.585c0,0,4.226-0.095,3.944,0.625C24.467,485.929,20.804,484.585,20.804,484.585z"/>
			<path fill="#FFFFFF" d="M20.754,484.646c0,0,3.863,1.094,3.115,1.661C23.12,486.876,20.754,484.646,20.754,484.646z"/>
			<path fill="#FFFFFF" d="M20.667,484.688c0,0,2.719,2.061,1.655,2.362C21.258,487.352,20.667,484.688,20.667,484.688z"/>
			<path fill="#FFFFFF" d="M20.56,484.701c0,0,1.024,2.61-0.14,2.585S20.56,484.701,20.56,484.701z"/>
			<path fill="#FFFFFF" d="M20.455,484.684c0,0-0.879,2.632-1.907,2.284S20.455,484.684,20.455,484.684z"/>
			<path fill="#FFFFFF" d="M20.372,484.638c0,0-2.603,2.121-3.287,1.521C16.399,485.561,20.372,484.638,20.372,484.638z"/>
			<path fill="#FFFFFF" d="M20.33,484.574c0,0-3.801,1.181-4.004,0.451C16.123,484.295,20.33,484.574,20.33,484.574z"/>
			<path fill="#FFFFFF" d="M20.335,484.505c0,0-4.229,0.001-3.908-0.711C16.747,483.081,20.335,484.505,20.335,484.505z"/>
			<path fill="#FFFFFF" d="M20.388,484.444c0,0-3.802-1.178-3.022-1.729C18.144,482.164,20.388,484.444,20.388,484.444z"/>
			<path fill="#FFFFFF" d="M20.447,484.424c0,0-2.638-2.104-1.563-2.388C19.96,481.751,20.447,484.424,20.447,484.424z"/>
			<ellipse fill="#FBD00C" cx="20.568" cy="484.548" rx="0.357" ry="0.227"/>
		</g>
		<g>
			<path fill="#FFFFFF" d="M41.833,491.805c0,0-1.165-2.586,0-2.586S41.833,491.805,41.833,491.805z"/>
			<path fill="#FFFFFF" d="M41.939,491.82c0,0,0.734-2.648,1.781-2.324C44.768,489.821,41.939,491.82,41.939,491.82z"/>
			<path fill="#FFFFFF" d="M42.023,491.864c0,0,2.486-2.176,3.203-1.593C45.944,490.855,42.023,491.864,42.023,491.864z"/>
			<path fill="#FFFFFF" d="M42.069,491.927c0,0,3.734-1.263,3.977-0.538C46.289,492.113,42.069,491.927,42.069,491.927z"/>
			<path fill="#FFFFFF" d="M42.068,491.996c0,0,4.226-0.094,3.944,0.625C45.731,493.341,42.068,491.996,42.068,491.996z"/>
			<path fill="#FFFFFF" d="M42.019,492.059c0,0,3.863,1.094,3.115,1.661C44.385,494.288,42.019,492.059,42.019,492.059z"/>
			<path fill="#FFFFFF" d="M41.932,492.1c0,0,2.719,2.061,1.654,2.362C42.522,494.764,41.932,492.1,41.932,492.1z"/>
			<path fill="#FFFFFF" d="M41.824,492.113c0,0,1.024,2.61-0.14,2.585C40.521,494.672,41.824,492.113,41.824,492.113z"/>
			<path fill="#FFFFFF" d="M41.719,492.096c0,0-0.878,2.631-1.906,2.283C38.783,494.032,41.719,492.096,41.719,492.096z"/>
			<path fill="#FFFFFF" d="M41.637,492.05c0,0-2.603,2.12-3.287,1.521C37.664,492.972,41.637,492.05,41.637,492.05z"/>
			<path fill="#FFFFFF" d="M41.595,491.986c0,0-3.801,1.18-4.004,0.45S41.595,491.986,41.595,491.986z"/>
			<path fill="#FFFFFF" d="M41.6,491.917c0,0-4.229,0.001-3.908-0.711C38.012,490.493,41.6,491.917,41.6,491.917z"/>
			<path fill="#FFFFFF" d="M41.652,491.856c0,0-3.802-1.179-3.023-1.729C39.408,489.576,41.652,491.856,41.652,491.856z"/>
			<path fill="#FFFFFF" d="M41.712,491.835c0,0-2.638-2.103-1.563-2.387C41.225,489.163,41.712,491.835,41.712,491.835z"/>
			<ellipse fill="#FBD00C" cx="41.833" cy="491.959" rx="0.357" ry="0.228"/>
		</g>
		<g>
			<path fill="#FFFFFF" d="M20.913,502.662c0,0-1.165-2.586,0-2.586S20.913,502.662,20.913,502.662z"/>
			<path fill="#FFFFFF" d="M21.02,502.678c0,0,0.734-2.649,1.781-2.324C23.848,500.678,21.02,502.678,21.02,502.678z"/>
			<path fill="#FFFFFF" d="M21.104,502.722c0,0,2.486-2.177,3.204-1.593C25.024,501.713,21.104,502.722,21.104,502.722z"/>
			<path fill="#FFFFFF" d="M21.15,502.784c0,0,3.733-1.263,3.976-0.538C25.369,502.971,21.15,502.784,21.15,502.784z"/>
			<path fill="#FFFFFF" d="M21.148,502.854c0,0,4.227-0.094,3.944,0.625C24.812,504.197,21.148,502.854,21.148,502.854z"/>
			<path fill="#FFFFFF" d="M21.099,502.915c0,0,3.863,1.095,3.115,1.662C23.465,505.145,21.099,502.915,21.099,502.915z"/>
			<path fill="#FFFFFF" d="M21.012,502.957c0,0,2.719,2.061,1.655,2.362C21.603,505.621,21.012,502.957,21.012,502.957z"/>
			<path fill="#FFFFFF" d="M20.904,502.971c0,0,1.024,2.609-0.14,2.584S20.904,502.971,20.904,502.971z"/>
			<path fill="#FFFFFF" d="M20.8,502.952c0,0-0.879,2.632-1.907,2.284C17.863,504.889,20.8,502.952,20.8,502.952z"/>
			<path fill="#FFFFFF" d="M20.717,502.907c0,0-2.603,2.12-3.287,1.521C16.744,503.829,20.717,502.907,20.717,502.907z"/>
			<path fill="#FFFFFF" d="M20.675,502.843c0,0-3.801,1.181-4.004,0.451S20.675,502.843,20.675,502.843z"/>
			<path fill="#FFFFFF" d="M20.68,502.773c0,0-4.229,0.002-3.908-0.711C17.092,501.351,20.68,502.773,20.68,502.773z"/>
			<path fill="#FFFFFF" d="M20.732,502.713c0,0-3.802-1.178-3.022-1.729C18.488,500.434,20.732,502.713,20.732,502.713z"/>
			<path fill="#FFFFFF" d="M20.792,502.692c0,0-2.638-2.103-1.563-2.388C20.305,500.021,20.792,502.692,20.792,502.692z"/>
			<ellipse fill="#FBD00C" cx="20.913" cy="502.816" rx="0.357" ry="0.228"/>
		</g>
		<g>
			<path fill="#FFFFFF" d="M35.226,503.976c0,0-1.165-2.586,0-2.586S35.226,503.976,35.226,503.976z"/>
			<path fill="#FFFFFF" d="M35.332,503.991c0,0,0.735-2.648,1.782-2.324C38.161,501.992,35.332,503.991,35.332,503.991z"/>
			<path fill="#FFFFFF" d="M35.417,504.035c0,0,2.485-2.176,3.203-1.593C39.337,503.026,35.417,504.035,35.417,504.035z"/>
			<path fill="#FFFFFF" d="M35.463,504.098c0,0,3.734-1.263,3.977-0.538S35.463,504.098,35.463,504.098z"/>
			<path fill="#FFFFFF" d="M35.461,504.167c0,0,4.227-0.094,3.945,0.625C39.124,505.512,35.461,504.167,35.461,504.167z"/>
			<path fill="#FFFFFF" d="M35.411,504.229c0,0,3.864,1.094,3.115,1.661C37.778,506.459,35.411,504.229,35.411,504.229z"/>
			<path fill="#FFFFFF" d="M35.324,504.271c0,0,2.719,2.061,1.655,2.362C35.915,506.935,35.324,504.271,35.324,504.271z"/>
			<path fill="#FFFFFF" d="M35.218,504.284c0,0,1.023,2.61-0.141,2.585C33.913,506.843,35.218,504.284,35.218,504.284z"/>
			<path fill="#FFFFFF" d="M35.112,504.267c0,0-0.878,2.631-1.907,2.283C32.177,506.203,35.112,504.267,35.112,504.267z"/>
			<path fill="#FFFFFF" d="M35.03,504.221c0,0-2.603,2.12-3.288,1.521C31.057,505.143,35.03,504.221,35.03,504.221z"/>
			<path fill="#FFFFFF" d="M34.987,504.157c0,0-3.801,1.18-4.003,0.45C30.781,503.878,34.987,504.157,34.987,504.157z"/>
			<path fill="#FFFFFF" d="M34.993,504.088c0,0-4.229,0.001-3.909-0.711C31.404,502.664,34.993,504.088,34.993,504.088z"/>
			<path fill="#FFFFFF" d="M35.046,504.027c0,0-3.803-1.179-3.023-1.729C32.801,501.747,35.046,504.027,35.046,504.027z"/>
			<path fill="#FFFFFF" d="M35.104,504.006c0,0-2.638-2.103-1.563-2.387C34.617,501.334,35.104,504.006,35.104,504.006z"/>
			<ellipse fill="#FBD00C" cx="35.226" cy="504.13" rx="0.357" ry="0.228"/>
		</g>
		<g>
			<path fill="#FFFFFF" d="M42.959,483.939c0,0-1.165-2.587,0-2.587S42.959,483.939,42.959,483.939z"/>
			<path fill="#FFFFFF" d="M43.065,483.955c0,0,0.734-2.649,1.781-2.325C45.895,481.955,43.065,483.955,43.065,483.955z"/>
			<path fill="#FFFFFF" d="M43.149,483.998c0,0,2.486-2.176,3.204-1.592C47.07,482.989,43.149,483.998,43.149,483.998z"/>
			<path fill="#FFFFFF" d="M43.196,484.062c0,0,3.733-1.264,3.976-0.539C47.415,484.248,43.196,484.062,43.196,484.062z"/>
			<path fill="#FFFFFF" d="M43.194,484.131c0,0,4.227-0.095,3.944,0.625C46.857,485.475,43.194,484.131,43.194,484.131z"/>
			<path fill="#FFFFFF" d="M43.145,484.192c0,0,3.863,1.094,3.115,1.661C45.511,486.422,43.145,484.192,43.145,484.192z"/>
			<path fill="#FFFFFF" d="M43.058,484.234c0,0,2.719,2.06,1.655,2.361C43.648,486.897,43.058,484.234,43.058,484.234z"/>
			<path fill="#FFFFFF" d="M42.95,484.247c0,0,1.024,2.61-0.14,2.585S42.95,484.247,42.95,484.247z"/>
			<path fill="#FFFFFF" d="M42.846,484.229c0,0-0.879,2.631-1.907,2.284C39.91,486.166,42.846,484.229,42.846,484.229z"/>
			<path fill="#FFFFFF" d="M42.763,484.184c0,0-2.603,2.121-3.287,1.521C38.79,485.105,42.763,484.184,42.763,484.184z"/>
			<path fill="#FFFFFF" d="M42.721,484.12c0,0-3.801,1.181-4.004,0.45C38.514,483.841,42.721,484.12,42.721,484.12z"/>
			<path fill="#FFFFFF" d="M42.726,484.051c0,0-4.229,0.001-3.908-0.711C39.138,482.627,42.726,484.051,42.726,484.051z"/>
			<path fill="#FFFFFF" d="M42.779,483.99c0,0-3.803-1.178-3.023-1.729C40.534,481.71,42.779,483.99,42.779,483.99z"/>
			<path fill="#FFFFFF" d="M42.838,483.969c0,0-2.638-2.103-1.563-2.387C42.351,481.297,42.838,483.969,42.838,483.969z"/>
			<ellipse fill="#FBD00C" cx="42.959" cy="484.093" rx="0.357" ry="0.228"/>
		</g>
		<g>
			<path fill="#FBAB18" d="M57.923,476.091c-0.775-0.813-1.328-2.352-1.163-4.551c0.177-2.36,0.748-4.445,1.308-6.459
				c0.313-1.127,0.625-2.253,0.938-3.38c0.78,3.029,0.731,7.102-0.12,10.025c0.199-0.043,0.492-0.075,0.677,0.109
				c0.093,0.092,0.169,0.255,0.24,0.422c0.476,1.117,0.813,2.548,0.963,4.08c-0.661,0.365-1.351,0.57-2.022,0.316
				C58.457,476.546,58.178,476.357,57.923,476.091z"/>
			<path fill="#FFC519" d="M59.5,476.091c-1.802-0.813-3.084-2.352-2.702-4.551c0.411-2.36,1.738-4.445,3.036-6.459
				c0.727-1.127,1.452-2.253,2.179-3.38c1.81,3.029,1.696,7.102-0.278,10.025c0.462-0.043,1.142-0.075,1.571,0.109
				c0.216,0.092,0.392,0.255,0.558,0.422c1.104,1.117,1.888,2.548,2.234,4.08c-1.536,0.365-3.137,0.57-4.694,0.316
				C60.739,476.546,60.092,476.357,59.5,476.091z"/>
		</g>
		<g>
			<path fill="#5E8CBC" d="M40.33,469.662c-0.522-0.059-1.183-0.445-1.784-1.285c-0.646-0.9-1.066-1.821-1.471-2.713
				c-0.226-0.498-0.452-0.997-0.678-1.495c1.189,0.854,2.396,2.331,2.968,3.637c0.059-0.075,0.154-0.175,0.275-0.164
				c0.062,0.006,0.138,0.041,0.214,0.08c0.506,0.258,1.058,0.671,1.571,1.176c-0.128,0.33-0.314,0.61-0.632,0.722
				C40.659,469.666,40.502,469.682,40.33,469.662z"/>
			<path fill="#93B5DF" d="M40.896,469.188c-0.891,0.25-1.813,0.082-2.337-0.823c-0.562-0.971-0.711-2.118-0.85-3.231
				c-0.077-0.623-0.155-1.246-0.232-1.868c1.56,0.544,2.742,2.041,2.911,3.685c0.153-0.154,0.388-0.37,0.597-0.433
				c0.105-0.032,0.218-0.026,0.328-0.016c0.731,0.069,1.443,0.348,2.028,0.794c-0.442,0.593-0.956,1.146-1.592,1.523
				C41.479,468.98,41.189,469.106,40.896,469.188z"/>
		</g>
	</g>
</g>
</svg>
