<?xml version="1.0" encoding="utf-8"?>
<!-- Generator: Adobe Illustrator 16.0.0, SVG Export Plug-In . SVG Version: 6.00 Build 0)  -->
<!DOCTYPE svg PUBLIC "-//W3C//DTD SVG 1.1//EN" "http://www.w3.org/Graphics/SVG/1.1/DTD/svg11.dtd">
<svg version="1.1" id="Calque_1" xmlns="http://www.w3.org/2000/svg" xmlns:xlink="http://www.w3.org/1999/xlink" x="0px" y="0px"
	 width="871.331px" height="124.676px" viewBox="0 0 871.331 124.676" enable-background="new 0 0 871.331 124.676"
	 xml:space="preserve">
<g>
	<path fill="#FFFFFF" d="M40.734,107.073c-1.237-2.148-2.246-4.947-3.027-8.398c-0.781-3.45-1.45-7.031-2.002-10.742
		c-0.554-3.711-1.01-7.227-1.367-10.547c-0.358-3.32-0.732-5.923-1.123-7.813V47.112c0-0.977,0.406-1.871,1.221-2.686
		c0.813-0.813,1.675-1.221,2.588-1.221c0.13,0,0.342,0.017,0.635,0.049c0.293,0.034,0.472,0.049,0.537,0.049
		c0.391,2.344,0.65,4.736,0.781,7.178c0.13,2.441,0.276,4.883,0.439,7.324c0.162,2.441,0.423,4.868,0.781,7.275
		c0.357,2.409,0.96,4.753,1.807,7.031c1.431,0.327,2.93,0.571,4.492,0.732c1.563,0.163,3.384,0.31,5.469,0.439
		c2.278,0,4.736-0.374,7.373-1.123c2.637-0.748,5.093-1.822,7.373-3.223c2.278-1.399,4.166-3.108,5.664-5.127
		c1.497-2.017,2.246-4.297,2.246-6.836c0-2.734-0.896-5.176-2.686-7.324c-1.792-2.148-4.118-4.053-6.982-5.713
		c-2.866-1.66-6.04-3.091-9.521-4.297c-3.483-1.204-6.901-2.181-10.254-2.93c-3.354-0.748-6.462-1.302-9.326-1.66
		c-2.866-0.357-5.078-0.537-6.641-0.537c-0.522,0-1.481-0.032-2.881-0.098c-1.401-0.064-2.93-0.081-4.59-0.049
		c-1.66,0.034-3.271,0.146-4.834,0.342s-2.8,0.554-3.711,1.074c-0.781,0.456-1.499,1.237-2.148,2.344
		c-0.651,1.108-1.286,2.246-1.904,3.418c-0.62,1.172-1.254,2.197-1.904,3.076C6.586,45.5,5.871,45.94,5.089,45.94
		c-0.131,0-0.229-0.032-0.293-0.098c-0.065,0-0.163-0.032-0.293-0.098c-0.131-0.064-0.261-0.195-0.391-0.391
		c-0.131-0.195-0.261-0.635-0.391-1.318c-0.131-0.684-0.244-1.675-0.342-2.979c-0.098-1.302-0.146-3.06-0.146-5.273
		c0-0.977,0.472-1.871,1.416-2.686c0.943-0.813,2.164-1.546,3.662-2.197c1.497-0.65,3.125-1.204,4.883-1.66
		c1.758-0.455,3.433-0.845,5.029-1.172c1.595-0.325,3.011-0.569,4.248-0.732c1.236-0.162,2.083-0.244,2.539-0.244
		c2.93,0,6.38,0.18,10.352,0.537c3.97,0.358,8.057,0.993,12.256,1.904c4.199,0.913,8.365,2.116,12.5,3.613
		c4.134,1.499,7.813,3.369,11.035,5.615s5.843,4.932,7.861,8.057c2.017,3.125,3.027,6.738,3.027,10.84
		c0.455,2.93-0.049,5.632-1.514,8.105c-1.465,2.475-3.483,4.688-6.055,6.641c-2.573,1.953-5.469,3.647-8.691,5.078
		c-3.223,1.433-6.348,2.556-9.375,3.369c-3.027,0.815-5.762,1.335-8.203,1.563c-2.441,0.229-4.118,0.114-5.029-0.342v1.172
		c0,3.061,0.244,6.055,0.732,8.984s0.732,5.925,0.732,8.984c0,0.327-0.034,0.864-0.098,1.611c-0.065,0.749-0.244,1.465-0.537,2.148
		s-0.7,1.254-1.221,1.709C42.263,107.137,41.579,107.268,40.734,107.073z"/>
	<path fill="#FFFFFF" d="M86.925,70.745C86.73,66.97,87.218,63.42,88.39,60.1s2.864-6.25,5.078-8.789
		c2.212-2.539,4.883-4.573,8.008-6.104c3.125-1.529,6.543-2.457,10.254-2.783c6.509,0.977,12.728,2.637,18.652,4.98
		c5.923,2.344,11.182,5.339,15.771,8.984c4.59,3.647,8.316,7.91,11.182,12.793c2.864,4.883,4.458,10.352,4.785,16.406
		c-0.847,4.492-2.637,8.042-5.371,10.645c-2.734,2.604-5.925,4.639-9.57,6.104c-3.647,1.465-7.52,2.507-11.621,3.125
		c-4.102,0.62-7.91,1.188-11.426,1.709c-5.405,0-10.385-0.879-14.941-2.637c-4.558-1.758-8.481-4.214-11.768-7.373
		c-3.288-3.157-5.859-6.982-7.715-11.475S86.925,76.213,86.925,70.745z M93.078,70.159c-0.065,3.972,0.796,7.683,2.588,11.133
		c1.79,3.452,4.117,6.494,6.982,9.131c2.864,2.637,6.07,4.802,9.619,6.494c3.548,1.694,7.08,2.8,10.596,3.32
		c1.172,0,2.767-0.098,4.785-0.293c2.017-0.195,4.199-0.537,6.543-1.025s4.72-1.138,7.129-1.953c2.408-0.813,4.59-1.807,6.543-2.979
		s3.548-2.554,4.785-4.15c1.236-1.595,1.855-3.433,1.855-5.518c-0.586-4.297-1.904-8.154-3.955-11.572s-4.541-6.429-7.471-9.033
		c-2.93-2.603-6.137-4.817-9.619-6.641c-3.483-1.822-6.918-3.271-10.303-4.346c-3.386-1.074-6.56-1.773-9.521-2.1
		c-2.963-0.325-5.388-0.325-7.275,0c-2.67,0.977-4.868,2.231-6.592,3.76c-1.726,1.53-3.076,3.174-4.053,4.932
		s-1.66,3.564-2.051,5.42S93.078,68.401,93.078,70.159z"/>
	<path fill="#FFFFFF" d="M205.871,107.073c-1.237-2.148-2.246-4.947-3.027-8.398c-0.781-3.45-1.45-7.031-2.002-10.742
		c-0.554-3.711-1.01-7.227-1.367-10.547c-0.358-3.32-0.732-5.923-1.123-7.813V47.112c0-0.977,0.406-1.871,1.221-2.686
		c0.813-0.813,1.675-1.221,2.588-1.221c0.13,0,0.342,0.017,0.635,0.049c0.293,0.034,0.472,0.049,0.537,0.049
		c0.391,2.344,0.65,4.736,0.781,7.178c0.13,2.441,0.276,4.883,0.439,7.324c0.162,2.441,0.423,4.868,0.781,7.275
		c0.357,2.409,0.96,4.753,1.807,7.031c1.431,0.327,2.93,0.571,4.492,0.732c1.563,0.163,3.384,0.31,5.469,0.439
		c2.278,0,4.736-0.374,7.373-1.123c2.637-0.748,5.093-1.822,7.373-3.223c2.278-1.399,4.166-3.108,5.664-5.127
		c1.497-2.017,2.246-4.297,2.246-6.836c0-2.734-0.896-5.176-2.686-7.324c-1.792-2.148-4.118-4.053-6.982-5.713
		c-2.866-1.66-6.04-3.091-9.521-4.297c-3.483-1.204-6.901-2.181-10.254-2.93c-3.354-0.748-6.462-1.302-9.326-1.66
		c-2.866-0.357-5.078-0.537-6.641-0.537c-0.522,0-1.481-0.032-2.881-0.098c-1.401-0.064-2.93-0.081-4.59-0.049
		c-1.66,0.034-3.271,0.146-4.834,0.342s-2.8,0.554-3.711,1.074c-0.781,0.456-1.499,1.237-2.148,2.344
		c-0.651,1.108-1.286,2.246-1.904,3.418c-0.62,1.172-1.254,2.197-1.904,3.076c-0.651,0.879-1.367,1.318-2.148,1.318
		c-0.131,0-0.229-0.032-0.293-0.098c-0.065,0-0.163-0.032-0.293-0.098c-0.131-0.064-0.261-0.195-0.391-0.391
		c-0.131-0.195-0.261-0.635-0.391-1.318c-0.131-0.684-0.244-1.675-0.342-2.979c-0.098-1.302-0.146-3.06-0.146-5.273
		c0-0.977,0.472-1.871,1.416-2.686c0.943-0.813,2.164-1.546,3.662-2.197c1.497-0.65,3.125-1.204,4.883-1.66
		c1.758-0.455,3.433-0.845,5.029-1.172c1.595-0.325,3.011-0.569,4.248-0.732c1.236-0.162,2.083-0.244,2.539-0.244
		c2.93,0,6.38,0.18,10.352,0.537c3.97,0.358,8.057,0.993,12.256,1.904c4.199,0.913,8.365,2.116,12.5,3.613
		c4.134,1.499,7.813,3.369,11.035,5.615s5.843,4.932,7.861,8.057c2.017,3.125,3.027,6.738,3.027,10.84
		c0.455,2.93-0.049,5.632-1.514,8.105c-1.465,2.475-3.483,4.688-6.055,6.641c-2.573,1.953-5.469,3.647-8.691,5.078
		c-3.223,1.433-6.348,2.556-9.375,3.369c-3.027,0.815-5.762,1.335-8.203,1.563c-2.441,0.229-4.118,0.114-5.029-0.342v1.172
		c0,3.061,0.244,6.055,0.732,8.984s0.732,5.925,0.732,8.984c0,0.327-0.034,0.864-0.098,1.611c-0.065,0.749-0.244,1.465-0.537,2.148
		s-0.7,1.254-1.221,1.709C207.399,107.137,206.716,107.268,205.871,107.073z"/>
	<path fill="#FFFFFF" d="M253.332,56.292c0-0.781,0.015-1.855,0.049-3.223c0.032-1.367,0.113-2.847,0.244-4.443
		c0.13-1.595,0.374-3.238,0.732-4.932c0.357-1.692,0.862-3.206,1.514-4.541c0.65-1.333,1.497-2.441,2.539-3.32
		c1.041-0.879,2.31-1.318,3.809-1.318c0.977,0,1.724,0.261,2.246,0.781c0.521,0.522,0.813,1.157,0.879,1.904
		c0.064,0.749-0.163,1.563-0.684,2.441c-0.522,0.879-1.335,1.677-2.441,2.393c-0.781,0-1.352,0.571-1.709,1.709
		c-0.358,1.14-0.62,2.409-0.781,3.809c-0.163,1.401-0.244,2.751-0.244,4.053c0,1.303,0,2.084,0,2.344
		c0,2.214,0.098,4.802,0.293,7.764c0.195,2.963,0.552,6.04,1.074,9.229c0.521,3.19,1.27,6.348,2.246,9.473s2.261,5.957,3.857,8.496
		c1.595,2.539,3.531,4.672,5.811,6.396c2.278,1.726,5.013,2.719,8.203,2.979c2.474,0.195,5.306-0.244,8.496-1.318
		c3.189-1.074,6.185-2.588,8.984-4.541c2.798-1.953,5.159-4.214,7.08-6.787c1.919-2.571,2.881-5.225,2.881-7.959v-0.586
		c-0.586-3.646-1.188-6.689-1.807-9.131c-0.62-2.441-1.172-4.654-1.66-6.641c-0.488-1.985-0.879-4.004-1.172-6.055
		s-0.439-4.507-0.439-7.373c0.259-4.036,0.699-7.015,1.318-8.936c0.618-1.919,1.285-2.994,2.002-3.223
		c0.716-0.228,1.465,0.278,2.246,1.514c0.781,1.237,1.465,3.012,2.051,5.322c0.586,2.312,1.025,5.046,1.318,8.203
		c0.293,3.159,0.374,6.528,0.244,10.107c0.064,2.604,0.552,5.469,1.465,8.594c0.911,3.125,1.937,6.25,3.076,9.375
		c1.138,3.125,2.295,6.152,3.467,9.082s2.066,5.518,2.686,7.764c0.618,2.246,0.796,4.069,0.537,5.469
		c-0.261,1.401-1.206,2.1-2.832,2.1c-1.694,0-2.979-0.521-3.857-1.563c-0.879-1.041-1.628-2.197-2.246-3.467
		c-0.62-1.27-1.237-2.425-1.855-3.467c-0.62-1.041-1.481-1.563-2.588-1.563c-0.847,0-1.889,0.342-3.125,1.025
		c-1.237,0.684-2.622,1.547-4.15,2.588c-1.53,1.042-3.174,2.165-4.932,3.369c-1.758,1.206-3.598,2.329-5.518,3.369
		c-1.921,1.042-3.891,1.904-5.908,2.588c-2.019,0.684-4.038,1.025-6.055,1.025c-3.711,0-6.967-0.894-9.766-2.686
		c-2.8-1.79-5.209-4.117-7.227-6.982c-2.019-2.864-3.696-6.136-5.029-9.814c-1.335-3.677-2.393-7.388-3.174-11.133
		c-0.781-3.743-1.335-7.388-1.66-10.938C253.493,62.07,253.332,58.962,253.332,56.292z"/>
	<path fill="#FFFFFF" d="M365.929,107.073c-1.237-2.148-2.246-4.947-3.027-8.398c-0.781-3.45-1.45-7.031-2.002-10.742
		c-0.554-3.711-1.01-7.227-1.367-10.547c-0.358-3.32-0.732-5.923-1.123-7.813V47.112c0-0.977,0.406-1.871,1.221-2.686
		c0.813-0.813,1.675-1.221,2.588-1.221c0.13,0,0.342,0.017,0.635,0.049c0.293,0.034,0.472,0.049,0.537,0.049
		c0.391,2.344,0.65,4.736,0.781,7.178c0.13,2.441,0.276,4.883,0.439,7.324c0.162,2.441,0.423,4.868,0.781,7.275
		c0.357,2.409,0.96,4.753,1.807,7.031c1.431,0.327,2.93,0.571,4.492,0.732c1.563,0.163,3.384,0.31,5.469,0.439
		c2.278,0,4.736-0.374,7.373-1.123c2.637-0.748,5.093-1.822,7.373-3.223c2.278-1.399,4.166-3.108,5.664-5.127
		c1.497-2.017,2.246-4.297,2.246-6.836c0-2.734-0.896-5.176-2.686-7.324c-1.792-2.148-4.118-4.053-6.982-5.713
		c-2.866-1.66-6.04-3.091-9.521-4.297c-3.483-1.204-6.901-2.181-10.254-2.93c-3.354-0.748-6.462-1.302-9.326-1.66
		c-2.866-0.357-5.078-0.537-6.641-0.537c-0.522,0-1.481-0.032-2.881-0.098c-1.401-0.064-2.93-0.081-4.59-0.049
		c-1.66,0.034-3.271,0.146-4.834,0.342s-2.8,0.554-3.711,1.074c-0.781,0.456-1.499,1.237-2.148,2.344
		c-0.651,1.108-1.286,2.246-1.904,3.418c-0.62,1.172-1.254,2.197-1.904,3.076c-0.651,0.879-1.367,1.318-2.148,1.318
		c-0.131,0-0.229-0.032-0.293-0.098c-0.065,0-0.163-0.032-0.293-0.098c-0.131-0.064-0.261-0.195-0.391-0.391
		c-0.131-0.195-0.261-0.635-0.391-1.318c-0.131-0.684-0.244-1.675-0.342-2.979c-0.098-1.302-0.146-3.06-0.146-5.273
		c0-0.977,0.472-1.871,1.416-2.686c0.943-0.813,2.164-1.546,3.662-2.197c1.497-0.65,3.125-1.204,4.883-1.66
		c1.758-0.455,3.433-0.845,5.029-1.172c1.595-0.325,3.011-0.569,4.248-0.732c1.236-0.162,2.083-0.244,2.539-0.244
		c2.93,0,6.38,0.18,10.352,0.537c3.97,0.358,8.057,0.993,12.256,1.904c4.199,0.913,8.365,2.116,12.5,3.613
		c4.134,1.499,7.813,3.369,11.035,5.615s5.843,4.932,7.861,8.057c2.017,3.125,3.027,6.738,3.027,10.84
		c0.455,2.93-0.049,5.632-1.514,8.105c-1.465,2.475-3.483,4.688-6.055,6.641c-2.573,1.953-5.469,3.647-8.691,5.078
		c-3.223,1.433-6.348,2.556-9.375,3.369c-3.027,0.815-5.762,1.335-8.203,1.563c-2.441,0.229-4.118,0.114-5.029-0.342v1.172
		c0,3.061,0.244,6.055,0.732,8.984s0.732,5.925,0.732,8.984c0,0.327-0.034,0.864-0.098,1.611c-0.065,0.749-0.244,1.465-0.537,2.148
		s-0.7,1.254-1.221,1.709C367.458,107.137,366.774,107.268,365.929,107.073z"/>
	<path fill="#FFFFFF" d="M450.792,34.709c-6.12,0-12.402-0.423-18.848-1.27c-6.445-0.845-12.598-1.724-18.457-2.637
		c-0.781,0.131-1.384,0-1.807-0.391c-0.424-0.391-0.766-0.894-1.025-1.514c-0.261-0.618-0.424-1.236-0.488-1.855
		c-0.065-0.618-0.098-1.123-0.098-1.514c1.302,0,3.548,0.017,6.738,0.049c3.189,0.034,6.982,0.083,11.377,0.146
		c4.395,0.065,9.18,0.195,14.355,0.391s10.367,0.456,15.576,0.781c5.208,0.327,10.254,0.732,15.137,1.221s9.195,1.091,12.939,1.807
		c3.743,0.717,6.738,1.547,8.984,2.49c2.246,0.944,3.369,2.036,3.369,3.271c0,0.913-0.131,1.807-0.391,2.686
		c-0.261,0.879-0.944,1.318-2.051,1.318c-3.19-0.195-6.348-0.699-9.473-1.514c-3.125-0.813-6.25-1.578-9.375-2.295
		c-3.125-0.716-6.315-1.221-9.57-1.514c-3.256-0.293-6.577,0.049-9.961,1.025c0,4.038,0.228,8.432,0.684,13.184
		c0.455,4.753,1.025,9.619,1.709,14.6s1.431,9.946,2.246,14.893c0.813,4.948,1.611,9.604,2.393,13.965
		c0.195,1.108,0.569,2.197,1.123,3.271c0.552,1.074,1.123,2.116,1.709,3.125c0.586,1.01,1.106,2.036,1.563,3.076
		c0.455,1.042,0.684,2.084,0.684,3.125c0,0.717-0.212,1.254-0.635,1.611c-0.424,0.358-0.944,0.603-1.563,0.732
		c-0.62,0.13-1.27,0.195-1.953,0.195s-1.254,0-1.709,0c-1.758,0-3.125-0.684-4.102-2.051s-1.726-2.994-2.246-4.883
		c-0.522-1.888-0.879-3.824-1.074-5.811c-0.195-1.985-0.391-3.597-0.586-4.834c-0.717-4.751-1.318-9.375-1.807-13.867
		s-0.928-8.968-1.318-13.428c-0.391-4.458-0.732-8.968-1.025-13.525C451.525,44.216,451.183,39.528,450.792,34.709z"/>
	<path fill="#FFFFFF" d="M548.351,104.045c0-1.497,0.146-2.994,0.439-4.492c0.293-1.497,0.602-3.011,0.928-4.541
		c0.325-1.529,0.635-3.06,0.928-4.59c0.293-1.529,0.439-3.076,0.439-4.639c0-2.408-0.098-5.029-0.293-7.861
		s-0.651-5.484-1.367-7.959c-2.475,0.522-4.98,0.717-7.52,0.586c-2.539-0.13-5.095-0.374-7.666-0.732
		c-2.572-0.357-5.16-0.716-7.764-1.074c-2.604-0.357-5.209-0.537-7.813-0.537c-0.781,0-2.002,0.017-3.662,0.049
		c-1.66,0.034-3.386,0.098-5.176,0.195c-1.791,0.098-3.418,0.229-4.883,0.391c-1.465,0.163-2.36,0.407-2.686,0.732l-1.27,1.172
		c0,0.065-0.017,0.261-0.049,0.586c-0.034,0.327-0.049,0.7-0.049,1.123c0,0.424-0.017,0.847-0.049,1.27
		c-0.034,0.424-0.049,0.766-0.049,1.025c0,2.539,0.195,5.078,0.586,7.617s0.83,5.046,1.318,7.52
		c0.488,2.475,0.943,4.932,1.367,7.373c0.423,2.441,0.635,4.868,0.635,7.275v1.27c-1.303,1.172-2.475,1.563-3.516,1.172
		c-1.042-0.391-1.987-1.351-2.832-2.881c-0.847-1.529-1.547-3.482-2.1-5.859c-0.554-2.376-0.993-4.964-1.318-7.764
		c-0.327-2.798-0.505-5.679-0.537-8.643c-0.034-2.962,0.081-5.811,0.342-8.545c-0.195-0.195-0.537-0.586-1.025-1.172
		s-1.01-1.204-1.563-1.855c-0.554-0.65-1.059-1.285-1.514-1.904c-0.456-0.618-0.749-1.058-0.879-1.318
		c-0.065-0.13-0.098-0.228-0.098-0.293v-0.293c0-0.586,0.162-1.009,0.488-1.27c0.325-0.259,0.699-0.472,1.123-0.635
		c0.423-0.162,0.862-0.325,1.318-0.488c0.455-0.162,0.781-0.439,0.977-0.83c0-0.064,0-0.276,0-0.635c0-0.357,0-0.732,0-1.123
		s0-0.765,0-1.123c0-0.357,0-0.601,0-0.732c0.325-3.646,0.618-7.52,0.879-11.621c0.259-4.102,0.667-8.138,1.221-12.109
		c0.552-3.97,1.399-7.779,2.539-11.426c1.138-3.646,2.75-6.851,4.834-9.619c2.083-2.767,4.752-4.98,8.008-6.641
		c3.255-1.66,7.291-2.49,12.109-2.49c3.841,0,7.291,0.913,10.352,2.734c3.06,1.823,5.794,4.282,8.203,7.373
		c2.408,3.093,4.492,6.674,6.25,10.742c1.758,4.069,3.255,8.35,4.492,12.842c1.236,4.492,2.262,9.05,3.076,13.672
		c0.813,4.624,1.448,9.018,1.904,13.184c0.455,4.167,0.765,7.976,0.928,11.426c0.162,3.452,0.244,6.284,0.244,8.496
		c0,1.628-0.017,3.11-0.049,4.443c-0.033,1.335-0.098,2.637-0.195,3.906s-0.229,2.604-0.391,4.004
		c-0.163,1.401-0.407,2.979-0.732,4.736c-0.717,0.977-1.611,1.872-2.686,2.686c-1.074,0.815-2.263,1.221-3.564,1.221
		c-1.107,0-1.823-0.276-2.148-0.83C548.513,105.788,548.351,105.022,548.351,104.045z M545.324,64.69
		c0.26,0,0.569-0.032,0.928-0.098c0.357-0.064,0.684-0.293,0.977-0.684s0.569-1.009,0.83-1.855c0.26-0.845,0.455-2.051,0.586-3.613
		c0-2.539-0.229-5.452-0.684-8.74c-0.456-3.287-1.172-6.656-2.148-10.107c-0.977-3.45-2.214-6.819-3.711-10.107
		c-1.498-3.287-3.305-6.233-5.42-8.838c-2.116-2.603-4.525-4.703-7.227-6.299c-2.702-1.595-5.746-2.393-9.131-2.393
		c-3.581,0-6.592,0.944-9.033,2.832c-2.441,1.889-4.428,4.331-5.957,7.324c-1.53,2.995-2.702,6.364-3.516,10.107
		c-0.815,3.745-1.384,7.471-1.709,11.182c-0.327,3.711-0.505,7.211-0.537,10.498c-0.034,3.288-0.049,6.006-0.049,8.154
		L545.324,64.69z"/>
	<path fill="#FFFFFF" d="M603.331,34.709c-6.119,0-12.402-0.423-18.848-1.27c-6.445-0.845-12.597-1.724-18.457-2.637
		c-0.781,0.131-1.384,0-1.807-0.391c-0.424-0.391-0.766-0.894-1.025-1.514c-0.261-0.618-0.424-1.236-0.488-1.855
		c-0.065-0.618-0.098-1.123-0.098-1.514c1.302,0,3.548,0.017,6.738,0.049c3.189,0.034,6.982,0.083,11.377,0.146
		c4.394,0.065,9.179,0.195,14.355,0.391s10.367,0.456,15.576,0.781c5.209,0.327,10.254,0.732,15.137,1.221s9.195,1.091,12.939,1.807
		c3.744,0.717,6.738,1.547,8.984,2.49c2.246,0.944,3.369,2.036,3.369,3.271c0,0.913-0.131,1.807-0.391,2.686
		s-0.943,1.318-2.051,1.318c-3.189-0.195-6.348-0.699-9.473-1.514c-3.125-0.813-6.25-1.578-9.375-2.295
		c-3.125-0.716-6.314-1.221-9.57-1.514s-6.576,0.049-9.961,1.025c0,4.038,0.229,8.432,0.684,13.184
		c0.455,4.753,1.025,9.619,1.709,14.6s1.432,9.946,2.246,14.893c0.814,4.948,1.611,9.604,2.393,13.965
		c0.195,1.108,0.57,2.197,1.123,3.271s1.123,2.116,1.709,3.125c0.586,1.01,1.107,2.036,1.563,3.076
		c0.455,1.042,0.684,2.084,0.684,3.125c0,0.717-0.211,1.254-0.635,1.611c-0.424,0.358-0.943,0.603-1.563,0.732
		s-1.27,0.195-1.953,0.195s-1.254,0-1.709,0c-1.758,0-3.125-0.684-4.102-2.051s-1.725-2.994-2.246-4.883
		c-0.521-1.888-0.879-3.824-1.074-5.811c-0.195-1.985-0.391-3.597-0.586-4.834c-0.717-4.751-1.318-9.375-1.807-13.867
		s-0.928-8.968-1.318-13.428c-0.391-4.458-0.732-8.968-1.025-13.525C604.063,44.216,603.722,39.528,603.331,34.709z"/>
	<path fill="#FFFFFF" d="M642.198,70.745c-0.195-3.775,0.293-7.324,1.465-10.645s2.865-6.25,5.078-8.789s4.883-4.573,8.008-6.104
		c3.125-1.529,6.543-2.457,10.254-2.783c6.51,0.977,12.729,2.637,18.652,4.98s11.182,5.339,15.771,8.984
		c4.59,3.647,8.316,7.91,11.182,12.793s4.459,10.352,4.785,16.406c-0.846,4.492-2.637,8.042-5.371,10.645
		c-2.734,2.604-5.924,4.639-9.57,6.104s-7.52,2.507-11.621,3.125c-4.102,0.62-7.91,1.188-11.426,1.709
		c-5.404,0-10.385-0.879-14.941-2.637s-8.48-4.214-11.768-7.373c-3.287-3.157-5.859-6.982-7.715-11.475
		S642.198,76.213,642.198,70.745z M648.351,70.159c-0.064,3.972,0.797,7.683,2.588,11.133c1.791,3.452,4.117,6.494,6.982,9.131
		s6.07,4.802,9.619,6.494c3.549,1.694,7.08,2.8,10.596,3.32c1.172,0,2.768-0.098,4.785-0.293s4.199-0.537,6.543-1.025
		s4.721-1.138,7.129-1.953c2.408-0.813,4.59-1.807,6.543-2.979s3.549-2.554,4.785-4.15c1.236-1.595,1.855-3.433,1.855-5.518
		c-0.586-4.297-1.904-8.154-3.955-11.572s-4.541-6.429-7.471-9.033c-2.93-2.603-6.137-4.817-9.619-6.641
		c-3.482-1.822-6.918-3.271-10.303-4.346s-6.559-1.773-9.521-2.1c-2.963-0.325-5.387-0.325-7.275,0
		c-2.67,0.977-4.867,2.231-6.592,3.76c-1.725,1.53-3.076,3.174-4.053,4.932s-1.66,3.564-2.051,5.42S648.351,68.401,648.351,70.159z"
		/>
	<path fill="#FFFFFF" d="M733.312,32.952c-0.391,0-0.684-0.032-0.879-0.098c0.391,0.781,0.586,1.367,0.586,1.758v23.633
		c0.455,0.651,1.725,0.977,3.809,0.977s4.557-0.146,7.422-0.439s5.908-0.716,9.131-1.27c3.223-0.552,6.217-1.074,8.984-1.563
		s5.078-0.879,6.934-1.172s2.881-0.374,3.076-0.244c0.26,0,0.766-0.032,1.514-0.098c0.748-0.064,1.547-0.13,2.393-0.195
		c0.846-0.064,1.627-0.113,2.344-0.146c0.717-0.032,1.205-0.049,1.465-0.049c0,2.084-1.139,3.776-3.418,5.078
		c-2.279,1.303-5.16,2.312-8.643,3.027c-3.482,0.717-7.242,1.254-11.279,1.611c-4.037,0.358-7.828,0.668-11.377,0.928
		c-3.549,0.261-6.543,0.554-8.984,0.879c-2.441,0.327-3.76,0.815-3.955,1.465c-0.521,1.433-0.879,2.995-1.074,4.688
		c-0.195,1.694-0.326,3.435-0.391,5.225c-0.064,1.792-0.082,3.564-0.049,5.322s0.049,3.354,0.049,4.785c0,0.391,0,0.993,0,1.807
		c0,0.815,0.016,1.694,0.049,2.637c0.033,0.944,0.049,1.823,0.049,2.637c0,0.815,0,1.352,0,1.611
		c0.391,0.913,1.172,1.579,2.344,2.002c1.172,0.424,2.441,0.684,3.809,0.781s2.686,0.114,3.955,0.049
		c1.27-0.064,2.197-0.098,2.783-0.098c2.93,0,5.875-0.146,8.838-0.439s5.908-0.601,8.838-0.928c2.93-0.325,5.859-0.635,8.789-0.928
		s5.859-0.439,8.789-0.439h0.684c0.195,0.065,0.473,0.146,0.83,0.244s0.732,0.229,1.123,0.391c0.391,0.163,0.748,0.31,1.074,0.439
		c0.326,0.131,0.553,0.229,0.684,0.293c0.195,0.065,0.455,0.244,0.781,0.537s0.488,0.505,0.488,0.635
		c0,1.628-0.912,2.979-2.734,4.053s-4.117,1.938-6.885,2.588c-2.768,0.651-5.811,1.14-9.131,1.465
		c-3.32,0.327-6.479,0.537-9.473,0.635s-5.6,0.146-7.813,0.146s-3.613,0-4.199,0c-3.516,0-6.592-0.293-9.229-0.879
		s-4.834-1.595-6.592-3.027c-1.758-1.431-3.076-3.384-3.955-5.859c-0.879-2.474-1.318-5.566-1.318-9.277
		c0-3.32,0.244-6.624,0.732-9.912c0.488-3.287,0.732-6.656,0.732-10.107c0-1.431-0.229-2.603-0.684-3.516
		c-0.455-0.911-0.684-1.953-0.684-3.125v-0.684c0.131-0.13,0.424-0.537,0.879-1.221s0.781-1.123,0.977-1.318V29.534
		c0-1.431,0.162-2.49,0.488-3.174s1.059-1.155,2.197-1.416c1.139-0.259,2.783-0.357,4.932-0.293c2.148,0.065,5.063,0.18,8.74,0.342
		c3.678,0.163,8.236,0.31,13.672,0.439c5.436,0.131,11.996,0.131,19.678,0c0.846,0.391,1.725,0.781,2.637,1.172
		s1.725,0.879,2.441,1.465s1.303,1.27,1.758,2.051s0.684,1.726,0.684,2.832c0,0.261-0.162,0.571-0.488,0.928
		c-0.326,0.358-0.586,0.505-0.781,0.439l-6.25-2.539L733.312,32.952z"/>
	<path fill="#FFFFFF" d="M793.663,83.928c0-0.845,0.18-1.773,0.537-2.783c0.357-1.009,0.846-1.968,1.465-2.881
		c0.619-0.911,1.352-1.675,2.197-2.295c0.846-0.618,1.758-0.928,2.734-0.928c0,5.664,1.01,10.124,3.027,13.379
		c2.018,3.256,4.77,5.747,8.252,7.471c3.482,1.726,7.52,2.881,12.109,3.467s9.457,1.042,14.6,1.367
		c1.758-0.064,4.037-0.13,6.836-0.195c2.799-0.064,5.502-0.374,8.105-0.928c2.604-0.552,4.818-1.497,6.641-2.832
		c1.822-1.333,2.67-3.335,2.539-6.006c0-1.236-0.033-2.327-0.098-3.271c-0.064-0.943-0.26-1.79-0.586-2.539
		c-0.326-0.748-0.846-1.448-1.563-2.1c-0.717-0.65-1.725-1.333-3.027-2.051l-38.77-21.191c-1.432-0.781-2.768-1.758-4.004-2.93
		s-2.311-2.457-3.223-3.857c-0.912-1.399-1.627-2.896-2.148-4.492c-0.521-1.595-0.781-3.174-0.781-4.736
		c0-3.255,0.895-5.94,2.686-8.057c1.791-2.115,4.02-3.809,6.689-5.078s5.533-2.164,8.594-2.686c3.061-0.521,5.893-0.781,8.496-0.781
		c1.236,0,2.816,0.098,4.736,0.293s3.955,0.522,6.104,0.977c2.148,0.456,4.281,1.042,6.396,1.758
		c2.115,0.717,4.02,1.611,5.713,2.686s3.076,2.329,4.15,3.76c1.074,1.433,1.611,3.093,1.611,4.98
		c-1.236,0.651-2.475,0.864-3.711,0.635c-1.236-0.228-2.523-0.684-3.857-1.367s-2.686-1.48-4.053-2.393
		c-1.367-0.911-2.799-1.79-4.297-2.637c-1.498-0.845-3.076-1.529-4.736-2.051c-1.66-0.521-3.369-0.684-5.127-0.488
		c-1.627,0-3.744,0.083-6.348,0.244c-2.604,0.163-5.16,0.571-7.666,1.221c-2.506,0.651-4.654,1.66-6.445,3.027
		s-2.686,3.256-2.686,5.664c0,2.344,0.846,4.492,2.539,6.445s3.939,3.809,6.738,5.566s5.957,3.452,9.473,5.078
		c3.516,1.628,7.08,3.288,10.693,4.98c3.613,1.694,7.129,3.452,10.547,5.273c3.418,1.823,6.412,3.809,8.984,5.957
		s4.557,4.477,5.957,6.982c1.4,2.507,1.904,5.322,1.514,8.447c-0.455,3.125-1.807,5.795-4.053,8.008
		c-2.246,2.214-5.094,3.955-8.545,5.225s-7.324,2.1-11.621,2.49s-8.691,0.374-13.184-0.049c-4.492-0.424-8.951-1.253-13.379-2.49
		c-4.428-1.236-8.463-2.864-12.109-4.883c-3.646-2.017-6.771-4.395-9.375-7.129S794.575,87.38,793.663,83.928z"/>
</g>
<g>
	<path fill="#C69461" d="M708.667,43.981c11.008,11.745,19.479,24.87,17.311,38.139c-2.166,13.27-17.324,26.521-39.951,29.701
		c-3.287,0.461-6.705,0.708-10.072,0.493c-2.854-0.179-5.615-0.69-8.236-1.37c-0.523-0.135-1.043-0.279-1.557-0.428
		c-13.941-4.047-23.236-12.142-27.881-20.683c-5.643-10.375-4.982-21.585,0.162-31.957c4.107-8.289,7.891-21.164,21.098-26.979
		c3.514-1.548,7.689-2.593,12.721-2.923c8.098-0.529,16.203,1.567,22.246,4.695C700.55,35.796,704.819,39.874,708.667,43.981z"/>
	<path fill="#D8AA77" d="M706.581,51.924c5.744,10.372,10.328,21.263,7.936,32.054c-2.389,10.792-13,21.541-30.445,25.875
		c-3.768,0.936-7.84,1.563-11.947,1.467c-1.496-0.034-2.971-0.166-4.406-0.375c-0.523-0.135-1.043-0.279-1.557-0.428
		c-13.941-4.047-23.236-12.142-27.881-20.683c-5.643-10.375-4.982-21.585,0.162-31.957c4.107-8.289,7.891-21.164,21.098-26.979
		c7.311-1.467,15.463-1.526,22.283,0.288C695.501,34.822,702.024,43.699,706.581,51.924z"/>
	<path fill="#E8C199" d="M666.589,32.689c-0.168-0.035-0.348-0.067-0.533-0.097c-5.803-0.924-11.191,3.097-14.02,5.213
		c-1.902,1.425-4.361,4.751-1.576,6.299c1.678,0.931,4.385,1.023,6.572,0.551c2.186-0.472,3.955-1.411,5.59-2.368
		C665.909,40.362,673.866,34.185,666.589,32.689z"/>
	<path fill="#E8C199" d="M648.618,48.774c-1.457,1.123-1.947,2.83-0.594,3.913c0.488,0.389,1.188,0.741,2.023,0.768
		c0.57,0.017,1.119-0.119,1.625-0.27c1.707-0.509,3.281-1.277,3.928-2.315c0.645-1.037,0.1-2.36-1.574-2.903
		C651.874,47.269,649.882,47.802,648.618,48.774z"/>
	<path fill="#C69461" d="M696.276,97.33c-3.121-2.232-10.1-2.244-11.359,1.762c-0.682,2.161-0.602,4.22,3.264,5.024
		c4.211,0.876,8.715-0.978,9.471-3.431C698.073,99.317,697.444,98.167,696.276,97.33z"/>
	<path fill="#C69461" d="M703.327,89.419c-2.063-1.477-6.68-1.483-7.514,1.167c-0.451,1.429-0.4,2.792,2.158,3.323
		c2.787,0.58,5.768-0.646,6.268-2.27C704.519,90.734,704.103,89.973,703.327,89.419z"/>
	<path fill="#C69461" d="M690.708,90.909c-1.297-0.928-4.197-0.932-4.721,0.733c-0.283,0.897-0.25,1.753,1.357,2.088
		c1.748,0.363,3.621-0.407,3.934-1.427C691.454,91.736,691.194,91.258,690.708,90.909z"/>
	<g>
		<path fill="#FFFFFF" d="M686.806,53.084"/>
		<path fill="#FFFFFF" d="M683.601,54.104"/>
	</g>
	<path fill="#1E1E1C" d="M682.731,69.798"/>
	<path fill="#1E1E1C" d="M666.745,70.797"/>
</g>
<g>
	<g>
		<path fill="none" stroke="#1E1E1C" stroke-miterlimit="10" d="M654.729,63.217"/>
	</g>
</g>
<ellipse stroke="#000000" stroke-miterlimit="10" cx="650.634" cy="74.729" rx="11.584" ry="11.083"/>
<ellipse stroke="#000000" stroke-miterlimit="10" cx="687.797" cy="66.164" rx="11.72" ry="11.08"/>
<ellipse fill="#FFFFFF" stroke="#000000" stroke-miterlimit="10" cx="654.729" cy="70.144" rx="2.799" ry="2.292"/>
<ellipse fill="#FFFFFF" stroke="#000000" stroke-miterlimit="10" cx="647.393" cy="78.004" rx="5.187" ry="5.477"/>
<ellipse fill="#FFFFFF" stroke="#000000" stroke-miterlimit="10" cx="684.39" cy="60.663" rx="2.801" ry="2.292"/>
<ellipse fill="#FFFFFF" stroke="#000000" stroke-miterlimit="10" cx="691.57" cy="63.646" rx="2.8" ry="2.292"/>
<ellipse fill="#FFFFFF" stroke="#000000" stroke-miterlimit="10" cx="646.791" cy="68.457" rx="2.8" ry="2.292"/>
<ellipse fill="#FFFFFF" stroke="#000000" stroke-miterlimit="10" cx="684.39" cy="70.144" rx="5.188" ry="5.477"/>
<path fill="none" stroke="#000000" stroke-width="7" stroke-miterlimit="10" d="M672.825,92.517c0,5.811,2.91,10.515,6.504,10.515"
	/>
<path fill="none" stroke="#000000" stroke-width="7" stroke-miterlimit="10" d="M684.155,89.935c0,7.238-2.295,13.096-5.131,13.096"
	/>
<g>
	<path fill="#C69461" d="M96.076,44.909C84.95,56.997,76.635,70.276,79.767,83.059c3.129,12.784,20.226,24.772,44.744,26.512
		c3.564,0.253,7.252,0.289,10.861-0.123c3.057-0.344,5.995-1.007,8.77-1.825c0.557-0.163,1.105-0.334,1.648-0.509
		c14.746-4.772,24.251-13.205,28.729-21.794c5.439-10.434,4.055-21.303-2.104-31.088c-4.916-7.82-9.758-20.124-24.31-24.992
		c-3.871-1.296-8.424-2.063-13.853-2.083c-8.736-0.031-17.326,2.494-23.633,5.898C104.309,36.458,99.965,40.682,96.076,44.909z"/>
	<path fill="#D8AA77" d="M98.799,52.514c-5.551,10.437-9.822,21.309-6.599,31.667c3.22,10.36,15.278,20.184,34.295,23.358
		c4.106,0.686,8.522,1.053,12.933,0.712c1.609-0.122,3.183-0.338,4.713-0.628c0.557-0.163,1.105-0.334,1.648-0.509
		c14.746-4.772,24.251-13.205,28.729-21.794c5.439-10.434,4.055-21.303-2.104-31.088c-4.916-7.82-9.758-20.124-24.31-24.992
		c-7.947-0.99-16.717-0.56-23.94,1.613C109.678,35.209,103.2,44.237,98.799,52.514z"/>
	<path fill="#E8C199" d="M140.634,31.405c0.179-0.045,0.369-0.087,0.566-0.126c6.183-1.247,12.219,2.344,15.387,4.234
		c2.133,1.273,4.978,4.362,2.076,6.036c-1.747,1.006-4.652,1.258-7.031,0.928c-2.38-0.328-4.34-1.136-6.153-1.969
		C141.829,38.83,132.899,33.295,140.634,31.405z"/>
	<path fill="#E8C199" d="M160.925,45.981c1.636,1.005,2.264,2.638,0.875,3.773c-0.5,0.408-1.231,0.791-2.128,0.867
		c-0.612,0.051-1.211-0.048-1.766-0.165c-1.865-0.394-3.605-1.047-4.36-2.018c-0.756-0.971-0.251-2.291,1.517-2.919
		C157.335,44.712,159.51,45.111,160.925,45.981z"/>
	<path fill="#C69461" d="M112.618,96.082c3.22-2.359,10.724-2.787,12.319,1.035c0.863,2.063,0.901,4.071-3.207,5.084
		c-4.476,1.104-9.43-0.43-10.39-2.772C110.806,98.124,111.411,96.967,112.618,96.082z"/>
	<path fill="#C69461" d="M104.558,88.806c2.13-1.561,7.094-1.843,8.151,0.686c0.569,1.364,0.596,2.694-2.122,3.363
		c-2.961,0.73-6.24-0.284-6.875-1.833C103.359,90.158,103.759,89.393,104.558,88.806z"/>
	<path fill="#C69461" d="M118.217,89.501c1.338-0.98,4.455-1.158,5.12,0.432c0.357,0.856,0.374,1.691-1.333,2.113
		c-1.859,0.458-3.919-0.179-4.317-1.153C117.463,90.351,117.714,89.869,118.217,89.501z"/>
	<g>
		<path fill="#FFFFFF" d="M120.13,52.46"/>
		<path fill="#FFFFFF" d="M123.635,53.26"/>
	</g>
	<path fill="#1E1E1C" d="M125.519,68.481"/>
	<path fill="#1E1E1C" d="M142.767,68.498"/>
</g>
<g>
	<g>
		<path fill="none" stroke="#1E1E1C" stroke-miterlimit="10" d="M154.648,61.761"/>
	</g>
</g>
<path stroke="#000000" stroke-miterlimit="10" d="M138.653,58.343c0.383,5.957,6.472,10.475,13.601,10.092
	c7.128-0.382,12.597-5.521,12.213-11.478c-0.382-5.956-6.472-10.475-13.6-10.091C143.739,47.249,138.271,52.387,138.653,58.343z"/>
<path stroke="#000000" stroke-miterlimit="10" d="M104.853,55.508c0.383,5.955,6.54,10.467,13.75,10.081
	c7.211-0.387,12.747-5.528,12.365-11.483c-0.383-5.955-6.539-10.468-13.75-10.081C110.006,44.413,104.469,49.553,104.853,55.508z"/>
<path fill="#FFFFFF" stroke="#000000" stroke-miterlimit="10" d="M143.512,57.056c-0.73,1.04-0.144,2.571,1.309,3.424
	c1.452,0.851,3.22,0.7,3.95-0.338c0.73-1.039,0.144-2.572-1.309-3.423C146.009,55.866,144.242,56.018,143.512,57.056z"/>
<path fill="#FFFFFF" stroke="#000000" stroke-miterlimit="10" d="M145.749,52.489c0.189,2.943,2.93,5.191,6.122,5.019
	c3.192-0.171,5.625-2.695,5.436-5.639c-0.189-2.944-2.929-5.192-6.122-5.021C147.994,47.02,145.56,49.545,145.749,52.489z"/>
<path fill="#FFFFFF" stroke="#000000" stroke-miterlimit="10" d="M120.022,57.862c0.079,1.232,1.54,2.155,3.262,2.063
	c1.723-0.093,3.056-1.167,2.977-2.398c-0.08-1.232-1.54-2.156-3.263-2.064C121.275,55.555,119.943,56.629,120.022,57.862z"/>
<path fill="#FFFFFF" stroke="#000000" stroke-miterlimit="10" d="M110.606,52.854c-0.651,1.082,0.049,2.573,1.562,3.333
	c1.513,0.759,3.266,0.498,3.917-0.583c0.649-1.083-0.05-2.575-1.563-3.334C113.009,51.51,111.256,51.772,110.606,52.854z"/>
<path fill="#FFFFFF" stroke="#000000" stroke-miterlimit="10" d="M152.841,60.039c0.079,1.231,1.539,2.155,3.262,2.063
	c1.724-0.093,3.056-1.167,2.976-2.398c-0.079-1.232-1.539-2.156-3.263-2.064C154.093,57.733,152.761,58.806,152.841,60.039z"/>
<path fill="#FFFFFF" stroke="#000000" stroke-miterlimit="10" d="M115.865,50.499c0.189,2.942,2.93,5.19,6.121,5.019
	c3.193-0.171,5.625-2.696,5.437-5.639c-0.189-2.944-2.929-5.192-6.122-5.021C118.109,45.029,115.675,47.554,115.865,50.499z"/>
<path fill="none" stroke="#000000" stroke-width="7" stroke-miterlimit="10" d="M141.545,82.583
	c0.301,4.677-2.697,8.637-6.704,8.852"/>
<path fill="none" stroke="#000000" stroke-width="7" stroke-miterlimit="10" d="M128.507,82.111
	c0.342,5.322,3.176,9.492,6.334,9.323"/>
<line stroke="#000000" stroke-width="6" stroke-miterlimit="10" x1="144.033" y1="84.527" x2="129.016" y2="84.938"/>
<path d="M132.84,83.735c1.137-0.061,1.941,0.412,2.398,1.089c0.417-0.451,1.038-0.766,1.875-0.811
	c3.238-0.174,3.803,3.976,1.212,4.885c-0.082,0.179-0.188,0.348-0.314,0.503c0.029,1.229-0.783,2.468-2.515,2.561
	c-1.92,0.103-2.899-1.315-2.838-2.676c-0.205-0.175-0.378-0.377-0.511-0.602C129.575,87.965,129.65,83.906,132.84,83.735z"/>
<path fill="#010202" d="M138.252,86.059c-0.8-0.803-1.932-1.327-3.402-1.327c-5.055,0-6.146,6.142-3.277,8.798
	c0.8,0.803,1.931,1.327,3.402,1.327C140.029,94.857,141.121,88.716,138.252,86.059z"/>
</svg>
