<?xml version="1.0" encoding="utf-8"?>
<!-- Generator: Adobe Illustrator 16.0.0, SVG Export Plug-In . SVG Version: 6.00 Build 0)  -->
<!DOCTYPE svg PUBLIC "-//W3C//DTD SVG 1.0//EN" "http://www.w3.org/TR/2001/REC-SVG-20010904/DTD/svg10.dtd">
<svg version="1.0" id="Calque_1" xmlns="http://www.w3.org/2000/svg" xmlns:xlink="http://www.w3.org/1999/xlink" x="0px" y="0px"
	 width="1771.41px" height="596.97px" viewBox="0 0 1771.41 596.97" enable-background="new 0 0 1771.41 596.97"
	 xml:space="preserve">
<g>
	<g>
		<g>
			<path fill="#C69461" d="M1399.293,262.525c19.441,20.745,34.403,43.928,30.574,67.365c-3.826,23.439-30.6,46.844-70.564,52.46
				c-5.808,0.814-11.843,1.251-17.792,0.871c-5.04-0.315-9.918-1.218-14.546-2.42c-0.927-0.239-1.843-0.493-2.75-0.755
				c-24.626-7.149-41.042-21.446-49.245-36.532c-9.967-18.325-8.803-38.126,0.286-56.444c7.255-14.64,13.936-37.382,37.265-47.653
				c6.204-2.734,13.582-4.58,22.469-5.163c14.301-0.934,28.619,2.768,39.291,8.292
				C1384.955,248.067,1392.496,255.27,1399.293,262.525z"/>
			<path fill="#D8AA77" d="M1395.608,276.555c10.146,18.319,18.244,37.556,14.018,56.617c-4.221,19.063-22.963,38.047-53.775,45.702
				c-6.656,1.652-13.848,2.761-21.103,2.591c-2.644-0.06-5.247-0.293-7.782-0.664c-0.927-0.239-1.843-0.493-2.75-0.755
				c-24.626-7.149-41.042-21.446-49.245-36.532c-9.967-18.325-8.803-38.126,0.286-56.444c7.255-14.64,13.936-37.382,37.265-47.653
				c12.911-2.591,27.312-2.695,39.358,0.508C1376.037,246.347,1387.561,262.026,1395.608,276.555z"/>
			<path fill="#E8C199" d="M1324.971,242.58c-0.298-0.061-0.614-0.118-0.941-0.171c-10.25-1.631-19.768,5.47-24.763,9.208
				c-3.362,2.517-7.705,8.393-2.784,11.125c2.963,1.645,7.745,1.807,11.606,0.974c3.862-0.834,6.988-2.492,9.874-4.182
				C1323.769,256.132,1337.826,245.222,1324.971,242.58z"/>
			<path fill="#E8C199" d="M1293.228,270.99c-2.573,1.982-3.438,4.999-1.047,6.911c0.86,0.688,2.096,1.309,3.572,1.356
				c1.007,0.03,1.979-0.21,2.872-0.477c3.015-0.9,5.795-2.256,6.936-4.089c1.139-1.832,0.176-4.168-2.78-5.128
				C1298.979,268.332,1295.461,269.273,1293.228,270.99z"/>
			<path fill="#C69461" d="M1377.407,356.754c-5.512-3.943-17.839-3.963-20.064,3.112c-1.202,3.817-1.063,7.454,5.767,8.874
				c7.436,1.547,15.393-1.728,16.728-6.06C1380.581,360.265,1379.471,358.233,1377.407,356.754z"/>
			<path fill="#C69461" d="M1389.862,342.782c-3.645-2.608-11.798-2.62-13.273,2.061c-0.795,2.523-0.705,4.931,3.814,5.87
				c4.923,1.023,10.187-1.142,11.07-4.009C1391.964,345.104,1391.23,343.76,1389.862,342.782z"/>
			<path fill="#C69461" d="M1367.571,345.414c-2.289-1.639-7.411-1.646-8.338,1.295c-0.499,1.584-0.441,3.097,2.397,3.688
				c3.09,0.641,6.397-0.718,6.949-2.52C1368.89,346.874,1368.432,346.03,1367.571,345.414z"/>
			<g>
				<path fill="#FFFFFF" d="M1360.678,278.603"/>
				<path fill="#FFFFFF" d="M1355.019,280.404"/>
			</g>
			<path fill="#1E1E1C" d="M1353.482,308.125"/>
			<path fill="#1E1E1C" d="M1325.246,309.889"/>
		</g>
		<g>
			<g>
				<path fill="none" stroke="#1E1E1C" stroke-width="1.7663" stroke-miterlimit="10" d="M1304.022,296.5"/>
			</g>
		</g>
		<ellipse stroke="#000000" stroke-width="1.7663" stroke-miterlimit="10" cx="1296.789" cy="316.834" rx="20.461" ry="19.576"/>
		<ellipse stroke="#000000" stroke-width="1.7663" stroke-miterlimit="10" cx="1362.43" cy="301.706" rx="20.7" ry="19.57"/>
		
			<ellipse fill="#FFFFFF" stroke="#000000" stroke-width="1.7663" stroke-miterlimit="10" cx="1304.023" cy="308.736" rx="4.944" ry="4.048"/>
		
			<ellipse fill="#FFFFFF" stroke="#000000" stroke-width="1.7663" stroke-miterlimit="10" cx="1291.065" cy="322.62" rx="9.161" ry="9.674"/>
		
			<ellipse fill="#FFFFFF" stroke="#000000" stroke-width="1.7663" stroke-miterlimit="10" cx="1356.412" cy="291.989" rx="4.946" ry="4.049"/>
		
			<ellipse fill="#FFFFFF" stroke="#000000" stroke-width="1.7663" stroke-miterlimit="10" cx="1369.094" cy="297.259" rx="4.945" ry="4.048"/>
		
			<ellipse fill="#FFFFFF" stroke="#000000" stroke-width="1.7663" stroke-miterlimit="10" cx="1290.001" cy="305.756" rx="4.944" ry="4.048"/>
		
			<ellipse fill="#FFFFFF" stroke="#000000" stroke-width="1.7663" stroke-miterlimit="10" cx="1356.412" cy="308.736" rx="9.162" ry="9.673"/>
		<path fill="none" stroke="#000000" stroke-width="12.3641" stroke-miterlimit="10" d="M1335.985,348.252
			c0,10.264,5.14,18.572,11.489,18.572"/>
		<path fill="none" stroke="#000000" stroke-width="12.3641" stroke-miterlimit="10" d="M1355.999,343.693
			c0,12.785-4.054,23.132-9.063,23.132"/>
	</g>
	<g>
		<g>
			<path fill="#C69461" d="M317.275,264.164c-19.651,21.351-34.338,44.805-28.807,67.383c5.527,22.58,35.725,43.755,79.031,46.829
				c6.295,0.447,12.81,0.51,19.184-0.217c5.4-0.608,10.589-1.778,15.49-3.224c0.984-0.288,1.952-0.59,2.911-0.899
				c26.045-8.43,42.834-23.324,50.743-38.495c9.608-18.43,7.162-37.628-3.716-54.911c-8.683-13.812-17.235-35.544-42.939-44.144
				c-6.836-2.289-14.88-3.644-24.469-3.68c-15.431-0.056-30.602,4.405-41.742,10.418
				C331.818,249.237,324.145,256.698,317.275,264.164z"/>
			<path fill="#D8AA77" d="M322.085,277.597c-9.805,18.434-17.349,37.637-11.655,55.932c5.688,18.299,26.986,35.651,60.576,41.257
				c7.253,1.212,15.053,1.86,22.843,1.258c2.842-0.214,5.623-0.597,8.325-1.109c0.984-0.288,1.952-0.59,2.911-0.899
				c26.045-8.43,42.834-23.324,50.743-38.495c9.608-18.43,7.162-37.628-3.716-54.911c-8.683-13.812-17.235-35.544-42.939-44.144
				c-14.037-1.749-29.527-0.988-42.286,2.85C341.301,247.03,329.859,262.977,322.085,277.597z"/>
			<path fill="#E8C199" d="M395.979,240.311c0.316-0.079,0.651-0.153,1-0.223c10.921-2.202,21.583,4.14,27.178,7.479
				c3.768,2.248,8.793,7.705,3.667,10.661c-3.085,1.776-8.217,2.222-12.419,1.64c-4.204-0.58-7.666-2.006-10.868-3.478
				C398.088,253.425,382.316,243.649,395.979,240.311z"/>
			<path fill="#E8C199" d="M431.819,266.057c2.89,1.775,3.999,4.66,1.545,6.664c-0.884,0.72-2.174,1.397-3.759,1.532
				c-1.082,0.09-2.14-0.085-3.119-0.291c-3.293-0.696-6.367-1.85-7.701-3.563c-1.336-1.715-0.444-4.046,2.68-5.157
				C425.478,263.816,429.319,264.521,431.819,266.057z"/>
			<path fill="#C69461" d="M346.494,354.55c5.687-4.167,18.941-4.923,21.76,1.828c1.524,3.643,1.591,7.191-5.664,8.981
				c-7.905,1.951-16.656-0.76-18.352-4.897C343.294,358.157,344.362,356.113,346.494,354.55z"/>
			<path fill="#C69461" d="M332.258,341.699c3.762-2.756,12.53-3.256,14.397,1.212c1.005,2.41,1.053,4.758-3.748,5.94
				c-5.23,1.29-11.022-0.502-12.142-3.238C330.14,344.086,330.846,342.735,332.258,341.699z"/>
			<path fill="#C69461" d="M356.383,342.926c2.363-1.731,7.869-2.045,9.043,0.762c0.63,1.512,0.661,2.988-2.355,3.733
				c-3.283,0.809-6.923-0.317-7.625-2.037C355.051,344.427,355.495,343.577,356.383,342.926z"/>
			<g>
				<path fill="#FFFFFF" d="M359.762,277.5"/>
				<path fill="#FFFFFF" d="M365.954,278.914"/>
			</g>
			<path fill="#1E1E1C" d="M369.28,305.798"/>
			<path fill="#1E1E1C" d="M399.746,305.828"/>
		</g>
		<g>
			<g>
				<path fill="none" stroke="#1E1E1C" stroke-width="1.7663" stroke-miterlimit="10" d="M420.731,293.93"/>
			</g>
		</g>
		<path stroke="#000000" stroke-width="1.7663" stroke-miterlimit="10" d="M392.48,287.893
			c0.676,10.521,11.432,18.501,24.023,17.825c12.591-0.675,22.25-9.752,21.573-20.272c-0.674-10.52-11.431-18.501-24.022-17.824
			C401.463,268.296,391.804,277.372,392.48,287.893z"/>
		<path stroke="#000000" stroke-width="1.7663" stroke-miterlimit="10" d="M332.778,282.885
			c0.676,10.517,11.551,18.488,24.288,17.805c12.737-0.684,22.515-9.764,21.84-20.282c-0.676-10.518-11.549-18.489-24.288-17.805
			C341.88,263.287,332.101,272.367,332.778,282.885z"/>
		<path fill="#FFFFFF" stroke="#000000" stroke-width="1.7663" stroke-miterlimit="10" d="M401.063,285.618
			c-1.29,1.836-0.254,4.541,2.312,6.047c2.564,1.503,5.688,1.237,6.977-0.598c1.289-1.835,0.254-4.543-2.312-6.046
			C405.473,283.516,402.351,283.785,401.063,285.618z"/>
		<path fill="#FFFFFF" stroke="#000000" stroke-width="1.7663" stroke-miterlimit="10" d="M405.013,277.552
			c0.334,5.198,5.176,9.169,10.813,8.865c5.639-0.302,9.937-4.761,9.602-9.96c-0.333-5.201-5.173-9.17-10.813-8.868
			C408.979,267.891,404.679,272.353,405.013,277.552z"/>
		<path fill="#FFFFFF" stroke="#000000" stroke-width="1.7663" stroke-miterlimit="10" d="M359.573,287.042
			c0.14,2.176,2.72,3.807,5.762,3.644c3.043-0.165,5.397-2.061,5.257-4.236c-0.14-2.177-2.72-3.809-5.764-3.646
			C361.786,282.968,359.432,284.865,359.573,287.042z"/>
		<path fill="#FFFFFF" stroke="#000000" stroke-width="1.7663" stroke-miterlimit="10" d="M342.941,278.197
			c-1.149,1.91,0.086,4.545,2.758,5.887c2.672,1.341,5.768,0.878,6.917-1.03c1.147-1.913-0.088-4.548-2.76-5.89
			C347.184,275.823,344.088,276.286,342.941,278.197z"/>
		<path fill="#FFFFFF" stroke="#000000" stroke-width="1.7663" stroke-miterlimit="10" d="M417.54,290.887
			c0.14,2.174,2.718,3.807,5.762,3.644c3.045-0.165,5.397-2.061,5.257-4.235c-0.14-2.177-2.719-3.809-5.763-3.646
			C419.751,286.814,417.399,288.71,417.54,290.887z"/>
		<path fill="#FFFFFF" stroke="#000000" stroke-width="1.7663" stroke-miterlimit="10" d="M352.229,274.036
			c0.334,5.197,5.175,9.168,10.812,8.864c5.639-0.302,9.936-4.762,9.603-9.96c-0.334-5.2-5.173-9.17-10.813-8.868
			C356.193,264.375,351.894,268.835,352.229,274.036z"/>
		<path fill="none" stroke="#000000" stroke-width="12.3641" stroke-miterlimit="10" d="M397.587,330.706
			c0.531,8.261-4.764,15.255-11.84,15.634"/>
		<path fill="none" stroke="#000000" stroke-width="12.3641" stroke-miterlimit="10" d="M374.559,329.874
			c0.604,9.4,5.609,16.766,11.188,16.467"/>
		<line stroke="#000000" stroke-width="14.1304" stroke-miterlimit="10" x1="400.652" y1="331.841" x2="371.674" y2="332.097"/>
		<path d="M382.212,332.742c2.008-0.107,3.429,0.728,4.236,1.923c0.736-0.796,1.833-1.353,3.312-1.432
			c5.72-0.308,6.718,7.022,2.141,8.629c-0.144,0.316-0.332,0.614-0.554,0.889c0.051,2.171-1.384,4.36-4.443,4.523
			c-3.392,0.182-5.121-2.323-5.012-4.727c-0.362-0.31-0.668-0.666-0.903-1.063C376.445,340.214,376.578,333.044,382.212,332.742z"/>
	</g>
	<rect x="286.881" y="412.39" fill="none" width="563.576" height="159.081"/>
	
		<text transform="matrix(1 0 0 1 286.8809 509.5884)" fill="#D8AA77" font-family="'IndieFlower'" font-size="100" letter-spacing="20">artage</text>
	<g>
		<g>
			<path fill="#3C3C3B" d="M227.013,403.878c-7.11-9.281-13.552-21.744-19.332-37.4c-5.78-15.648-11.112-31.98-15.983-48.991
				c-4.876-17.009-9.178-33.164-12.893-48.469c-3.724-15.303-7.077-27.242-10.069-35.834l-13.847-105.015
				c-0.602-4.566,0.746-8.996,4.052-13.309c3.301-4.305,7.082-6.74,11.346-7.302c0.608-0.08,1.609-0.134,2.999-0.164
				c1.39-0.024,2.233-0.063,2.542-0.103c3.271,10.717,5.959,21.744,8.078,33.077c2.111,11.335,4.302,22.659,6.57,33.974
				c2.261,11.314,4.977,22.498,8.138,33.535c3.155,11.043,7.417,21.63,12.783,31.759c6.893,0.644,14.048,0.862,21.455,0.656
				c7.406-0.202,16.014-0.639,25.839-1.318c10.651-1.404,21.914-4.667,33.78-9.795c11.866-5.123,22.691-11.66,32.485-19.614
				c9.789-7.946,17.561-17.101,23.321-27.463c5.755-10.354,7.853-21.474,6.287-33.346c-1.686-12.784-7.379-23.647-17.071-32.588
				c-9.701-8.94-21.754-16.41-36.169-22.406c-14.42-5.995-30.143-10.73-47.166-14.219c-17.03-3.481-33.613-5.94-49.748-7.376
				c-16.143-1.428-31.016-2.101-44.629-2.013c-13.618,0.098-24.073,0.62-31.378,1.583c-2.44,0.322-6.947,0.765-13.529,1.32
				c-6.59,0.564-13.749,1.429-21.491,2.602c-7.741,1.18-15.206,2.701-22.391,4.578c-7.185,1.877-12.75,4.316-16.688,7.311
				c-3.372,2.614-6.242,6.708-8.6,12.283c-2.362,5.581-4.629,11.294-6.795,17.155c-2.174,5.86-4.509,11.045-7.007,15.556
				c-2.504,4.511-5.579,7.007-9.231,7.489c-0.614,0.081-1.09-0.009-1.43-0.276c-0.307,0.04-0.784-0.049-1.431-0.277
				c-0.653-0.218-1.34-0.752-2.067-1.585c-0.734-0.832-1.612-2.807-2.639-5.923c-1.035-3.116-2.174-7.683-3.433-13.715
				c-1.26-6.024-2.572-14.213-3.937-24.565c-0.603-4.566,1.05-9.037,4.965-13.43c3.906-4.384,9.163-8.561,15.766-12.531
				c6.598-3.962,13.871-7.556,21.806-10.773c7.939-3.209,15.531-6.068,22.792-8.58c7.255-2.502,13.725-4.516,19.411-6.043
				c5.678-1.519,9.586-2.425,11.72-2.707c13.696-1.806,29.938-3.091,48.729-3.87c18.784-0.771,38.28-0.323,58.476,1.347
				c20.196,1.677,40.415,4.738,60.671,9.188c20.25,4.457,38.604,10.935,55.056,19.45c16.453,8.514,30.357,19.456,41.723,32.822
				c11.357,13.366,18.309,29.639,20.837,48.815c3.933,13.417,3.244,26.362-2.08,38.83c-5.323,12.475-13.396,24.064-24.214,34.781
				c-10.824,10.718-23.32,20.423-37.506,29.1c-14.184,8.686-28.102,15.864-41.755,21.534c-13.652,5.675-26.115,9.794-37.389,12.362
				c-11.274,2.576-19.186,3.075-23.726,1.503l0.723,5.479c1.887,14.31,4.874,28.158,8.963,41.555
				c4.088,13.396,7.078,27.25,8.964,41.554c0.201,1.528,0.375,4.06,0.536,7.595c0.155,3.543-0.239,6.998-1.187,10.375
				c-0.947,3.377-2.5,6.297-4.653,8.744C234.201,403.236,231.086,404.271,227.013,403.878z"/>
			<path fill="#3C3C3B" d="M503.526,373.963c-2.186-3.795-3.967-8.738-5.347-14.834c-1.38-6.094-2.56-12.419-3.536-18.974
				c-0.978-6.555-1.784-12.764-2.415-18.629c-0.633-5.865-1.294-10.462-1.984-13.799v-39.672c0-1.725,0.717-3.304,2.156-4.744
				c1.437-1.437,2.959-2.156,4.571-2.156c0.229,0,0.604,0.029,1.122,0.086c0.517,0.06,0.833,0.086,0.949,0.086
				c0.69,4.14,1.148,8.366,1.38,12.678c0.229,4.313,0.488,8.625,0.776,12.937c0.286,4.312,0.747,8.598,1.38,12.851
				c0.631,4.255,1.695,8.395,3.191,12.419c2.528,0.577,5.174,1.008,7.935,1.294c2.76,0.288,5.978,0.547,9.659,0.776
				c4.024,0,8.366-0.66,13.023-1.983c4.657-1.321,8.997-3.218,13.023-5.692c4.024-2.471,7.358-5.49,10.004-9.056
				c2.644-3.563,3.967-7.589,3.967-12.074c0-4.83-1.582-9.142-4.743-12.937c-3.165-3.795-7.274-7.159-12.333-10.091
				c-5.061-2.932-10.667-5.46-16.817-7.589c-6.153-2.126-12.19-3.852-18.111-5.175c-5.924-1.321-11.414-2.299-16.473-2.933
				c-5.062-0.63-8.969-0.949-11.729-0.949c-0.922,0-2.617-0.056-5.088-0.172c-2.475-0.113-5.175-0.143-8.107-0.086
				c-2.932,0.059-5.778,0.258-8.538,0.604s-4.946,0.979-6.555,1.897c-1.38,0.806-2.646,2.186-3.795,4.14
				c-1.15,1.957-2.272,3.967-3.363,6.037c-1.094,2.07-2.215,3.881-3.364,5.434c-1.151,1.552-2.415,2.329-3.794,2.329
				c-0.232,0-0.404-0.057-0.518-0.172c-0.116,0-0.289-0.057-0.518-0.173c-0.232-0.113-0.461-0.345-0.69-0.69
				c-0.232-0.345-0.461-1.121-0.69-2.329c-0.232-1.208-0.431-2.959-0.604-5.261c-0.173-2.299-0.259-5.404-0.259-9.314
				c0-1.725,0.833-3.304,2.501-4.744c1.666-1.437,3.822-2.73,6.468-3.881c2.644-1.148,5.52-2.126,8.625-2.933
				c3.105-0.803,6.064-1.493,8.883-2.07c2.816-0.574,5.317-1.005,7.503-1.293c2.183-0.286,3.679-0.431,4.485-0.431
				c5.174,0,11.268,0.318,18.284,0.949c7.013,0.633,14.23,1.754,21.647,3.363c7.417,1.612,14.775,3.738,22.079,6.382
				c7.301,2.646,13.799,5.951,19.491,9.918c5.692,3.967,10.32,8.711,13.886,14.23c3.563,5.52,5.347,11.902,5.347,19.146
				c0.803,5.175-0.086,9.948-2.674,14.316c-2.587,4.372-6.153,8.28-10.694,11.729c-4.544,3.45-9.659,6.441-15.352,8.969
				c-5.692,2.531-11.212,4.515-16.559,5.951c-5.347,1.439-10.177,2.358-14.489,2.76c-4.313,0.404-7.274,0.202-8.883-0.604v2.07
				c0,5.406,0.431,10.694,1.293,15.869c0.862,5.174,1.294,10.465,1.294,15.869c0,0.577-0.06,1.526-0.173,2.846
				c-0.116,1.323-0.431,2.587-0.949,3.795c-0.517,1.208-1.237,2.215-2.156,3.019C506.227,374.076,505.019,374.308,503.526,373.963z"
				/>
			<path fill="#3C3C3B" d="M615.617,284.268c0-1.38,0.027-3.277,0.086-5.692c0.057-2.415,0.2-5.029,0.432-7.849
				c0.229-2.816,0.66-5.719,1.293-8.71c0.631-2.989,1.523-5.663,2.674-8.021c1.148-2.355,2.644-4.312,4.484-5.865
				c1.838-1.552,4.081-2.329,6.727-2.329c1.725,0,3.046,0.461,3.967,1.38c0.919,0.921,1.437,2.042,1.553,3.363
				c0.113,1.323-0.289,2.76-1.208,4.313c-0.922,1.552-2.358,2.962-4.313,4.226c-1.38,0-2.388,1.008-3.019,3.019
				c-0.633,2.014-1.094,4.256-1.38,6.728c-0.288,2.474-0.431,4.859-0.431,7.158c0,2.302,0,3.682,0,4.14
				c0,3.911,0.172,8.481,0.518,13.713c0.345,5.234,0.976,10.667,1.897,16.3c0.919,5.636,2.242,11.212,3.967,16.731
				c1.725,5.52,3.994,10.522,6.813,15.007c2.817,4.485,6.237,8.252,10.263,11.298c4.024,3.048,8.854,4.803,14.489,5.261
				c4.369,0.345,9.371-0.431,15.008-2.329c5.633-1.897,10.922-4.571,15.869-8.021c4.941-3.45,9.111-7.444,12.504-11.988
				c3.391-4.542,5.09-9.229,5.09-14.058v-1.035c-1.035-6.438-2.1-11.815-3.191-16.127c-1.094-4.313-2.07-8.22-2.932-11.729
				c-0.863-3.506-1.553-7.072-2.07-10.694s-0.777-7.961-0.777-13.023c0.459-7.129,1.234-12.39,2.33-15.783
				c1.09-3.391,2.27-5.288,3.535-5.692c1.264-0.401,2.588,0.491,3.967,2.674c1.381,2.186,2.588,5.32,3.623,9.4
				c1.035,4.083,1.811,8.913,2.328,14.489c0.518,5.579,0.66,11.53,0.432,17.853c0.113,4.601,0.975,9.66,2.588,15.179
				c1.609,5.52,3.42,11.04,5.434,16.559c2.01,5.52,4.053,10.867,6.123,16.042s3.648,9.746,4.742,13.713
				c1.092,3.967,1.408,7.188,0.949,9.66c-0.461,2.474-2.129,3.708-5.002,3.708c-2.992,0-5.262-0.919-6.813-2.76
				c-1.553-1.838-2.877-3.881-3.969-6.124c-1.094-2.242-2.186-4.283-3.277-6.124c-1.094-1.838-2.617-2.76-4.57-2.76
				c-1.496,0-3.336,0.604-5.52,1.811c-2.186,1.208-4.631,2.733-7.33,4.571c-2.703,1.841-5.607,3.824-8.711,5.951
				c-3.105,2.129-6.355,4.113-9.746,5.951c-3.393,1.841-6.873,3.363-10.436,4.571c-3.566,1.208-7.131,1.811-10.695,1.811
				c-6.554,0-12.306-1.579-17.249-4.743c-4.945-3.162-9.201-7.271-12.764-12.333c-3.565-5.059-6.527-10.837-8.883-17.335
				c-2.358-6.495-4.226-13.05-5.605-19.664c-1.38-6.611-2.358-13.05-2.933-19.319C615.902,294.475,615.617,288.985,615.617,284.268z
				"/>
			<path fill="#3C3C3B" d="M805.666,373.963c-2.186-3.795-3.967-8.738-5.346-14.834c-1.381-6.094-2.561-12.419-3.537-18.974
				c-0.979-6.555-1.783-12.764-2.414-18.629c-0.635-5.865-1.295-10.462-1.984-13.799v-39.672c0-1.725,0.717-3.304,2.156-4.744
				c1.438-1.437,2.959-2.156,4.57-2.156c0.23,0,0.604,0.029,1.121,0.086c0.518,0.06,0.834,0.086,0.949,0.086
				c0.689,4.14,1.148,8.366,1.381,12.678c0.229,4.313,0.486,8.625,0.775,12.937c0.285,4.312,0.746,8.598,1.381,12.851
				c0.629,4.255,1.695,8.395,3.189,12.419c2.529,0.577,5.176,1.008,7.936,1.294c2.76,0.288,5.979,0.547,9.66,0.776
				c4.023,0,8.365-0.66,13.021-1.983c4.658-1.321,8.996-3.218,13.023-5.692c4.023-2.471,7.357-5.49,10.004-9.056
				c2.645-3.563,3.969-7.589,3.969-12.074c0-4.83-1.582-9.142-4.744-12.937c-3.164-3.795-7.275-7.159-12.334-10.091
				c-5.061-2.932-10.666-5.46-16.816-7.589c-6.154-2.126-12.191-3.852-18.111-5.175c-5.924-1.321-11.414-2.299-16.473-2.933
				c-5.063-0.63-8.971-0.949-11.73-0.949c-0.922,0-2.617-0.056-5.088-0.172c-2.475-0.113-5.176-0.143-8.107-0.086
				c-2.932,0.059-5.777,0.258-8.537,0.604c-2.762,0.345-4.947,0.979-6.555,1.897c-1.381,0.806-2.648,2.186-3.795,4.14
				c-1.152,1.957-2.273,3.967-3.365,6.037c-1.094,2.07-2.215,3.881-3.363,5.434c-1.15,1.552-2.414,2.329-3.795,2.329
				c-0.23,0-0.404-0.057-0.518-0.172c-0.115,0-0.287-0.057-0.516-0.173c-0.232-0.113-0.461-0.345-0.691-0.69
				c-0.23-0.345-0.461-1.121-0.689-2.329c-0.232-1.208-0.432-2.959-0.604-5.261c-0.172-2.299-0.26-5.404-0.26-9.314
				c0-1.725,0.834-3.304,2.502-4.744c1.666-1.437,3.822-2.73,6.469-3.881c2.645-1.148,5.52-2.126,8.625-2.933
				c3.104-0.803,6.063-1.493,8.883-2.07c2.816-0.574,5.316-1.005,7.502-1.293c2.184-0.286,3.68-0.431,4.486-0.431
				c5.174,0,11.268,0.318,18.283,0.949c7.014,0.633,14.23,1.754,21.648,3.363c7.416,1.612,14.773,3.738,22.078,6.382
				c7.301,2.646,13.799,5.951,19.49,9.918c5.693,3.967,10.32,8.711,13.887,14.23c3.563,5.52,5.346,11.902,5.346,19.146
				c0.805,5.175-0.086,9.948-2.672,14.316c-2.588,4.372-6.154,8.28-10.695,11.729c-4.543,3.45-9.66,6.441-15.352,8.969
				c-5.691,2.531-11.211,4.515-16.559,5.951c-5.348,1.439-10.178,2.358-14.49,2.76c-4.311,0.404-7.273,0.202-8.883-0.604v2.07
				c0,5.406,0.432,10.694,1.295,15.869c0.861,5.174,1.293,10.465,1.293,15.869c0,0.577-0.059,1.526-0.172,2.846
				c-0.117,1.323-0.432,2.587-0.949,3.795s-1.238,2.215-2.156,3.019C808.367,374.076,807.16,374.308,805.666,373.963z"/>
			<path fill="#D8AA77" d="M895.663,92.993c-41.073,0-83.23-2.836-126.487-8.519c-43.255-5.673-84.543-11.573-123.858-17.695
				c-5.247,0.88-9.291,0-12.125-2.621c-2.851-2.622-5.144-6.001-6.887-10.159c-1.751-4.146-2.842-8.294-3.273-12.452
				c-0.445-4.146-0.653-7.535-0.653-10.157c8.734,0,23.807,0.111,45.214,0.327c21.402,0.226,46.861,0.552,76.352,0.983
				c29.491,0.439,61.6,1.312,96.337,2.622c34.736,1.312,69.568,3.063,104.527,5.242c34.952,2.191,68.813,4.916,101.582,8.192
				c32.771,3.276,61.712,7.323,86.838,12.124c25.119,4.814,45.221,10.383,60.294,16.711c15.071,6.339,22.61,13.662,22.61,21.957
				c0,6.122-0.884,12.123-2.627,18.021c-1.752,5.899-6.337,8.848-13.757,8.848c-21.417-1.311-42.604-4.69-63.575-10.158
				c-20.971-5.458-41.94-10.589-62.912-15.401c-20.971-4.803-42.379-8.193-64.227-10.158c-21.854-1.966-44.132,0.327-66.846,6.882
				c0,27.094,1.528,56.586,4.586,88.473c3.057,31.898,6.886,64.553,11.473,97.975c4.587,33.423,9.604,66.745,15.07,99.942
				c5.463,33.208,10.813,64.451,16.06,93.718c1.305,7.433,3.815,14.743,7.533,21.953c3.709,7.21,7.538,14.203,11.471,20.973
				c3.934,6.778,7.421,13.66,10.486,20.642c3.05,6.994,4.585,13.989,4.585,20.974c0,4.813-1.424,8.418-4.259,10.812
				c-2.849,2.406-6.337,4.047-10.485,4.917c-4.156,0.871-8.519,1.31-13.105,1.31c-4.585,0-8.423,0-11.472,0
				c-11.793,0-20.972-4.588-27.522-13.761c-6.554-9.177-11.585-20.093-15.072-32.77c-3.503-12.666-5.899-25.66-7.214-38.993
				c-1.307-13.322-2.619-24.136-3.934-32.439c-4.808-31.889-8.845-62.915-12.118-93.062c-3.279-30.147-6.226-60.181-8.851-90.112
				c-2.621-29.922-4.914-60.18-6.88-90.768C900.574,156.789,898.281,125.331,895.663,92.993z"/>
			<path fill="#3C3C3B" d="M1110.214,368.616c0-2.644,0.258-5.288,0.775-7.935c0.518-2.644,1.063-5.317,1.639-8.021
				c0.574-2.7,1.121-5.403,1.639-8.107c0.518-2.7,0.777-5.433,0.777-8.193c0-4.253-0.174-8.883-0.518-13.886
				c-0.346-5.002-1.152-9.687-2.416-14.058c-4.371,0.921-8.797,1.267-13.281,1.035c-4.484-0.229-9-0.66-13.541-1.293
				c-4.543-0.631-9.115-1.264-13.713-1.897c-4.6-0.631-9.201-0.949-13.799-0.949c-1.379,0-3.535,0.03-6.469,0.086
				c-2.932,0.059-5.98,0.172-9.141,0.345c-3.164,0.172-6.037,0.404-8.625,0.69c-2.588,0.289-4.17,0.72-4.744,1.293l-2.242,2.07
				c0,0.116-0.029,0.46-0.086,1.035c-0.059,0.577-0.086,1.237-0.086,1.984c0,0.749-0.029,1.496-0.086,2.242
				c-0.061,0.749-0.086,1.353-0.086,1.811c0,4.485,0.344,8.97,1.033,13.454c0.691,4.485,1.467,8.913,2.33,13.282
				c0.861,4.372,1.664,8.711,2.414,13.023c0.746,4.313,1.121,8.598,1.121,12.851v2.243c-2.301,2.07-4.371,2.76-6.209,2.07
				c-1.842-0.69-3.51-2.385-5.002-5.088c-1.496-2.701-2.734-6.15-3.709-10.35c-0.979-4.196-1.754-8.767-2.328-13.713
				c-0.578-4.943-0.893-10.031-0.949-15.265c-0.059-5.231,0.143-10.263,0.604-15.093c-0.346-0.345-0.949-1.035-1.811-2.07
				c-0.863-1.035-1.785-2.126-2.76-3.277c-0.979-1.148-1.871-2.269-2.674-3.363c-0.807-1.092-1.324-1.868-1.553-2.329
				c-0.115-0.229-0.172-0.402-0.172-0.518v-0.518c0-1.035,0.285-1.781,0.861-2.242c0.574-0.458,1.234-0.833,1.984-1.121
				c0.746-0.286,1.521-0.574,2.328-0.863c0.803-0.286,1.381-0.776,1.725-1.466c0-0.113,0-0.488,0-1.122c0-0.63,0-1.293,0-1.983
				s0-1.35,0-1.983c0-0.631,0-1.062,0-1.294c0.574-6.438,1.092-13.282,1.553-20.526c0.459-7.245,1.178-14.373,2.156-21.389
				c0.977-7.013,2.471-13.74,4.484-20.181c2.012-6.439,4.857-12.102,8.539-16.99c3.678-4.886,8.393-8.797,14.145-11.729
				c5.748-2.932,12.877-4.398,21.389-4.398c6.783,0,12.877,1.612,18.283,4.83c5.404,3.221,10.234,7.563,14.488,13.023
				c4.254,5.463,7.936,11.789,11.041,18.974c3.104,7.188,5.748,14.748,7.934,22.682c2.184,7.935,3.994,15.985,5.434,24.149
				c1.436,8.166,2.557,15.928,3.363,23.286c0.803,7.36,1.35,14.087,1.639,20.181c0.285,6.097,0.432,11.099,0.432,15.007
				c0,2.875-0.029,5.493-0.086,7.848c-0.061,2.358-0.174,4.657-0.346,6.899c-0.172,2.243-0.404,4.601-0.689,7.072
				c-0.289,2.474-0.721,5.261-1.295,8.366c-1.266,1.725-2.846,3.307-4.742,4.744c-1.898,1.439-3.998,2.156-6.297,2.156
				c-1.957,0-3.221-0.488-3.795-1.466C1110.5,371.693,1110.214,370.341,1110.214,368.616z M1104.867,299.103
				c0.459,0,1.006-0.057,1.639-0.173c0.631-0.113,1.207-0.518,1.725-1.208s1.006-1.781,1.467-3.277
				c0.457-1.493,0.803-3.623,1.035-6.382c0-4.485-0.404-9.63-1.207-15.438c-0.807-5.805-2.07-11.756-3.795-17.853
				c-1.727-6.094-3.912-12.044-6.555-17.853c-2.646-5.806-5.838-11.01-9.574-15.61c-3.738-4.598-7.994-8.307-12.764-11.126
				c-4.773-2.816-10.15-4.226-16.129-4.226c-6.324,0-11.643,1.668-15.955,5.002c-4.313,3.336-7.82,7.649-10.521,12.937
				c-2.703,5.291-4.773,11.241-6.209,17.853c-1.439,6.614-2.445,13.195-3.02,19.75c-0.576,6.555-0.891,12.737-0.947,18.542
				c-0.061,5.808-0.088,10.608-0.088,14.403L1104.867,299.103z"/>
			<path fill="#3C3C3B" d="M1207.326,246.148c-10.811,0-21.906-0.747-33.291-2.242c-11.385-1.493-22.252-3.046-32.6-4.657
				c-1.381,0.231-2.445,0-3.191-0.69c-0.75-0.69-1.354-1.58-1.813-2.674c-0.461-1.091-0.748-2.183-0.861-3.277
				c-0.117-1.091-0.172-1.983-0.172-2.673c2.299,0,6.266,0.029,11.9,0.086c5.633,0.06,12.334,0.146,20.096,0.259
				c7.762,0.116,16.213,0.345,25.355,0.69c9.143,0.345,18.311,0.806,27.512,1.38c9.199,0.577,18.111,1.294,26.736,2.156
				s16.242,1.927,22.855,3.191c6.611,1.267,11.902,2.733,15.869,4.398c3.967,1.668,5.951,3.596,5.951,5.779
				c0,1.611-0.232,3.191-0.691,4.743c-0.461,1.553-1.668,2.329-3.621,2.329c-5.637-0.345-11.213-1.234-16.732-2.673
				c-5.52-1.437-11.039-2.787-16.559-4.054c-5.52-1.264-11.154-2.156-16.904-2.673c-5.752-0.518-11.615,0.086-17.594,1.811
				c0,7.131,0.402,14.894,1.207,23.286c0.805,8.396,1.813,16.99,3.02,25.787s2.527,17.567,3.967,26.305
				c1.438,8.74,2.846,16.963,4.227,24.666c0.344,1.957,1.004,3.881,1.982,5.778c0.977,1.897,1.984,3.738,3.02,5.52
				c1.035,1.784,1.953,3.595,2.76,5.433c0.803,1.841,1.207,3.682,1.207,5.52c0,1.267-0.375,2.215-1.121,2.846
				c-0.75,0.633-1.668,1.065-2.76,1.294c-1.094,0.229-2.242,0.345-3.449,0.345s-2.217,0-3.02,0c-3.104,0-5.52-1.208-7.244-3.622
				c-1.725-2.415-3.049-5.288-3.967-8.625c-0.922-3.334-1.553-6.754-1.898-10.263c-0.344-3.506-0.689-6.353-1.035-8.538
				c-1.266-8.393-2.328-16.559-3.189-24.494c-0.863-7.935-1.639-15.839-2.33-23.717c-0.689-7.875-1.293-15.839-1.811-23.89
				C1208.619,262.939,1208.015,254.659,1207.326,246.148z"/>
			<path fill="#3C3C3B" d="M1465.439,243.043c-0.691,0-1.209-0.057-1.553-0.172c0.689,1.38,1.035,2.415,1.035,3.105v41.742
				c0.803,1.151,3.045,1.725,6.727,1.725c3.68,0,8.047-0.259,13.109-0.776c5.059-0.517,10.436-1.264,16.127-2.242
				c5.693-0.976,10.98-1.897,15.869-2.76c4.887-0.862,8.971-1.552,12.248-2.07s5.088-0.661,5.434-0.431
				c0.457,0,1.35-0.057,2.672-0.173c1.322-0.113,2.73-0.229,4.227-0.345c1.494-0.113,2.873-0.2,4.141-0.259
				c1.264-0.057,2.125-0.086,2.586-0.086c0,3.682-2.012,6.67-6.037,8.97c-4.025,2.302-9.115,4.083-15.264,5.347
				c-6.154,1.267-12.795,2.215-19.924,2.846c-7.131,0.633-13.828,1.18-20.096,1.639c-6.268,0.46-11.557,0.978-15.867,1.552
				c-4.313,0.577-6.643,1.439-6.986,2.587c-0.922,2.531-1.553,5.291-1.898,8.279c-0.344,2.992-0.576,6.067-0.689,9.229
				c-0.115,3.164-0.145,6.296-0.086,9.4c0.057,3.105,0.086,5.924,0.086,8.452c0,0.69,0,1.754,0,3.191
				c0,1.439,0.027,2.992,0.086,4.657c0.057,1.668,0.086,3.221,0.086,4.657c0,1.439,0,2.388,0,2.846
				c0.691,1.612,2.07,2.79,4.141,3.536c2.07,0.749,4.313,1.208,6.727,1.38c2.416,0.172,4.744,0.202,6.986,0.086
				c2.242-0.113,3.881-0.172,4.916-0.172c5.174,0,10.377-0.259,15.609-0.776c5.232-0.518,10.436-1.062,15.611-1.639
				c5.174-0.574,10.35-1.122,15.523-1.639c5.176-0.518,10.35-0.776,15.525-0.776h1.207c0.344,0.116,0.832,0.259,1.465,0.431
				c0.631,0.172,1.295,0.404,1.984,0.69c0.689,0.289,1.32,0.547,1.898,0.776c0.572,0.231,0.975,0.404,1.207,0.518
				c0.344,0.116,0.803,0.431,1.379,0.948c0.574,0.518,0.863,0.893,0.863,1.122c0,2.875-1.611,5.261-4.83,7.158
				c-3.221,1.897-7.273,3.423-12.16,4.571c-4.889,1.151-10.264,2.013-16.129,2.587c-5.863,0.577-11.443,0.949-16.73,1.121
				c-5.291,0.173-9.891,0.259-13.799,0.259c-3.912,0-6.383,0-7.418,0c-6.209,0-11.643-0.518-16.301-1.552
				c-4.656-1.035-8.537-2.816-11.643-5.347c-3.105-2.528-5.434-5.978-6.986-10.35c-1.551-4.369-2.328-9.832-2.328-16.386
				c0-5.865,0.432-11.7,1.293-17.508c0.863-5.805,1.295-11.756,1.295-17.853c0-2.528-0.404-4.598-1.207-6.21
				c-0.807-1.609-1.209-3.45-1.209-5.52v-1.208c0.23-0.229,0.748-0.949,1.553-2.156c0.803-1.207,1.381-1.983,1.725-2.329v-50.712
				c0-2.528,0.287-4.398,0.863-5.606c0.574-1.207,1.867-2.04,3.881-2.501c2.01-0.458,4.916-0.631,8.711-0.518
				c3.795,0.116,8.939,0.318,15.438,0.604c6.496,0.288,14.547,0.547,24.148,0.776c9.6,0.232,21.188,0.232,34.758,0
				c1.492,0.69,3.045,1.38,4.656,2.07c1.609,0.69,3.045,1.553,4.313,2.587c1.264,1.035,2.299,2.243,3.105,3.623
				c0.803,1.38,1.207,3.048,1.207,5.002c0,0.461-0.289,1.008-0.863,1.639c-0.576,0.633-1.035,0.892-1.379,0.776l-11.039-4.485
				L1465.439,243.043z"/>
			<path fill="#3C3C3B" d="M1545.955,293.458c7.665-8.05,16.865-15.05,27.604-20.99c10.733-5.944,22.617-10.738,35.653-14.377
				c13.033-3.644,26.167-6.083,39.392-7.332c13.228-1.245,26.167-1.294,38.819-0.144c12.651,1.149,24.053,3.594,34.214,7.332
				c10.158,3.738,18.549,8.865,25.161,15.384c6.612,6.514,10.588,14.376,11.932,23.577c1.15,9.201-0.337,17.49-4.456,24.872
				c-4.126,7.377-9.969,14.232-17.539,20.558c-7.576,6.326-16.389,12.171-26.452,17.54c-10.063,5.365-20.419,10.541-31.055,15.527
				c-10.64,4.982-21.133,9.87-31.487,14.663c-10.35,4.789-19.648,9.777-27.889,14.953c-8.244,5.174-14.858,10.638-19.84,16.389
				c-4.988,5.751-7.476,12.077-7.476,18.976c0,7.092,2.633,12.653,7.908,16.679c5.268,4.026,11.594,6.994,18.974,8.913
				c7.379,1.914,14.906,3.113,22.573,3.594c7.664,0.477,13.896,0.72,18.692,0.72c5.172,0.576,10.206,0.094,15.093-1.438
				c4.887-1.536,9.532-3.551,13.944-6.037c4.408-2.495,8.628-5.083,12.652-7.766c4.027-2.687,8.002-5.03,11.933-7.042
				c3.926-2.015,7.716-3.356,11.359-4.027c3.637-0.674,7.283-0.05,10.926,1.869c0,5.557-1.582,10.445-4.746,14.664
				c-3.161,4.215-7.238,7.907-12.22,11.07c-4.988,3.163-10.594,5.796-16.818,7.907c-6.232,2.106-12.509,3.832-18.835,5.177
				c-6.326,1.337-12.321,2.298-17.973,2.875c-5.654,0.573-10.304,0.862-13.943,0.862c-7.668,0-16.01-0.769-25.015-2.302
				c-9.013-1.535-17.447-4.168-25.304-7.905c-7.863-3.739-14.427-8.726-19.698-14.954c-5.273-6.23-7.905-14.137-7.905-23.722
				c0-4.601,0.763-9.249,2.299-13.944c1.533-4.698,3.64-9.106,6.327-13.227c2.682-4.123,5.843-7.906,9.49-11.357
				c3.636-3.45,7.568-6.326,11.789-8.625l114.146-62.396c3.836-2.112,6.806-4.124,8.915-6.038c2.106-1.918,3.641-3.98,4.601-6.182
				c0.957-2.206,1.533-4.699,1.725-7.477c0.189-2.78,0.287-5.993,0.287-9.632c0.385-7.862-2.109-13.756-7.476-17.683
				c-5.368-3.931-11.886-6.712-19.551-8.338c-7.67-1.63-15.624-2.543-23.864-2.731c-8.244-0.193-14.953-0.387-20.128-0.575
				c-15.146,0.958-29.474,2.301-42.986,4.025c-13.515,1.726-25.401,5.126-35.653,10.208c-10.259,5.076-18.359,12.409-24.299,21.996
				c-5.944,9.583-8.914,22.716-8.914,39.393c-2.875,0-5.561-0.912-8.051-2.731c-2.49-1.825-4.649-4.076-6.469-6.757
				c-1.824-2.687-3.26-5.512-4.312-8.482c-1.059-2.974-1.582-5.706-1.582-8.195C1533.111,310.611,1538.285,301.508,1545.955,293.458
				z"/>
		</g>
		<g>
			<path fill="#3C3C3B" d="M256.953,511.464c-7.499-13.26-13.655-26.856-18.478-40.78c-4.828-13.924-9.137-27.951-12.925-42.083
				c-3.794-14.128-7.325-28.292-10.591-42.49c-3.272-14.195-6.992-28.306-11.159-42.333c-0.458-1.649,0.234-3.053,2.091-4.217
				c1.852-1.159,4.039-2.093,6.563-2.794c3.029-0.843,5.925-0.921,8.703-0.239c2.773,0.684,5.236,1.736,7.403,3.152
				c2.16,1.421,3.951,2.982,5.381,4.682c1.423,1.705,2.305,3.157,2.638,4.356c9.983,28.082,17.938,51.557,23.864,70.423
				c5.923,18.869,10.196,34.239,12.822,46.109c2.621,11.871,3.957,20.83,4.006,26.875c0.05,6.043-0.846,10.41-2.678,13.103
				c-1.841,2.69-4.32,4.271-7.454,4.737C264.008,510.436,260.611,510.933,256.953,511.464z"/>
		</g>
	</g>
	<rect x="1026.853" y="417.381" fill="none" width="692.48" height="154"/>
	<text transform="matrix(1 0 0 1 1026.853 514.5796)"><tspan x="0" y="0" fill="#D8AA77" font-family="'IndieFlower'" font-size="100">es </tspan><tspan x="187.5" y="0" fill="#D8AA77" font-family="'IndieFlower'" font-size="100" letter-spacing="5">fichier</tspan></text>
</g>
</svg>
