<?xml version="1.0" encoding="utf-8"?>
<!-- Generator: Adobe Illustrator 16.0.0, SVG Export Plug-In . SVG Version: 6.00 Build 0)  -->
<!DOCTYPE svg PUBLIC "-//W3C//DTD SVG 1.1//EN" "http://www.w3.org/Graphics/SVG/1.1/DTD/svg11.dtd">
<svg version="1.1" id="Calque_1" xmlns="http://www.w3.org/2000/svg" xmlns:xlink="http://www.w3.org/1999/xlink" x="0px" y="0px"
	 width="223.609px" height="307.095px" viewBox="0 0 223.609 307.095" enable-background="new 0 0 223.609 307.095"
	 xml:space="preserve">
<g>
	<path fill="#C69461" d="M172.661,62.583c24.107,39.52,42.658,83.684,37.912,128.333c-4.746,44.65-37.943,89.238-87.496,99.935
		c-7.205,1.555-14.688,2.388-22.064,1.662c-6.249-0.604-12.299-2.321-18.034-4.611c-1.152-0.453-2.287-0.94-3.41-1.438
		c-30.535-13.62-50.893-40.854-61.063-69.594c-12.358-34.91-10.914-72.63,0.356-107.526c8.995-27.891,17.276-71.217,46.206-90.783
		c7.693-5.207,16.842-8.724,27.858-9.834c17.731-1.781,35.487,5.273,48.72,15.794C154.882,35.042,164.231,48.761,172.661,62.583z"/>
	<path fill="#D8AA77" d="M168.089,89.308c12.584,34.898,22.623,71.548,17.383,107.857c-5.232,36.315-28.473,72.479-66.68,87.062
		c-8.252,3.148-17.17,5.264-26.165,4.938c-3.279-0.115-6.504-0.557-9.648-1.264c-1.152-0.453-2.287-0.94-3.41-1.438
		c-30.535-13.62-50.893-40.854-61.063-69.594c-12.358-34.91-10.914-72.63,0.356-107.526c8.995-27.891,17.276-71.217,46.206-90.783
		c16.009-4.936,33.865-5.133,48.803,0.969C143.823,31.763,158.112,61.633,168.089,89.308z"/>
	<path fill="#E8C199" d="M80.504,24.587c-0.371-0.117-0.76-0.226-1.167-0.325c-12.71-3.109-24.51,10.419-30.705,17.543
		c-4.169,4.794-9.554,15.987-3.453,21.192c3.673,3.134,9.604,3.444,14.392,1.855c4.789-1.589,8.665-4.745,12.243-7.966
		C79.013,50.405,96.442,29.62,80.504,24.587z"/>
	<path fill="#E8C199" d="M41.145,78.709c-3.193,3.775-4.263,9.523-1.299,13.165c1.067,1.311,2.599,2.494,4.43,2.583
		c1.25,0.06,2.452-0.398,3.562-0.907c3.736-1.714,7.186-4.298,8.599-7.789c1.412-3.489,0.219-7.942-3.448-9.769
		C48.275,73.646,43.912,75.437,41.145,78.709z"/>
	<path fill="#C69461" d="M145.521,242.089c-6.832-7.512-22.119-7.548-24.879,5.931c-1.49,7.271-1.316,14.2,7.15,16.904
		c9.223,2.947,19.088-3.289,20.742-11.545C149.456,248.778,148.083,244.908,145.521,242.089z"/>
	<path fill="#C69461" d="M160.968,215.475c-4.521-4.972-14.633-4.994-16.461,3.924c-0.984,4.811-0.871,9.397,4.73,11.186
		c6.104,1.948,12.631-2.177,13.725-7.639C163.571,219.901,162.663,217.339,160.968,215.475z"/>
	<path fill="#C69461" d="M133.327,220.488c-2.84-3.123-9.191-3.137-10.34,2.465c-0.619,3.021-0.547,5.901,2.971,7.026
		c3.834,1.224,7.936-1.367,8.621-4.798C134.964,223.268,134.392,221.66,133.327,220.488z"/>
	<g>
		<path fill="#1E1E1C" d="M112.483,89.434c-1.845,4.186-2.793,10.694-2.444,16.794c0.349,6.101,1.982,11.614,4.216,14.224
			c4.161,4.863,10.983,3.768,13.004-8.454c1.529-9.244-0.076-21.978-3.477-26.844C120.189,80.011,115.483,82.631,112.483,89.434z"/>
		<path fill="#FFFFFF" d="M117.764,96.64c1.35,0.977,3.318,1.133,4.784,0.405c1.468-0.728,2.36-2.287,2.23-3.835
			c-0.133-1.549-1.269-3.014-2.82-3.68C117.488,87.612,114.086,93.979,117.764,96.64z"/>
	</g>
	<path fill="#1E1E1C" d="M80.845,152.812l35.013-3.359C115.857,149.453,99.323,163.145,80.845,152.812z"/>
</g>
<path fill="#1E1E1C" d="M57.873,91.555c-1.845,4.185-2.793,10.694-2.444,16.794c0.349,6.101,1.982,11.614,4.216,14.223
	c4.161,4.863,10.983,3.768,13.004-8.453c1.529-9.244-0.076-21.979-3.477-26.845C65.579,82.131,60.873,84.751,57.873,91.555z"/>
<g>
	<path fill="#FFFFFF" d="M62.521,98.043c1.539,0.989,3.847,1.079,5.611,0.244c1.764-0.834,2.896-2.536,2.82-4.183
		c-0.077-1.647-1.338-3.167-3.131-3.816C62.656,88.417,58.328,95.347,62.521,98.043z"/>
</g>
</svg>
